<?xml version="1.0" encoding="utf-8"?>
<!-- Generator: Adobe Illustrator 15.1.0, SVG Export Plug-In . SVG Version: 6.00 Build 0)  -->
<!DOCTYPE svg PUBLIC "-//W3C//DTD SVG 1.1//EN" "http://www.w3.org/Graphics/SVG/1.1/DTD/svg11.dtd">
<svg version="1.1" id="Layer_1" xmlns="http://www.w3.org/2000/svg" xmlns:xlink="http://www.w3.org/1999/xlink" x="0px" y="0px"
	 width="305.257px" height="449.493px" viewBox="0 0 305.257 449.493" enable-background="new 0 0 305.257 449.493"
	 xml:space="preserve">
<g>
	<g>
		<g>
			<path fill="#898989" d="M48.455,136.673c-1.979,1.173-3.358,2.574-4.529,4.551c-0.348,0.586-0.212,1.438,0.465,1.737
				c3.558,1.569,5.833,4.981,9.71,6.058c3.711,1.031,7.001-1.411,8.508-4.587c0.287-0.604,0.261-1.428-0.465-1.737
				c-7.736-3.298-25.227,2.348-24.502,12.477c0.69,9.649,19.632,2.813,20.652-4.481c0.106-0.764-0.501-1.308-1.194-1.475
				c-6.255-1.514-10.619,3.741-12.359,9.14c-2.054,6.371,4.329,8.972,9.253,5.815c1.083-0.694,2.03-1.521,2.953-2.414
				c1.603-1.551,1.781-2.852,3.349-0.854c1.587,2.021,1.368,5.827,1.295,8.191c-0.104,3.403-0.726,6.924-1.918,10.117
				c-0.45,1.204-1.056,2.433-1.854,3.446c-0.966,1.225-1.438,0.458-2.862-0.832c-1.726-1.561-7.192,0.74-5.344,2.413
				c4.15,3.755,9.753,3.817,13.377-0.778c3.764-4.773,4.742-12.163,4.427-18.047c-0.276-5.162-2.915-11.593-9.305-9.492
				c-2.71,0.891-4.521,3.152-6.504,5.071c-2.455,2.375-0.643-8.894,2.046-8.243c-0.398-0.492-0.796-0.983-1.194-1.475
				c-0.504,3.606-7.872,7.207-9.022,2.347c-1.237-5.222,10.415-9.446,14.168-7.846c-0.155-0.579-0.31-1.158-0.465-1.737
				c-1.003,2.113-2.526-0.041-3.972-1.174c-1.364-1.07-2.636-2.272-4.238-2.978c0.155,0.579,0.31,1.158,0.465,1.737
				c0.574-1.278,1.501-2.198,2.781-2.759C55.554,136.86,50.592,135.407,48.455,136.673L48.455,136.673z"/>
		</g>
	</g>
	<g>
		<g>
			<path fill="#898989" d="M69.801,105.223c-0.443-8.009-2.849-16.842-11.806-18.503c-1.482-0.275-4.713,0.372-4.674,2.345
				c0.109,5.431,12.759,5.684,16.375,5.889c2.767,0.156,6.753-0.061,8.934-2.072c2.469-2.277,1.138-4.812-0.191-7.412
				c-4.009-7.84-2.198-16.781,0.206-24.92c1.408-4.767,3.523-9.664,7.001-13.295c4.182-4.367,12.106-1.896,17.52-2.031
				c0.789-0.02,4.796-0.806,4.027-2.413c-0.908-1.897-2.215-3.283-3.671-4.787c-2.587-2.671-2.585-5.321-2.082-8.856
				c1.019-7.153,5.491-13.708,9.906-19.221c2.523-3.149,11.854-10.483,14.207-4.071c1.608,4.385,0.524,9.827,0.318,14.379
				c-0.247,5.443-1.387,10.74-3.292,15.843c-0.587,1.572-1.392,3.036-2.269,4.461c-0.239,0.334-0.479,0.668-0.718,1.003
				c-1.542,1.139-1.282,1.472,0.782,1c-1.087-0.892-1.064-3.37-1.156-4.611c-0.588-7.919,2.945-16.46,6.721-23.22
				c3.558-6.369,6.062,0.926,7.381,4.684c1.859,5.294,3.371,9.858,2.41,15.603c-0.265,1.583-0.891,3.072-1.644,4.478
				c-1.058,1.973,0.864,1.829,0.634,0.202c-0.544-3.845,1.477-7.844,3.381-10.984c2.734-4.51,14.853-8.351,16.136-0.873
				c0.741,4.317-4.262,9.916-6.999,12.747c-2.82,2.916-4.348-0.319-1.317-1.793c3.896-1.895,6.063,2.045,5.809,5.138
				c-0.089,1.091-0.619,2.046-1.205,2.937c0.063-0.096,2.346,3.509,2.567,4.076c0.878,2.255,1.056,4.745,1.196,7.133
				c0.259,4.436-0.146,10.615,4.211,13.335c7.235,4.517,21.094,3.416,25.526-4.715c1.319-2.42-4.492-1.769-5.395-0.114
				c-2.793,5.124-10.058,4.854-14.672,2.561c-5.117-2.544-3.607-11.85-4.233-16.455c-0.511-3.761-1.985-7.042-5.979-7.644
				c-2.632-0.397-8.259,0.811-9.058,3.966c-0.8,3.164,3.616,2.51,5.38,2.003c3.707-1.066,6.669-4.048,7.456-7.813
				c1.888-9.043-10.383-9.293-15.534-5.961c-6.455,4.175-2.699,9.392,4.02,7.743c7.058-1.732,14.045-11.667,14.023-18.696
				c-0.012-3.86-4.826-5.379-7.865-5.727c-4.429-0.507-9.295,0.713-13.222,2.741c-4.504,2.327-6.782,5.664-8.814,10.264
				c-1.186,2.683-3.008,10.319,1.443,11.068c3.917,0.66,6.911-3.169,8.52-6.17c2.422-4.519,2.178-10.217,1.02-15.047
				c-1.456-6.069-4.418-16.489-12.384-14.979c-8.811,1.67-10.795,12.33-13.759,19.291c-1.853,4.353-3.159,13.074,0.02,17.098
				c1.428,1.808,4.976,0.924,6.574-0.062c3.867-2.385,5.792-6.672,7.323-10.774c3.116-8.344,4.292-19.889,2.702-28.738
				c-1.708-9.502-14.957-3.809-19.809-0.719c-8.848,5.636-15.669,17.986-16.455,28.304c-0.426,5.597,3.96,7.112,6.073,11.527
				c1.342-0.804,2.685-1.609,4.027-2.413c-8.337,0.207-16.666-1.989-23.703,3.698c-6.18,4.994-8.847,14.29-10.396,21.699
				c-1.532,7.329-1.669,13.833,1.762,20.543c0.2,0.391,1.958,3.577,0.767,3.766c-1.803,0.287-3.908-0.097-5.695-0.314
				c-2.245-0.272-8.979-0.716-9.041-3.831c-1.558,0.782-3.116,1.563-4.674,2.345c7.723,1.433,9.197,10.328,9.562,16.919
				C64.108,108.639,69.923,107.446,69.801,105.223L69.801,105.223z"/>
		</g>
	</g>
	<g>
		<g>
			<path fill="#898989" d="M53.567,132.903c3.987-3.161,8.027,0.732,12.28,0.866c2.215,0.069,5.506-1.099,6.944-2.876
				c3.755-4.643,2.896-11.382,1.912-16.914c-0.961-5.409-4.156-11.769-10.279-12.334c-4.896-0.451-10.58,1.356-13.118,5.844
				c-2.567,4.541,3.287,8.131,7.102,8.381c2.435,0.159,4.96-0.041,6.921-1.657c1.1-0.906,2.366-2.589,0.716-3.702
				c-3.204-2.161-9.08-1.088-10.981,2.424c-2.574,4.754-0.244,10.855,4.78,12.845c1.944,0.77,7.168-1.979,4.556-3.014
				c-2.551-1.011-3.794-2.891-4.495-5.485c-0.093-0.342-0.358-4.158,0.71-4.138c-0.326-1.002-1.033-1.543-2.12-1.623
				c-0.914-0.556-1.523-1.334-1.83-2.337c-1.136-3.169,4.089-4.185,5.981-3.765c3.57,0.792,5.133,5.786,5.959,8.769
				c0.777,2.805,0.968,5.812,1.006,8.707c0.015,1.185-0.08,2.345-0.219,3.52c-0.445,3.767-3.909,3.061-6.245,2.054
				c-4.186-1.806-9.83-0.374-13.275,2.357C46.792,133.269,51.607,134.457,53.567,132.903L53.567,132.903z"/>
		</g>
	</g>
	<g>
		<g>
			<path fill="#898989" d="M121.942,126.781c-3.27,0.117-5.803-2.031-8.856-2.745c-2.894-0.676-5.543-0.49-8.405,0.251
				c-5.791,1.5-13.211,8.442-18.198,1.936c-8.813-11.499,12.468-24.281,20.356-28.509c6.589-3.532,14.006-5.37,21.407-6.087
				c3.4-0.33,6.824-0.26,10.223,0.026c0.62,0.053,6.909,1.333,5.693,2.046c-4.496,2.638-11.582,3.27-16.526,4.587
				c-3.472,0.925-6.944,1.85-10.421,2.76c-3.931,1.029-7.422,2.699-11.579,2.682c0.858,0.894,1.716,1.788,2.575,2.682
				c1.629-4.333,13.247-2.958,16.759-2.653c2.09,0.182,8.522,0.534,7.372,3.699c-1.935,5.322-9.721,6.999-14.315,5.195
				c0.105,1.174,0.21,2.347,0.315,3.521c5.88-4.96,17.365,1.104,11.879,8.953c-5.463,7.816-17.333,7.372-25.657,8.815
				c-4.482,0.777-8.776,2.672-13.161,3.853c-6.312,1.7-11.445-0.257-17.28-2.415c-8.488-3.139-16.831-2.039-25.13,1.094
				c-3.699,1.396-0.446,4.885,2.647,3.717c7.848-2.962,14.575-2.453,22.297,0.477c5.744,2.18,10.886,2.841,16.949,1.788
				c6.474-1.125,12.384-3.984,18.961-4.838c5.841-0.759,11.455-1.532,16.859-4.012c6.897-3.166,15.262-12.107,8.75-19.616
				c-4.626-5.334-15.933-5.029-21.031-0.729c-1.234,1.041-1.382,2.854,0.315,3.521c7.307,2.869,14.765,0.531,20.315-4.699
				c5.156-4.859,3.88-10.122-2.916-11.933c-7.29-1.942-26.066-3.724-29.513,5.443c-0.674,1.793,1.05,2.675,2.575,2.682
				c4.602,0.018,8.832-1.553,13.161-2.942c5.101-1.637,10.435-2.768,15.615-4.14c4.057-1.075,14.954-1.941,15.997-7.177
				c2.671-13.405-34.792-4.683-39.961-2.622c-8.481,3.382-15.815,8.769-22.839,14.525c-5.941,4.869-9.487,11.488-7.676,19.241
				c1.736,7.434,9.279,9.327,15.814,7.754c4.335-1.043,7.978-4.076,12.417-4.767c4.541-0.707,8.978,3.351,13.778,3.18
				C124.909,131.203,125.875,126.641,121.942,126.781L121.942,126.781z"/>
		</g>
	</g>
	<g>
		<g>
			<path fill="#898989" d="M125.884,51.614c4.768-4.076,11.353-1.804,16.131,1.119c5.652,3.458,8.506,9.973,11.021,15.801
				c2.796,6.48,6.209,13.004,6.405,20.189c0.091,3.288-0.616,6.628-1.392,9.801c-0.921,3.766-1.127,7.723-1.699,11.551
				c-1.186,7.929-5.378,15.503-7.882,23.098c-1.226,3.72-4.5,9.363-2.653,13.242c2.365,4.967,8.797,0.317,12.348,2.288
				c4.884,2.71,2.19,10.715,1.394,14.882c-0.541,2.835,5.381,2.065,5.865-0.468c0.971-5.084,2.372-10.126-0.072-14.984
				c-1.082-2.15-3.579-3.294-5.677-4.13c-1.444-0.575-7.96,1.075-8.432,0.083c-1.037-2.178,1.486-6.183,2.136-8.306
				c1.462-4.783,3.222-9.456,5.038-14.114c1.564-4.013,3.043-7.806,3.8-12.059c0.779-4.374,1.024-8.79,2.083-13.119
				c1.943-7.955,0.718-15.229-2.565-22.612c-2.907-6.538-5.204-13.388-9.519-19.183c-6.475-8.694-21.271-13.232-30.151-5.639
				C119.072,51.611,123.721,53.463,125.884,51.614L125.884,51.614z"/>
		</g>
	</g>
	<g>
		<g>
			<path fill="#898989" d="M62.487,174.704c-1.894,2.443-4.143,3.228-6.311,0.708c-0.814-0.947-0.906-5.061,1.253-4.148
				c1.981,0.836,3.543,2.627,4.956,4.183c2.812,3.098,5.056,6.69,6.807,10.473c3.827,8.266,5.596,17.288,13.222,23.08
				c7.389,5.611,19.208,5.093,26.979,0.62c4.405-2.535,8.315-6.392,12.059-9.801c3.664-3.336,6.862-7.208,8.248-12.031
				c0.381-1.328-1.762-1.641-2.575-1.515c-13.893,2.157-1.83,24.924,1.614,31.5c3.312,6.325,6.648,9.906,13.8,12.009
				c11.05,3.248,22.847-0.747,34.058-0.213c-0.552-0.67-1.103-1.34-1.653-2.01c-0.254,0.315-0.508,0.631-0.763,0.946
				c-2.578,2.345,3.137,2.718,4.732,1.268c0.726-0.66,1.058-1.009,1.487-1.866c0.612-1.226-0.522-1.956-1.653-2.01
				c-13.614-0.648-34.109,7.07-42.794-7.175c-3.059-5.016-5.391-10.561-7.277-16.111c-0.873-2.568-1.554-5.201-1.954-7.884
				c-0.151-1.015-0.179-2.022-0.114-3.045c0.081-1.281,1.087-1.964-0.16-1.771c-0.858-0.505-1.717-1.01-2.575-1.515
				c-1.953,6.797-8.407,11.344-13.577,15.691c-6.588,5.54-14.624,6.941-22.315,2.553c-9.875-5.634-10.823-20.418-16.849-29.2
				c-4.156-6.058-12.831-15.054-19.75-6.985c-3.033,3.537-1.299,8.654,3.1,10.023c5.413,1.683,10.184-1.196,13.463-5.426
				C69.682,172.809,63.781,173.034,62.487,174.704L62.487,174.704z"/>
		</g>
	</g>
	<g>
		<g>
			<path fill="#898989" d="M89.004,148.166c-0.926,3.131-0.919,6.489-1.125,9.726c-0.252,3.963-1.086,7.489-2.316,11.251
				c-0.937,2.868-2.007,6.03-0.926,8.98c1.055,2.88,5.166,3.284,7.15,5.284c1.682,1.696,7.184-0.577,5.336-2.44
				c-1.786-1.8-3.839-2.563-6.007-3.782c-2.99-1.68,0.418-8.986,1.144-11.221c1.941-5.978,0.822-12.388,2.585-18.352
				C95.58,145.127,89.68,145.877,89.004,148.166L89.004,148.166z"/>
		</g>
	</g>
	<g>
		<g>
			<path fill="#898989" d="M67.08,150.787c3.681-1.436,7.393-1.773,10.758-4.047c1.055-0.712,1.432-2.273,0.287-3.087
				c-1.258-0.895-2.987-0.468-4.162,0.326c-2.728,1.843-6.443,2.076-9.484,3.262c-1.118,0.437-2.181,1.93-1.347,3.068
				C64.048,151.56,65.854,151.265,67.08,150.787L67.08,150.787z"/>
		</g>
	</g>
	<g>
		<g>
			<path fill="#898989" d="M101.023,144.626c2.893,0.055,5.663,0.796,8.491,1.33c1.345,0.254,2.847-0.121,4.058-0.714
				c0.437-0.214,2.037-1.352,0.684-1.607c-3.158-0.596-6.271-1.419-9.501-1.48c-1.394-0.026-2.924,0.32-4.098,1.098
				C99.756,143.849,99.874,144.604,101.023,144.626L101.023,144.626z"/>
		</g>
	</g>
	<g>
		<g>
			<path fill="#898989" d="M82.645,152.171c-4.829-2.401-15.09-2.323-16.97,4.07c-0.994,3.379,1.464,6.726,4.657,7.64
				c3.466,0.992,7.455-0.308,10.479-2.012c3.439-1.938,0.303-4.809-2.515-3.221c-1.283,0.723-2.791,1.525-4.313,1.472
				c-1.933-0.066-2.854-2.334-2.561-4.004c0.375-2.137,5.498-1.314,6.728-0.703c1.333,0.663,2.933,0.49,4.146-0.387
				C83.135,154.421,83.966,152.828,82.645,152.171L82.645,152.171z"/>
		</g>
	</g>
	<g>
		<g>
			<path fill="#898989" d="M106.349,150.486c-0.492-0.956-1.49,1.261-2.441,1.404c-0.519,0.077,0.575,0.007,0.532,0.007
				c0.876-0.002,1.752,0.101,2.622,0.195c1.459,0.158,3.154,0.336,4.454,0.734c1.431,0.438,4.658,1.474,4.015,3.535
				c-0.531,1.702-3.154,2.952-4.544,3.807c-0.618,0.38-1.9,1.448-0.596,1.936c1.215,0.454,3.015,0.028,4.081-0.628
				c2.42-1.489,5.995-3.326,6.909-6.255c0.912-2.921-3.766-4.629-5.769-5.114c-2.756-0.667-5.609-0.976-8.439-1.078
				c-1.224-0.044-7.863,0.591-6.619,3.01C101.457,153.795,107.041,151.832,106.349,150.486L106.349,150.486z"/>
		</g>
	</g>
	<g>
		<g>
			<path fill="#898989" d="M108.385,159.798c0.902-0.34-0.629,0.091,0.375-0.086c-0.725,0.128,0.551,0.077-0.166,0.027
				c0.648,0.045-0.267-0.134,0.144,0.063c0.036,0.017-0.52-0.357-0.377-0.224c-1.068-0.996-2.636-0.938-3.913-0.342
				c-0.796,0.372-2.483,1.828-1.412,2.828c2.264,2.111,5.099,1.942,7.848,0.905c1.001-0.378,2.267-1.742,1.412-2.828
				C111.376,158.972,109.55,159.359,108.385,159.798L108.385,159.798z"/>
		</g>
	</g>
	<g>
		<g>
			<path fill="#898989" d="M88.663,193.575c5.028,0.015,9.074,2.64,14.234,1.551c4.722-0.996,7.556-4.346,11.229-7.147
				c2.407-1.835-3.395-1.168-4.483-0.339c-2.623,2-5.29,5.819-9.01,5.105c-2.856-0.548-5.293-1.696-8.257-1.705
				c-1.411-0.004-2.911,0.288-4.098,1.098C87.404,192.735,87.485,193.572,88.663,193.575L88.663,193.575z"/>
		</g>
	</g>
	<g>
		<g>
			<path fill="#898989" d="M108.851,189.118c1.499,0,2.998,0,4.497,0c1.361,0,3.062-0.385,3.8-1.676
				c0.673-1.178-0.571-2.064-1.667-2.064c-1.499,0-2.998,0-4.497,0c-1.361,0-3.062,0.385-3.8,1.676
				C106.51,188.232,107.754,189.118,108.851,189.118L108.851,189.118z"/>
		</g>
	</g>
	<g>
		<g>
			<path fill="#898989" d="M121.029,144.424c-0.993,7.969,12.908,4.124,17.04,4.783c3.109,0.496,4.99,2.927,5.9,5.737
				c0.256,0.788,1.169,6.231-0.284,6.734c-0.809,0.28-2.115-1.045-2.531-1.568c-0.178-0.225-0.467-0.724-0.263-1.024
				c-1.777,0.016-2.19,0.287-1.24,0.813c0.352,0.29,0.673,0.61,0.963,0.962c3.262,3.578,7.155,11.125,13.109,7.574
				c5.293-3.157,5.35-10.662,1.162-14.604c-8.387-7.897-28.414-8.018-30.42,5.939c-2.185,15.197,19.285,32.439,32.127,20.696
				c2.268-2.074,5.51-6.393,4.881-9.684c-0.625-3.272-3.437-4.017-6.37-3.264c-3.887,0.997-5.421,5.109-5.036,8.664
				c0.406,3.742,4.368,6.88,6.715,9.469c2.067,2.281,7.327,8.396,2.689,10.741c-2.878,1.456-7.569,0.25-10.161-1.265
				c-1.284-0.751-2.332-1.972-2.445-3.504c-0.321-4.322,2.815,0.938,2.715,3.136c-0.109,2.408-2.56,5.024-3.373,7.281
				c-0.769,2.134-0.855,4.181-0.666,6.413c0.75,8.831,10.899,11.719,17.98,9.243c2.485-0.869,5.162-2.321,5.743-5.076
				c0.68-3.217-5.416-3.922-7.198-4.103c-6.512-0.659-19.062,4.801-18.967,12.633c0.09,7.447,12.043,3.832,15.152,1.259
				c3.032-2.509-1.567-4.773-3.896-2.845c-0.761,0.63-5.344,3.14-5.376,0.486c-0.04-3.283,5.933-5.9,8.38-6.69
				c1.298-0.419,5.15,0.365,6.068-0.501c-0.781,0.738-2.075,0.996-3.069,1.267c-4.142,1.128-7.542-2.431-8.758-5.981
				c-1.896-5.533,3.688-9.799,3.929-15.093c0.19-4.196-3.209-7.491-7.034-8.314c-3.48-0.75-6.591,2.478-7.267,5.576
				c-0.766,3.51,0.798,6.279,3.647,8.275c5.145,3.604,14.638,4.173,19.562-0.078c7.489-6.466-2.121-15.008-6.442-19.887
				c-1.026-1.159-1.643-2.532-2.132-3.994c-0.798-2.384-1.726,1.044-2.222,1.783c-1.307,1.944-3.189,3.276-5.526,3.54
				c-4.746,0.534-9.476-3.392-12.412-6.643c-4.318-4.781-9.521-17.03-0.455-19.879c5.217-1.64,14.389,0.457,16.568,6.067
				c0.686,1.765,0.014,3.703-0.948,5.227c0.326-0.516,1.323,0.538-0.051-0.583c-0.775-0.633-1.397-1.506-2.022-2.28
				c-1.909-2.361-3.671-5.321-6.607-6.502c-2.731-1.099-5.983,0.723-7.017,3.31c-1.052,2.635,1.246,5.172,3.373,6.348
				c2.58,1.427,6.298,1.667,8.716-0.288c3.453-2.79,3.358-7.328,2.504-11.336c-1.038-4.873-5.258-7.487-9.743-8.595
				c-1.651-0.408-13.298,0.796-13.105-0.752C127.302,140.952,121.374,141.662,121.029,144.424L121.029,144.424z"/>
		</g>
	</g>
	<g>
		<g>
			<path fill="#898989" d="M108.146,253.687c3.707-5.395,5.887-13.445,5.111-19.984c-0.562-4.739-2.24-13.211-6.182-16.415
				c-2.117-1.72-7.1,1.294-4.438,3.458c2.821,2.292,3.785,9.394,4.51,12.731c1.244,5.722-0.626,13.586-3.895,18.343
				C101.14,254.896,106.555,256.002,108.146,253.687L108.146,253.687z"/>
		</g>
	</g>
	<g>
		<g>
			<path fill="#898989" d="M107.363,151.882c-1.88-0.855-3.959,0.58-4.776,2.229c-1.257,2.54-0.516,5.717,2.2,6.84
				c0.514,0.212,1.948-0.585,1.826-0.636c-1.777-0.735-2.64-2.206-2.68-4.092c-0.018-0.855,0.215-1.698,0.553-2.476
				c0.141-0.324,0.334-0.619,0.54-0.905c0.118-0.16,0.253-0.304,0.404-0.432c0.417-0.385-0.455-0.15,0.106,0.105
				C106.039,152.746,107.501,151.945,107.363,151.882L107.363,151.882z"/>
		</g>
	</g>
	<g>
		<g>
			<path fill="#898989" d="M74.448,153.344c-1.862,2.605-4.174,7.141-0.077,8.841c0.505,0.209,2.275-0.557,1.56-0.854
				c-3.648-1.514-1.297-5.801,0.294-8.027C76.683,152.664,74.766,152.9,74.448,153.344L74.448,153.344z"/>
		</g>
	</g>
	<g>
		<g>
			<path fill="#898989" d="M77.722,160.598c1.51-1.585,2.635-3.807,2.142-6.033c-0.115-0.52-2.054-0.036-1.932,0.518
				c0.458,2.07-0.575,4.115-1.979,5.588c-0.315,0.332,0.271,0.423,0.482,0.415C76.872,161.067,77.41,160.924,77.722,160.598
				L77.722,160.598z"/>
		</g>
	</g>
	<g>
		<g>
			<path fill="#898989" d="M109.093,159.582c2.314-1.533,4.732-4.875,3.053-7.623c-0.461-0.753-2.3-0.016-1.768,0.855
				c1.287,2.105-0.854,4.734-2.57,5.871C106.716,159.409,108.301,160.107,109.093,159.582L109.093,159.582z"/>
		</g>
	</g>
	<g>
		<g>
			<path fill="#898989" d="M107.379,150.663c-3.098,2.732-1.607,6.539,1.73,8.238c0.402,0.205,1.106-0.378,0.556-0.658
				c-2.778-1.416-4.32-4.769-1.643-7.131C108.514,150.679,107.747,150.338,107.379,150.663L107.379,150.663z"/>
		</g>
	</g>
	<g>
		<g>
			<path fill="#898989" d="M75.206,154.702c-1.149,1.426-1.151,3.671,0.895,4.169c0.27,0.065,1.132-0.351,0.604-0.479
				c-1.774-0.432-1.514-2.578-0.607-3.702C76.343,154.384,75.381,154.483,75.206,154.702L75.206,154.702z"/>
		</g>
	</g>
	<g>
		<g>
			<path fill="#898989" d="M170.066,229.714c7.752-1.197,15.233,0.091,20.918,5.83c5.459,5.511,6.941,14.215,11.375,20.593
				c9.023,12.981,24.017,21.655,38.836,26.301c2.309,0.724,6.845-2.623,3.4-3.703c-17.151-5.376-34.118-16.47-41.638-33.37
				c-2.986-6.712-5.302-12.364-11.79-16.468c-6.014-3.803-13.677-4.203-20.512-3.147
				C167.59,226.223,166.115,230.325,170.066,229.714L170.066,229.714z"/>
		</g>
	</g>
	<g>
		<g>
			<path fill="#898989" d="M43.946,340.967c10.09-1.378,21.343-5.357,31.233-1.229c3.504,1.464-2.773,3.043-3.76,3.31
				c-3.083,0.835-6.319,1.295-9.511,1.353c-1.176,0.021-6.164,2.425-3.016,2.792c6.293,0.731,14.712-0.893,20.212,2.872
				c1.306,0.894,1.209,2.193,0.664,3.489c-0.911,2.163-6.08-0.422-7.427-0.987c-3.309-1.388-7.426-3.601-9.475-6.695
				c-1.807,0.709-3.614,1.416-5.421,2.125c8.169,5.211,15.843,9.281,21.179,17.706c0.861-0.651,1.722-1.304,2.582-1.955
				c-7.231,1.737-14.281,0.675-20.589-3.257c-1.512,0.815-3.024,1.63-4.536,2.445c4.539,0.594,9.168,0.795,13.561,2.179
				c1.845,0.581,4.118,2.419,3.678,4.614c-0.152,0.76-5.448,0.148-6.118,0.084c-8.771-0.848-17.755-2.425-25.229-7.406
				c-3.465-2.31-5.924-5.587-6.465-9.758c-0.108-0.83,0.226-7.075,2.054-6.979c3.586,0.188,5.645,4.507,6.442,7.38
				c3.534,12.73-4.996,25.833-13.057,34.746c-4.084,4.516-8.618,8.618-12.992,12.847c-1.882,1.819-4.691,5.95-7.594,4.054
				c-1.837-1.2-2.717-3.521-3.392-5.497c-1.463-4.285-1.402-9.154-0.639-13.556c1.289-7.428,3.99-14.808,5.623-22.203
				c1.633-7.395,3.289-14.767,5.542-22.002c2.205-7.081,5.561-13.712,8.566-20.472c5.883-13.231,5.838-27.287,9.555-41.087
				c3.747-13.913,12.422-28.454,22.634-38.625c4.505-4.486,9.491-5.958,15.536-7.122c2.121-0.409,10.716-2.778,12.336-0.839
				c1.094,1.309,6.624-0.684,5.421-2.125c-1.294-1.549-4.765-1.106-6.495-1.035c-4.484,0.183-8.992,0.974-13.369,1.926
				c-9.607,2.091-16.374,6.153-22.803,13.755c-8.021,9.484-14.833,21.52-18.549,33.332c-4.28,13.603-3.793,27.838-9.343,41.122
				c-2.64,6.32-5.778,12.405-8.174,18.83c-2.814,7.542-4.478,15.537-6.209,23.379c-1.632,7.396-3.289,14.768-5.542,22.003
				c-1.312,4.212-1.267,8.958-0.603,13.273c1.091,7.079,5.868,12.504,13.365,9.712c4.322-1.61,7.271-4.86,10.517-7.998
				c4.771-4.612,9.609-9.13,13.984-14.129c5.901-6.744,10.386-14.673,11.774-23.604c1.082-6.962,0.095-15.826-7.442-18.523
				c-5.001-1.79-10.727,1.408-12.482,6.116c-2.248,6.03,1.735,11.818,6.381,15.203c8.856,6.452,23.895,9.515,34.761,8.131
				c3.5-0.445,10.453-2.536,6.892-7.275c-3.781-5.033-12.843-4.479-18.473-5.216c-0.7-0.091-6.139,1.445-4.536,2.445
				c8.245,5.138,17.342,5.723,26.642,3.489c0.407-0.098,3.143-1.068,2.582-1.955c-5.502-8.688-13.11-12.892-21.554-18.278
				c-1.189-0.758-6.643,0.279-5.421,2.125c4.19,6.325,22.478,14.612,27.699,5.362c5.438-9.636-18.151-8.414-22.6-8.932
				c-1.005,0.931-2.01,1.861-3.016,2.792c4.89-0.088,9.792-0.975,14.473-2.367c2.469-0.735,7.332-2.064,8.1-5.007
				c0.917-3.516-8.958-4.423-10.673-4.589c-8.889-0.859-17.819,1.833-26.55,3.025C42.304,338.633,39.896,341.521,43.946,340.967
				L43.946,340.967z"/>
		</g>
	</g>
	<g>
		<g>
			<path fill="#898989" d="M53.491,447.766c6.229-12.854,8.149-26.58,8.341-40.729c0.161-11.899-0.344-25.205-5.527-36.141
				c-0.929-1.959-6.583-0.108-5.796,1.553c4.956,10.457,5.48,22.933,5.537,34.312c0.071,14.429-2.006,28.679-8.344,41.759
				C46.9,450.177,52.613,449.579,53.491,447.766L53.491,447.766z"/>
		</g>
	</g>
	<g>
		<g>
			<path fill="#898989" d="M49.558,333.075c2.928-10.631-1.177-20.872-3.738-31.121c-1.289-5.16-1.876-10.363-0.626-15.586
				c0.748-3.127,8.023-16.043,12.084-12.878c2.737,2.134,3.2,7.044,3.608,10.191c0.59,4.56,0.355,9.143,0.291,13.722
				c-0.069,4.906-0.45,9.812-1.036,14.683c-0.548,4.553-1.118,10.121-3.806,13.984c1.796-0.357,3.593-0.715,5.389-1.073
				c-9.114-10.373-10.628-28.21-7.703-41.16c1.5-6.643,4.112-13.132,7.019-19.269c2.808-5.927,6.453-13.223,12.16-16.859
				c12.939-8.246,14.389,14.273,13.932,21.721c-0.996,16.211-8.8,34.002-21.426,44.418c1.74-0.101,3.48-0.201,5.221-0.302
				c-2.861-17.231,3.118-33.771,7.479-50.212c3.487-13.149,7.42-23.875,19.534-31.369c-1.565-0.027-3.13-0.055-4.695-0.082
				c0.387,16.745-3.034,33.337-0.562,50.042c0.291,1.963,6.116,0.608,5.796-1.553c-2.469-16.682,0.948-33.312,0.562-50.042
				c-0.041-1.75-4.061-0.475-4.695-0.082c-11.715,7.248-17.193,17.021-20.729,30.024c-4.838,17.794-11.583,36.162-8.485,54.826
				c0.33,1.987,4.442,0.341,5.221-0.302c14.228-11.737,22.506-31.765,22.716-50.016c0.13-11.303-3.643-25.3-17.76-21.327
				c-14.94,4.203-21.898,23.832-25.984,37.061c-4.489,14.535-3.425,34.865,7.018,46.75c1.206,1.372,4.526,0.166,5.389-1.073
				c2.928-4.209,3.548-9.89,4.205-14.833c0.811-6.103,0.916-12.229,1.127-18.37c0.214-6.227,1.046-22.785-8.251-23.361
				c-11.439-0.709-19.958,13.647-20.182,23.541c-0.316,13.952,9.027,26.5,5.134,40.636C43.187,335.897,49.017,335.04,49.558,333.075
				L49.558,333.075z"/>
		</g>
	</g>
	<g>
		<g>
			<path fill="#898989" d="M145.489,231.853c-13.002,8.25-24.334,18.884-34.128,30.722c-9.722,11.751-18.147,25.666-20.935,40.841
				c-0.128,0.701,0.507,1.208,1.147,1.3c11.304,1.629,22.905-10.175,30.279-17.144c5.499-5.197,10.616-10.822,15.328-16.74
				c3.086-3.876,6.556-8.237,7.971-13.076c0.653-2.236-4.002-1.047-4.724-0.601c-7.295,4.521-9.84,13.134-14.385,19.95
				c-6.651,9.974-14.267,19.276-20.852,29.312c-5.015,7.641-8.55,15.775-10.178,24.789c-1.245,6.891-2.895,15.036-2.205,22.015
				c0.564,5.706,7.194,3.692,10.152,1.357c5.359-4.229,8.392-12.073,11.648-17.901c5.873-10.509,11.85-20.879,15.926-32.252
				c4.118-11.492,11.457-21.508,15.182-33.174c-1.936,0.226-3.873,0.452-5.809,0.678c-2.456,10.34-7.329,19.818-11.367,29.59
				c-4.412,10.678-5.839,21.601-7.217,32.993c-0.786,6.494-7.483,39.144,8.994,31.327c13.506-6.407,15.971-26.559,18.898-39.087
				c2.551-10.921,2.879-21.288,2.568-32.433c-0.177-6.342,0.181-12.15,2.232-18.174c1.776-5.218,4.044-10.156,5.194-15.577
				c-1.937,0.226-3.872,0.452-5.809,0.678c-2.475,14.42-2.942,29.103-5.875,43.452c-1.471,7.201-3.481,14.215-4.666,21.49
				c-1.095,6.726-1.29,13.619-2.453,20.313c-0.975,5.612-1.229,11.45-1.17,17.135c0.044,4.261-0.228,11.703,4.104,14.207
				c4.771,2.757,10.589-3.157,12.848-6.62c5.142-7.882,5.983-18.969,6.885-28.064c1.078-10.89,1.223-21.668,0.665-32.594
				c-0.714-13.986-1.59-28.187,3.344-41.563c-1.935,0.372-3.868,0.743-5.802,1.115c1.41,29.68-10.112,58.61-6.104,88.316
				c1.479,10.965,5.861,36.154,22.541,29.141c15.848-6.665,14.172-30.727,14.105-44.771c-0.069-14.713-2.604-28.993-5.592-43.354
				c-3.045-14.637-0.184-29.948-4.485-44.31c-0.204-0.586-0.408-1.171-0.613-1.757c-0.748-2.146-6.506-0.481-5.795,1.553
				c4.378,12.543,2.204,25.701,3.673,38.656c0.764,6.737,2.714,13.45,3.963,20.118c1.24,6.617,2.164,13.28,2.696,19.993
				c0.698,8.803,0.611,17.932-0.045,26.742c-0.574,7.7-1.729,17.321-7.588,22.959c-11.865,11.417-17.442-28.418-17.812-34.275
				c-1.704-27.067,8.141-53.434,6.851-80.564c-0.108-2.292-5.275-0.311-5.802,1.115c-3.807,10.322-4.15,21.162-3.82,32.044
				c0.363,11.929,1.094,23.612,0.336,35.546c-0.525,8.258-1.438,16.538-3.46,24.575c-0.958,3.809-2.267,7.941-4.863,10.976
				c-0.414,0.453-0.848,0.887-1.302,1.301c-1.188,1.131-1.453,0.363-0.236,0.825c-0.896-0.34-1.318-1.642-1.615-2.439
				c-1.901-5.095-1.385-11.345-1.104-16.656c0.341-6.465,1.267-12.941,1.983-19.368c1.376-12.349,4.596-24.087,6.886-36.24
				c2.471-13.113,2.875-26.523,5.133-39.674c0.412-2.4-5.377-1.353-5.809,0.678c-1.794,8.458-6.446,16.072-7.31,24.74
				c-0.969,9.734,0.833,19.521-0.394,29.266c-1.18,9.374-3.824,18.552-6.215,27.669c-1.723,6.57-3.83,12.501-8.441,17.647
				c-0.951,1.062-3.131,3.259-3.77,2.775c-1.964-1.489-1.892-5.48-1.92-7.583c-0.14-10.439,1.607-21.125,3.002-31.443
				c1.271-9.409,3.602-17.86,7.303-26.608c3.687-8.713,7.86-17.205,10.058-26.458c0.561-2.36-5.195-1.244-5.809,0.678
				c-3.145,9.85-8.847,18.562-13.085,27.939c-4.177,9.242-7.571,18.543-12.498,27.469c-3.553,6.437-7.064,12.937-10.838,19.247
				c-1.479,2.473-3.088,4.94-5.208,6.912c1.095-1.018,0.38-6.676,0.63-8.749c0.802-6.656,1.504-13.52,3.172-20.011
				c2.06-8.015,6.423-15.076,11.035-21.845c5.557-8.156,11.538-15.989,17.265-24.021c4.451-6.243,6.934-15.651,13.687-19.836
				c-1.575-0.2-3.149-0.4-4.724-0.601c-1.145,3.916-3.969,7.434-6.385,10.639c-3.798,5.038-8.078,9.713-12.504,14.202
				c-4.469,4.531-9.22,8.851-14.344,12.633c-2.598,1.918-7.476,6.042-11.022,5.531c0.382,0.433,0.765,0.866,1.147,1.3
				c2.659-14.476,10.541-27.32,19.552-38.718c9.292-11.753,20.684-22.259,33.341-30.288
				C152.447,231.625,147.433,230.621,145.489,231.853L145.489,231.853z"/>
		</g>
	</g>
	<g>
		<g>
			<path fill="#898989" d="M188.205,278.835c5.164,1.131,8.922,5.733,12.162,9.571c3.634,4.305,7.294,8.594,10.876,12.941
				c4.002,4.856,8.188,9.488,13.168,13.367c5.077,3.954,10.592,6.3,13.899,12.191c0.74,1.318,6.172-0.882,5.795-1.553
				c-2.752-4.902-7.189-7.978-11.816-10.983c-6.492-4.216-11.459-9.975-16.347-15.907c-3.801-4.612-7.659-9.198-11.579-13.711
				c-3.103-3.57-6.611-7-11.363-8.04C191.714,276.431,186.739,278.514,188.205,278.835L188.205,278.835z"/>
		</g>
	</g>
	<g>
		<g>
			<path fill="#898989" d="M92.118,304.978c0.821,4.656,1.385,9.349,2.759,13.887c0.432,1.426,6.203-0.208,5.796-1.553
				c-1.374-4.538-1.938-9.23-2.759-13.887C97.684,302.119,91.848,303.444,92.118,304.978L92.118,304.978z"/>
		</g>
	</g>
	<g>
		<g>
			<path fill="#898989" d="M104.695,356.14c7.379,14.379,15.815,27.791,27.019,39.506c10.703,11.192,22.78,20.96,33.194,32.444
				c1.881,2.074,7.353-0.347,5.285-2.627c-10.412-11.483-22.388-21.354-33.193-32.444c-11.282-11.579-19.668-25.185-27.018-39.506
				C108.714,351.044,103.238,353.3,104.695,356.14L104.695,356.14z"/>
		</g>
	</g>
	<g>
		<g>
			<path fill="#898989" d="M260.411,211.774c-2.801-16.709-25.405-22.671-39.08-15.628c-4.931,2.54-8.091,7.366-1.41,10.012
				c8.082,3.201,21.131-3.119,25.699,6.606c1.125-0.693,2.249-1.386,3.374-2.079c-8.083,1.681-33.454-5.212-31.488,10.514
				c0.051,0.407,0.772,0.564,1.063,0.576c8.212,0.328,16.083-2.018,24.25-2.229c0.799-0.916,1.6-1.831,2.398-2.746
				c-12.622,1.211-29.189-0.93-30.149,16.145c-0.308,5.468,4.569,5.518,8.609,4.37c5.841-1.659,12.267-7.59,18.507-6.545
				c0.771-0.885,1.541-1.77,2.311-2.654c-8.451,1.751-23.289,3.028-25.695,13.392c-1.085,4.676,1.037,11.303,6.664,9.795
				c7.767-2.081,10.157-13.29,19.043-13.764c-0.566-0.199-1.133-0.397-1.698-0.597c1.123,6.987,0.774,17.794,7.265,22.349
				c5.84,4.099,15.379,0.107,20.586-3.233c8.545-5.481,29.079-26.064,8.368-29.679c-30.568-5.334-2.929,52.171,1.812,62.28
				c5.802,12.372,13.948,23.699,17.294,37.085c3.225,12.902-1.267,24.139-6.717,35.668c-1.859,3.936-3.854,7.792-5.894,11.635
				c-0.792,1.489-1.59,2.976-2.41,4.449c-0.543,0.978-1.114,1.938-1.72,2.878c-2.292,3.563,1.967-3.375,3.196,0.644
				c-0.504-1.648-6.275-0.018-5.795,1.553c0.653,2.136,4.122,0.906,5.427,0.195c2.69-1.467,4.257-5.44,5.643-7.977
				c5.943-10.881,12.893-22.726,14.917-35.066c3.148-19.185-10.009-35.504-17.794-51.872c-6.595-13.864-12.935-28.542-15.766-43.703
				c-0.836-4.477-2.047-11.347,1.435-15.058c1.169-1.246,6.085,0.918,7.556,1.882c3.393,2.224,2.324,6.332,0.85,9.349
				c-3.563,7.291-12.229,15.265-20.104,17.448c-11.126,3.086-11.307-15.868-12.354-22.379c-0.099-0.616-1.293-0.618-1.698-0.597
				c-5.233,0.279-9.594,2.089-13.668,5.367c-2.045,1.646-3.816,3.617-5.736,5.4c-0.86,0.799-1.634,1.706-2.427,2.569
				c-1.182,1.065-0.887,1.056,0.885-0.028c-0.411-0.831-0.734-1.694-0.971-2.592c-3.756-11.56,10.809-13.185,18.554-14.79
				c0.91-0.188,5.339-2.147,2.311-2.654c-3.938-0.659-7.872,0.499-11.524,1.896c-2.102,0.804-4.134,1.815-6.158,2.791
				c-1.338,0.645-4.476,2.844-5.997,2.46c-1.874-0.473-1.269-4.566-1.143-5.677c0.387-3.413,1.761-7.076,5.106-8.57
				c4.854-2.167,11.486-0.92,16.683-1.418c1.639-0.157,6.377-2.849,2.398-2.746c-6.736,0.175-13.272,1.862-19.981,2.292
				c-3.021,0.193-2.247-2.012-1.417-3.831c0.791-1.733,3.048-1.901,4.669-2.041c6.454-0.556,13.172,1.395,19.553,0.069
				c0.538-0.112,3.921-0.915,3.374-2.079c-2.419-5.15-6.975-6.542-12.358-6.77c-3.407-0.145-18.126,1.813-17.41-4.098
				c0.412-3.402,6.443-4.088,8.951-4.254c3.738-0.248,7.467,0.675,10.934,1.983c6.735,2.542,11.887,8.108,13.085,15.254
				C254.875,214.871,260.707,213.536,260.411,211.774L260.411,211.774z"/>
		</g>
	</g>
	<g>
		<g>
			<path fill="#898989" d="M254.843,407.261c2.176-2.339,1.949-5.85,1.815-8.821c-0.223-4.927-1.092-9.813-1.841-14.68
				c-2.164-14.055-2.15-28.52-3.966-42.663c-2.038-15.886-3.057-31.922-4.215-47.89c-0.56-7.72-1.118-15.44-1.732-23.156
				c-0.681-8.54-2.265-17.176-2.461-25.721c-0.065-2.856-5.899-1.809-5.846,0.539c0.161,6.989,1.428,13.948,2.029,20.917
				c0.667,7.728,1.233,15.464,1.796,23.2c1.118,15.351,2.203,30.704,3.784,46.016c0.798,7.719,1.844,15.407,2.604,23.13
				c0.745,7.563,0.839,15.204,1.62,22.752c0.438,4.232,1.24,8.425,1.81,12.641c0.386,2.853,2.087,9.848-0.179,12.283
				C247.616,408.438,253.231,408.995,254.843,407.261L254.843,407.261z"/>
		</g>
	</g>
	<g>
		<g>
			<path fill="#898989" d="M270.531,399.986c3.407-8.604,2.019-18.559,1.405-27.549c-0.85-12.457-1.229-24.827-2.551-37.27
				c-2.639-24.839-6.049-50.036-6.163-75.037c-0.008-1.808-5.806-0.699-5.795,1.553c0.11,24.384,3.475,48.888,5.962,73.12
				c1.249,12.169,2.03,24.202,2.585,36.412c0.439,9.703,2.448,20.188-1.238,29.497C263.99,402.598,269.774,401.896,270.531,399.986
				L270.531,399.986z"/>
		</g>
	</g>
	<g>
		<g>
			<path fill="#898989" d="M263.784,205.026c-0.456-5.242-0.104-10.502-0.562-15.744c-0.228-2.618-0.294-5.531-1.873-7.742
				c-2.114-2.961-8.443,0.919-10.624,1.87c-6.934,3.022-14.06-5.303-15.742-11.363c-0.379-1.365-0.219-2.721,0.25-4.034
				c0.624-0.546,0.891-1.211,0.798-1.994c1.025,0.184,1.96,1.546,2.453,2.295c1.665,2.529,2.269,6.055,2.075,9.026
				c1.372-0.691,2.744-1.383,4.117-2.075c-4.965,0.021-1.764-5.954-0.128-7.87c0.544-0.638,1.172-1.177,1.849-1.667
				c0.681-0.356,0.539-0.362-0.424-0.02c0.533,0.134,1.013,0.768,1.285,1.18c0.981,1.485,2.354,8.946,0.637,9.743
				c1.185-0.259,2.37-0.518,3.556-0.777c-2.71-0.071-1.617-6.001-1.189-7.071c-0.677-1.259-0.524-1.394,0.457-0.403
				c0.604,0.551,1.17,1.141,1.694,1.77c1.196,1.335,2.279,2.757,3.506,4.067c0.927,0.99,5.304-0.155,5.589-1.498
				c2.045-9.641-2.416-17.082-6.181-25.614c-4.998-11.328-7.172-24.523-5.628-36.798c-1.913,0.313-3.825,0.626-5.738,0.939
				c-1.98,16.275-8.177,31.73-9.587,48.1c-0.091,1.046,5.633,0.335,5.795-1.553c1.393-16.154,7.575-31.419,9.53-47.486
				c0.208-1.711-5.548-0.578-5.738,0.939c-1.418,11.277,0.372,22.086,3.863,32.83c3.267,10.053,10.306,18.454,7.945,29.583
				c1.863-0.5,3.726-0.999,5.589-1.498c-3.186-3.402-5.522-8.144-10.817-7.073c-4.692,0.948-7.514,5.386-6.492,10.044
				c0.876,3.99,4.806,3.666,7.738,2.305c3.713-1.723,2.711-8.537,1.55-11.545c-4.581-11.867-28.014,12.04-11.1,11.969
				c1.128-0.005,4.021-0.606,4.117-2.075c0.434-6.665-3.045-14.043-10.585-11.87c-8.651,2.493-7.513,10.582-2.976,16.357
				c5.097,6.487,11.759,7.648,19.215,5.064c1.458-0.505,2.856-1.229,4.24-1.906c1.572-0.769-1.183-0.611-0.338,0.163
				c0.511,0.468,0.69,1.602,0.855,2.225c1.767,6.662,0.63,13.958,1.223,20.757C258.104,207.9,263.937,206.777,263.784,205.026
				L263.784,205.026z"/>
		</g>
	</g>
</g>
</svg>
