<?xml version="1.0" encoding="utf-8"?>
<!-- Generator: Adobe Illustrator 15.1.0, SVG Export Plug-In . SVG Version: 6.00 Build 0)  -->
<!DOCTYPE svg PUBLIC "-//W3C//DTD SVG 1.1//EN" "http://www.w3.org/Graphics/SVG/1.1/DTD/svg11.dtd">
<svg version="1.1" id="Layer_1" xmlns="http://www.w3.org/2000/svg" xmlns:xlink="http://www.w3.org/1999/xlink" x="0px" y="0px"
	 width="222.025px" height="52.015px" viewBox="0 0 222.025 52.015" enable-background="new 0 0 222.025 52.015"
	 xml:space="preserve">
<g>
	<g>
		<g>
			<g>
				<path fill="#5EC094" d="M114.162,44.216C87.976,21.868,50.375,8.018,16.983,21.938c-3.704,1.544-0.369,4.071,2.43,2.904
					c30.517-12.722,65.692,1.547,89.405,21.786C110.584,48.135,116.029,45.81,114.162,44.216L114.162,44.216z"/>
			</g>
		</g>
		<g>
			<g>
				<path fill="#5EC094" d="M15.064,23.646c-0.244,3.154-5.512,8.229-8.751,6.04c-1.579-1.068,0.676-3.557,1.511-4.202
					c2.479-1.914,5.973-1.04,8.879-1.019c3.366,0.025,4.399-4.354,0.477-4.383c-5.265-0.039-9.855-0.416-14.095,3.342
					c-2.546,2.256-4.613,6.625-1.567,9.367c6.269,5.642,18.849-2.073,19.428-9.55C21.185,20.157,15.274,20.928,15.064,23.646
					L15.064,23.646z"/>
			</g>
		</g>
		<g>
			<g>
				<path fill="#5EC094" d="M34.652,19.049c-3.258-1.914-7.141-2.017-10.494-3.67c-1.822-0.899-3.379-2.201-4.741-3.688
					c-2.89-3.154-0.206-8.027,3.943-5.673c3.833,2.175,7.013,6.944,8.169,11.091c1.378,4.941-3.024,10.891-3.728,15.754
					c-0.953,6.589,4.854,10.583,10.533,7.688c3.424-1.744,4.26-5.88,4.506-9.382c0.172-2.456,0.144-4.647-0.646-6.994
					c-0.789-2.344-3.283-4.194-4.616-6.199c-1.042-1.567-6.4,0.644-5.796,1.553c1.023,1.54,2.213,2.894,3.408,4.303
					c2.409,2.84,2.116,6.676,1.693,10.117c-0.133,0.917-0.31,1.826-0.531,2.726c-0.189,0.471-0.378,0.94-0.567,1.41
					c0.868,0.864,0.858,0.914-0.028,0.147c-2.06-1.659-2.391-5.112-2.048-7.483c0.697-4.82,3.656-8.851,3.779-13.815
					c0.105-4.192-3.871-8.64-6.66-11.384c-5.266-5.183-14.744-3.814-18.205,2.801c-1.792,3.426,2.733,6.965,5.051,8.489
					c3.536,2.323,7.95,2.159,11.537,4.265C30.736,22,35.655,19.638,34.652,19.049L34.652,19.049z"/>
			</g>
		</g>
		<g>
			<g>
				<path fill="#5EC094" d="M54.975,19.042c-4.836,4.426-11.046,12.056-7.291,19.154c1.353,2.557,5.298,1.839,7.395,1.001
					c3.88-1.552,5.84-5.859,6.945-9.584c2.851-9.608-4.014-14.538-9.183-21.12c-0.208-0.265-2.691-5.859-1.324-5.775
					c2.367,0.146,4.547,2.761,5.498,4.703c1.75,3.578,0.69,9.906-0.893,13.354c-0.688,1.499,4.977,0.892,5.768-0.83
					c2.604-5.669,2.917-15.191-3.189-18.716c-3.829-2.21-13.529-1.865-13.219,4.601c0.162,3.37,2.727,5.937,4.968,8.213
					c3.247,3.298,5.638,6.288,6.285,11.06c0.376,2.776-0.448,5.574-1.421,8.129c-1.146,3.011-2.146,4.156-2.597,0.744
					c-0.792-6.004,2.666-10.443,6.833-14.255C61.947,17.525,56.198,17.923,54.975,19.042L54.975,19.042z"/>
			</g>
		</g>
		<g>
			<g>
				<path fill="#5EC094" d="M74.784,23.863c-3.146,2.826-6.659,5.56-8.887,9.22c-1.529,2.511-4.327,7.401-2.431,10.446
					c3.109,4.992,10.63,0.465,13.553-2.304c2.872-2.72,4.774-7.035,5.66-10.812c1.118-4.762-2.589-8.15-5.657-11.081
					c-1.681-1.605-3.277-3.294-4.249-5.437C71.577,11.255,73.485,4.831,77,8.197c4.229,4.05,2.105,13.315-0.647,17.417
					c-1.743,2.598,4.175,2.591,5.521,0.586c4.013-5.979,5.228-17.433-1.443-22.104c-4.983-3.49-12.241,0.531-13.554,5.939
					c-2.499,10.29,12.81,13.213,9.294,23.099c-0.401,1.127-6.456,10.619-7.348,7.714c-1.6-5.213,6.59-11.615,9.77-14.471
					C81.515,23.751,76.885,21.975,74.784,23.863L74.784,23.863z"/>
			</g>
		</g>
		<g>
			<g>
				<path fill="#5EC094" d="M94.153,34.277C89,38.312,78.096,39.355,80.69,48.756c1.969,7.136,11.936,0.762,14.382-2.213
					c2.74-3.332,4.845-7.05,5.654-11.316c0.754-3.978-1.673-7.234-3.848-10.275c-1.177-1.646-2.27-3.257-2.784-5.235
					c-0.271-2.492,1.36-3.777,4.892-3.855c1.643,0.203,2.842,1.447,3.831,2.633c5.196,6.239-2.993,13.54-8.292,15.462
					c-3.807,1.381-0.336,3.453,2.318,2.49c6.946-2.521,17.126-10.821,11.961-19.25c-4.365-7.123-15.397-5.678-19.917,0.621
					c-1.948,2.714,0.429,6.226,1.94,8.472c3.374,5.016,5.333,8.313,2.628,14.339c-1.024,2.281-2.58,4.391-4.259,6.225
					c-2.656,2.9-3.241-0.624-2.784-2.95c0.977-4.97,8.86-5.815,12.41-8.595C101.456,33.246,95.657,33.1,94.153,34.277L94.153,34.277
					z"/>
			</g>
		</g>
	</g>
	<g>
		<g>
			<g>
				<path fill="#5EC094" d="M113.039,46.047c23.666-20.197,58.284-33.807,88.65-21.149c1.94,0.81,7.172-1.926,4.555-3.017
					c-33.557-13.988-71.693,0.522-97.932,22.916C105.684,47.04,111.426,47.425,113.039,46.047L113.039,46.047z"/>
			</g>
		</g>
		<g>
			<g>
				<path fill="#5EC094" d="M201.264,24.22c0.28,3.627,3.771,6.519,6.756,8.094c3.503,1.848,8.533,1.649,11.852-0.595
					c3.016-2.038,2.598-4.924,0.391-7.491c-3.397-3.952-8.551-3.132-13.147-3.099c-1.389,0.01-2.903,0.375-4.098,1.098
					c-0.915,0.553-0.798,1.198,0.318,1.19c3.346-0.024,6.523-0.66,9.538,1.163c1.905,1.152,3.96,3.528,3.359,5.928
					c-0.152,0.607-0.811,0.766,0.174,0.766c-0.544,0-1.119-0.206-1.634-0.356c-1.41-0.41-2.717-1.327-3.869-2.207
					c-1.903-1.452-3.653-3.578-3.845-6.043C206.982,21.683,201.146,22.709,201.264,24.22L201.264,24.22z"/>
			</g>
		</g>
		<g>
			<g>
				<path fill="#5EC094" d="M192.442,20.127c3.484-2.046,7.915-2.2,11.537-4.266c2.907-1.659,5.692-4.239,5.82-7.746
					c0.129-3.536-5.099-5.817-7.984-5.649c-3.973,0.23-7.368,1.791-10.377,4.357c-2.753,2.348-6.159,6.618-6.599,10.287
					c-0.635,5.31,2.51,9.831,3.587,14.885c0.469,2.202-0.003,4.299-0.991,6.277c-0.309,0.411-0.617,0.822-0.927,1.233
					c1.949-0.01,2.298-0.332,1.046-0.968c-1.235-0.906-1.691-3.001-1.999-4.393c-0.701-3.172-0.875-6.618,0.168-9.716
					c0.784-2.334,3.256-4.154,4.615-6.199c0.366-0.55-4.781-0.347-5.709,1.048c-2.42,3.639-5.07,5.75-5.425,10.354
					c-0.279,3.643,0.273,10.153,4.334,11.648c5.565,2.049,10.326-3.696,10.866-8.494c0.501-4.442-2.642-9.01-3.702-13.192
					c-1.386-5.461,3.428-11.58,7.592-14.556c2.263-1.617,5.351,3.061,5.709,4.628c0.711,3.105-3.81,5.845-5.962,6.907
					c-3.171,1.563-6.873,1.607-10.018,3.454C185.596,21.455,191.433,20.72,192.442,20.127L192.442,20.127z"/>
			</g>
		</g>
		<g>
			<g>
				<path fill="#5EC094" d="M162.169,20.352c2.693,2.464,5.414,5.018,6.606,8.568c0.932,2.771,1.606,7.668-0.954,9.628
					c1.057-0.421,2.113-0.841,3.17-1.261c-1.594,0.299-3.562-4.04-4.125-5.247c-0.829-1.775-1.183-3.713-1.433-5.638
					c-0.605-4.662,1.479-8.981,4.679-12.199c2.437-2.449,9.927-8.962,5.227-12.726c-3.854-3.085-9.622-0.577-13.082,1.992
					c-4.984,3.7-4.279,12.693-1.994,17.667c0.621,1.352,6.214-0.642,5.795-1.553c-1.669-3.634-1.723-8.003-1.323-11.919
					c0.157-1.546,2.044-5.896,4.297-4.917c2.265,0.984,1.988,3.792,1.262,5.552c-1.344,3.255-4.709,5.357-6.908,7.98
					c-3.2,3.817-4.193,8.238-3.561,13.104c0.818,6.298,6.6,13.738,13.228,8.665c6.922-5.298-1.099-15.691-5.414-19.638
					C166.537,17.404,161.367,19.619,162.169,20.352L162.169,20.352z"/>
			</g>
		</g>
		<g>
			<g>
				<path fill="#5EC094" d="M142.781,26.234c4.036,3.625,7.806,6.9,9.903,12.052c0.296,0.77,0.512,1.561,0.647,2.373
					c0.006,0.449,0.011,0.898,0.017,1.348c1.592,0.082,1.683-0.037,0.274-0.358c-1.906-0.693-3.388-2.22-4.566-3.806
					c-1.779-2.394-3.063-5.073-3.742-7.964c-0.802-3.416,1.643-5.849,3.871-7.981c2.947-2.821,5.969-5.681,6.462-9.928
					c0.866-7.453-7.298-10.041-12.794-7.36c-7.958,3.882-6.597,16.305-2.497,22.412c1.033,1.54,6.661-0.339,5.393-2.229
					c-3.122-4.651-4.017-11.983-1.176-17.023c2.178-3.864,4.889,2.8,5.207,4.113c0.683,2.812-1.614,5.531-3.369,7.378
					c-2.746,2.89-5.849,5.031-6.915,9.062c-1.127,4.262,2.348,9.299,4.731,12.508c3.03,4.077,9.745,6.007,13.806,2.377
					c5.976-5.343-6.562-16.241-9.859-19.202C146.703,22.685,141.289,24.894,142.781,26.234L142.781,26.234z"/>
			</g>
		</g>
		<g>
			<g>
				<path fill="#5EC094" d="M123.41,36.334c3.785,2.965,9.602,3.007,11.994,7.677c1.205,2.353,0.739,4.903-2.097,2.15
					c-2.152-2.09-3.764-4.791-4.979-7.501c-2.424-5.4,0.009-9.002,3.06-13.319c1.584-2.242,3.801-5.934,1.857-8.642
					c-4.311-6.007-15.33-6.063-19.318,0.446c-5.401,8.814,2.869,16.936,10.834,19.827c2.149,0.779,6.805-2.319,3.443-3.539
					c-5.596-2.03-10.822-6.644-10.028-13.099c0.614-5,6.117-4.82,9.143-2.033c2.062,1.899-0.273,4.963-1.401,6.64
					c-2.084,3.099-4.415,5.796-4.594,9.679c-0.2,4.344,2.493,8.684,4.974,12.031c3.454,4.662,11.602,8.479,15.016,1.529
					c4.34-8.831-8.948-11.469-13.365-14.928C126.193,31.878,120.953,34.411,123.41,36.334L123.41,36.334z"/>
			</g>
		</g>
	</g>
</g>
</svg>
