<?xml version="1.0" encoding="utf-8"?>
<!-- Generator: Adobe Illustrator 15.1.0, SVG Export Plug-In . SVG Version: 6.00 Build 0)  -->
<!DOCTYPE svg PUBLIC "-//W3C//DTD SVG 1.1//EN" "http://www.w3.org/Graphics/SVG/1.1/DTD/svg11.dtd">
<svg version="1.1" id="Layer_1" xmlns="http://www.w3.org/2000/svg" xmlns:xlink="http://www.w3.org/1999/xlink" x="0px" y="0px"
	 width="154.555px" height="204.382px" viewBox="0 0 154.555 204.382" enable-background="new 0 0 154.555 204.382"
	 xml:space="preserve">
<g>
	<g>
		<g>
			<path fill="#898989" d="M18.538,5.277c32.588-0.054,65.168-0.658,97.754-0.858c8.008-0.049,16.072-0.295,24.076,0.006
				c5.826,0.22,7.53,5.593,7.896,10.496c0.991,13.354,0.042,27.098,0.042,40.484c0,32.253-2.99,64.609-1.156,96.838
				c0.756,13.272,0.711,26.654-0.793,39.896c-0.605,5.342-4.39,6.383-9.252,6.979c-8.197,1.006-17.164-0.017-25.438,0.034
				c-28.674,0.175-57.346,0.706-86.022,0.821c-4.854,0.02-11.956,1.392-16.144-1.706c-3.035-2.245-3.217-7.434-3.305-10.794
				c-0.324-12.163,0.031-24.386,0.031-36.555c0-28.463,2.049-56.905,1.657-85.361C7.694,51.659,6.565,38.063,7.379,24.15
				c0.247-4.229,0.298-8.552,0.927-12.747c0.723-4.818,4.887-5.605,9.124-6.126c3.263-0.4,4.413-4.868,0.478-4.385
				C9.674,1.902,3.206,4.647,2.196,13.549c-1.545,13.596-1.357,27.29-0.584,40.908c1.832,32.203-1.266,64.629-1.266,96.863
				c0,13.098-0.854,26.488,0.117,39.554c0.645,8.675,5.609,13.508,14.375,13.508c32.121,0,64.234-0.619,96.354-0.847
				c7.826-0.056,15.651-0.055,23.477-0.039c4.74,0.01,9.884-0.944,13.716-3.906c2.463-1.903,3.414-4.905,3.854-7.854
				c0.854-5.697,0.795-11.667,1.117-17.408c0.889-15.814-0.986-31.646-0.848-47.488c0.143-16.22,1.079-32.422,1.499-48.634
				c0.417-16.079,0.182-32.184,0.182-48.267c0-7.896,2.062-19.654-3.614-26.195c-2.537-2.924-6.645-3.723-10.322-3.73
				c-8.479-0.021-16.959-0.019-25.438,0.033c-16.291,0.101-32.582,0.38-48.873,0.548C50.3,0.755,34.657,0.867,19.016,0.894
				C15.651,0.898,14.61,5.283,18.538,5.277L18.538,5.277z"/>
		</g>
	</g>
	<g>
		<g>
			<path fill="#898989" d="M25.101,22.153c32.7-0.052,65.395-0.734,98.094-0.736c5.941,0,12.838-1.24,15.041,5.615
				c1.394,4.335,0.65,9.679,0.65,14.146c0,16.634,0.188,33.271-0.407,49.897c-0.554,15.529-1.403,31.05-0.914,46.594
				c0.417,13.186,2.163,27.209-0.647,40.272c-1.348,6.263-11.438,4.283-16.062,4.283c-8.281,0-16.562,0.062-24.844,0.157
				c-16.516,0.192-33.029,0.379-49.543,0.49c-8.066,0.054-16.715,0.996-24.719-0.085c-6.045-0.816-6.164-8.419-6.133-13.016
				c0.117-18.178-0.242-36.363,0.369-54.533c0.606-18.069,1.73-36.132,0.711-54.209c-0.541-9.574-0.375-18.88,0.28-28.449
				c0.431-6.295,0.716-9.636,7.888-10.481c2.713-0.319,4.887-3.449,0.854-2.975c-8.186,0.966-13.807,3.578-14.4,12.289
				c-0.404,5.896-0.898,11.815-0.988,17.726c-0.125,8.288,0.84,16.562,0.981,24.854c0.285,16.583-0.917,33.16-1.332,49.73
				c-0.383,15.262-0.034,30.537-0.134,45.802c-0.05,7.569,0.686,16.06,10.184,16.457c15.25,0.638,30.668-0.064,45.928-0.215
				c16.259-0.159,32.517-0.423,48.775-0.46c7.324-0.018,22.856,2.369,27.18-6.145c1.278-2.519,1.258-5.387,1.427-8.148
				c0.317-5.25,0.788-10.505,0.866-15.768c0.201-13.279-1.185-26.525-0.863-39.846c0.622-25.938,1.343-51.777,1.343-77.731
				c0-5.899,1.153-13.722-4.424-17.575c-3.111-2.147-7.379-1.747-10.935-1.754c-6.99-0.012-13.981,0.005-20.973,0.057
				c-26.98,0.194-53.958,0.635-80.939,0.677C25.386,19.078,21.192,22.158,25.101,22.153L25.101,22.153z"/>
		</g>
	</g>
	<g>
		<g>
			<g>
				<path fill="#5FC195" d="M55.704,107.556c5.188,6.981,13.756,9.705,22.18,9.769c9.117,0.067,16.165-3.994,22.458-10.259
					c1.077-1.072-4.288-0.339-5.209,0.578c-2.729,2.717-5.601,5.881-9.399,7.018c-3.184,0.951-6.785,0.498-9.984-0.086
					c-5.564-1.016-10.866-4.02-14.25-8.572C60.528,104.695,55.399,107.146,55.704,107.556L55.704,107.556z"/>
			</g>
		</g>
		<g>
			<path fill="#5FC195" d="M57.985,105.614c-17.104-0.829-12.012-36.366-9.166-46.604c7.481-27.049,48.918-27.049,58.701-1.15
				c3.453,9.208,6.906,50.646-9.783,48.344c-1.149-5.756,4.604-10.359,4.604-16.689c0-5.181-2.877-12.086-5.754-16.689
				c-12.662-18.416-18.993,1.151-31.654,7.48c-6.331,2.879-10.935,0.575-11.511,9.209c-0.575,3.452,3.453,14.388,5.18,17.266
				L57.985,105.614z"/>
			<g>
				<path fill="#5FC195" d="M59.876,104.475C51.553,103.777,49.59,93.81,48.956,87.1c-0.777-8.23,0.184-16.772,1.82-24.846
					c1.676-8.263,5.648-15.245,13.081-19.586c8.056-4.705,18.646-3.394,26.707,0.524c15.421,7.496,17.125,24.711,16.9,39.927
					c-0.103,6.826-0.533,16.2-5.738,21.338c-0.34,0.335-1.803,0.851-0.626,0.688c-1.333,0.182-0.165-3.933,0.021-4.539
					c0.795-2.584,2.332-4.954,3.31-7.479c2.196-5.665-0.421-12.122-2.833-17.259c-3.139-6.683-8.576-13.271-16.594-11.482
					c-7.008,1.564-11.533,7.475-16.67,12.004c-3.461,3.052-6.963,3.964-11.168,5.36c-2.619,0.87-4.772,2.045-5.928,4.651
					c-2.754,6.21,1.452,15.754,4.467,21.152c0.754,1.354,6.223-0.745,5.795-1.554c-0.205-0.389-0.41-0.775-0.615-1.165
					c-0.727-1.374-6.221,0.748-5.796,1.554c0.206,0.389,0.411,0.775,0.616,1.165c1.932-0.519,3.863-1.035,5.795-1.554
					c-3.235-5.797-7.067-14.986-4.178-21.503c1.027-2.316,6.996-2.919,9.268-3.865c3.669-1.526,6.842-4.535,9.686-7.216
					c1.945-1.832,6.219-7.507,9.196-7.046c5.405,0.838,8.946,8.102,10.989,12.45c2.229,4.75,3.818,10.194,2.264,15.359
					c-1.346,4.47-4.441,7.886-3.884,12.798c0.106,0.194,0.276,0.3,0.508,0.314c15.901,1.614,17.886-15.834,17.931-27.748
					c0.057-15.248-2.511-30.555-17.244-38.296c-13.451-7.065-32.422-4.281-43.221,6.375c-5.26,5.191-7.15,12.067-8.389,19.11
					c-1.434,8.154-2.044,16.652-0.924,24.881c1.016,7.46,4.404,14.449,12.595,15.136C57.273,106.853,62.727,104.713,59.876,104.475z
					"/>
			</g>
		</g>
		<g>
			<g>
				<path fill="#5FC195" d="M73.612,107.545c6.193,1.937,13.287,1.757,17.695-3.609c1.57-1.911-2.094-2.633-3.254-1.22
					c-3.094,3.767-7.969,3.479-12.232,2.146C74.096,104.323,71.265,106.812,73.612,107.545L73.612,107.545z"/>
			</g>
		</g>
		<g>
			<g>
				<path fill="#5FC195" d="M73.799,87.648c0-1.343,0-2.687,0-4.028c0-0.963-0.929-1.386-1.796-1.307
					c-4.9,0.451-19.406,1.292-13.76,10.483c3.485,5.675,14.426,4.673,14.404-2.847c-0.708,0.527-1.415,1.056-2.123,1.583
					c3.856-0.003,7.686-0.036,11.51-0.576c1.033-0.146,2.248-0.739,2.096-1.962c-0.221-1.758,0.221-3.417,0-5.18
					c-0.698,0.654-1.396,1.309-2.096,1.962c2.404-0.007,4.918-0.201,7.263,0.449c2.925,0.812,2.221,4.671,1.878,6.878
					c0.707-0.527,1.415-1.057,2.122-1.583c-3.48,0.005-6.908,0.091-10.359,0.575c0.599,0.436,1.197,0.87,1.796,1.307
					c0-1.343,0-2.688,0-4.029c0-2.062-3.918-1.503-3.918,0.277c0,1.343,0,2.687,0,4.029c0,0.933,0.93,1.428,1.797,1.306
					c3.45-0.484,6.877-0.57,10.358-0.576c0.89-0.001,1.978-0.653,2.122-1.583c1.471-9.468-4.987-9.962-12.73-9.938
					c-1.049,0.003-2.236,0.839-2.096,1.962c0.221,1.758-0.221,3.417,0,5.18c0.698-0.654,1.396-1.31,2.096-1.962
					c-3.826,0.539-7.654,0.572-11.511,0.576c-0.772,0-2.125,0.654-2.123,1.583c0.019,5.927-7.706,2.82-7.306-2.298
					c0.248-3.185,8.111-2.53,10.254-2.728c-0.6-0.436-1.198-0.871-1.796-1.307c0,1.343,0,2.686,0,4.027
					C69.88,89.989,73.799,89.429,73.799,87.648L73.799,87.648z"/>
			</g>
		</g>
		<g>
			<g>
				<path fill="#5FC195" d="M81.225,80.619c1.726,0.575,3.454,1.15,5.179,1.728c0.883,0.295,1.938,0.061,2.729-0.395
					c0.422-0.242,1.264-1.088,0.372-1.386c-1.728-0.576-3.453-1.151-5.181-1.728c-0.884-0.294-1.938-0.062-2.728,0.395
					C81.176,79.477,80.331,80.323,81.225,80.619L81.225,80.619z"/>
			</g>
		</g>
		<g>
			<path fill="#5FC195" d="M120.757,163.754c-27.623,4.604-58.702,0-86.902,0v0.576c-1.15-11.511,10.359-29.352,19.567-35.105
				c6.905-4.03,13.237-5.181,16.114,0.574c1.15,2.878-1.15,6.906,0,9.784c1.15,2.876,5.18,4.028,7.481,6.905
				c12.662-2.877,4.028-8.632,7.481-16.689c2.304-4.604,10.359-6.332,16.689-4.027c16.113,6.331,12.66,25.897,18.416,37.407"/>
		</g>
		<g>
			<g>
				<path fill="#5FC195" d="M70.142,128.267c2.609-3.519,3.169-7.769,3.979-11.958c0.529-2.75-5.383-1.94-5.854,0.506
					c-0.63,3.268-0.88,7.154-2.928,9.915C63.165,129.658,68.659,130.265,70.142,128.267L70.142,128.267z"/>
			</g>
		</g>
		<g>
			<g>
				<path fill="#5FC195" d="M79.806,117.337c0.002,4.655,0.098,9.258,1.15,13.812c0.363,1.574,6.178,0.101,5.795-1.553
					c-1.053-4.558-1.147-9.157-1.15-13.812C85.602,114.487,79.806,115.433,79.806,117.337L79.806,117.337z"/>
			</g>
		</g>
	</g>
	<g>
		<g>
			<path fill="#898989" d="M79.514,185.552c-4.433-0.989-9.007,1.683-10.776,5.761c-1.81,4.169,0.842,8.388,5.037,9.474
				c4.525,1.172,9.635-0.435,12.045-4.554c1.797-3.072-0.845-9.142-3.826-10.722c-1.342-0.71-2.932-0.617-4.162,0.327
				c-0.875,0.672-1.613,2.381-0.289,3.083c1.601,0.849,2.507,3.396,2.883,5.03c0.443,1.928-1.36,2.937-3.047,2.825
				c-4.659-0.305-3.945-7.817,0.16-6.9C80.456,190.528,83.345,186.408,79.514,185.552L79.514,185.552z"/>
		</g>
	</g>
	<g>
		<g>
			<path fill="#898989" d="M63.729,12.482c8-0.063,15.983-0.848,23.985-0.476c1.331,0.062,6.676-2.386,3.717-2.522
				C83.008,9.091,74.61,9.892,66.188,9.957C64.522,9.97,59.866,12.513,63.729,12.482L63.729,12.482z"/>
		</g>
	</g>
</g>
</svg>
