<?xml version="1.0" encoding="utf-8"?>
<!-- Generator: Adobe Illustrator 15.1.0, SVG Export Plug-In . SVG Version: 6.00 Build 0)  -->
<!DOCTYPE svg PUBLIC "-//W3C//DTD SVG 1.1//EN" "http://www.w3.org/Graphics/SVG/1.1/DTD/svg11.dtd">
<svg version="1.1" id="Layer_1" xmlns="http://www.w3.org/2000/svg" xmlns:xlink="http://www.w3.org/1999/xlink" x="0px" y="0px"
	 width="335.324px" height="203.437px" viewBox="0 0 335.324 203.437" enable-background="new 0 0 335.324 203.437"
	 xml:space="preserve">
<g>
	<g>
		<g>
			<path fill="#898989" d="M39.276,67.75c-7.033,2.596-12.174-5.445-13.71-11.124c-1.87-6.914-0.196-14.913,5.167-19.819
				c4.399-4.024,10.989-3.818,15.837-0.764c4.517,2.846,6.552,8.562,7.816,13.456c2.206,8.541,2.288,18.108,11.514,22.229
				c6.752,3.016,17.524,2.203,23.974-1.263c7.726-4.149,10.265-12.94,8.921-21.205c-3.588-22.08-32.311-13.304-42.042-1.239
				c-5.394,6.687-8.06,15.275-15.776,19.86c-5.998,3.564-14.741,2.775-21.494,2.667c-3.026-0.048-5.887-0.601-8.865,0.197
				c-6.11,1.638-7.453,8.732-8.433,14.205c-1.781,9.943-1.897,20.085-1.907,30.158c-0.003,3.246-0.127,6.492-0.141,9.738
				C0.13,126.315-0.5,131.755,1,132.757c5.188,3.47,14.408,1.205,20.084,0.359c5.848-0.871,12.315,0.132,18.185,0.562
				c6.355,0.465,12.7,1.034,19.063,1.387c13.161,0.731,26.451-3.42,39.297,1.064c1.036,0.362,5.307-0.088,5.588-1.498
				c1.989-9.958-1.062-19.801-2.562-29.613c-1.717-11.23,2.42-22.803,2.048-34.109c-0.028-0.844-5.847,0.039-5.796,1.553
				c0.359,10.939-2.59,21.639-2.247,32.584c0.327,10.434,4.978,20.034,2.856,30.66c1.862-0.499,3.726-0.999,5.588-1.498
				c-13.485-4.708-27.154-0.709-40.977-1.369c-13.635-0.65-27.64-3.38-41.233-1.49c-2.659,0.368-12.943,2.51-14.432-0.699
				c-1.591-3.431-0.532-9.262-0.448-12.926c0.252-11.019-0.023-22.012,1.717-32.938c0.467-2.932,1.209-5.796,2.227-8.582
				c0.384-1.051,0.856-2.051,1.376-3.039c0.723-1.375-1.252-0.725,0.268-0.65c6.105,0.301,12.16,0.36,18.263-0.135
				c9.937-0.805,18.781-4.779,24.562-13.046c6.647-9.502,12.592-22.882,26.672-21.433c11.465,1.18,14.082,15.702,10.988,24.65
				c-1.365,3.949-4.357,7.667-8.707,8.236c-4.342,0.567-8.818,0.444-12.861-1.362c-6.804-3.04-8.571-11.148-9.586-17.756
				c-1.063-6.924-3.627-14.232-9.81-18.127c-5.587-3.52-13.693-2.109-19.463,0.169c-10.029,3.96-14.27,14.251-11.891,24.468
				c2.477,10.631,11.73,14.289,21.46,10.698C45.12,67.44,41.406,66.964,39.276,67.75L39.276,67.75z"/>
		</g>
	</g>
	<g>
		<g>
			<path fill="#898989" d="M130.775,120.61c-10.946-2.266-18.765-12.516-30.426-12.442c-2.262,0.015-6.134,3.464-2.215,3.438
				c10.75-0.066,18.783,10.138,29.124,12.276C129.205,124.286,134.117,121.3,130.775,120.61L130.775,120.61z"/>
		</g>
	</g>
	<g>
		<g>
			<path fill="#898989" d="M98.531,98.212c11.799-3.562,22.381-9.981,33.889-14.278c3.789-1.414,0.344-3.554-2.335-2.554
				c-10.996,4.104-21.112,10.356-32.378,13.757C94.263,96.175,95.048,99.264,98.531,98.212L98.531,98.212z"/>
		</g>
	</g>
	<g>
		<g>
			<path fill="#5FC195" d="M133.046,121.352c0.053-12.929,1.078-25.832,1.124-38.764c0.009-2.574-5.805-1.39-5.812,0.663
				c-0.045,12.931-1.071,25.835-1.125,38.765C127.224,124.588,133.038,123.406,133.046,121.352L133.046,121.352z"/>
		</g>
	</g>
	<g>
		<g>
			<path fill="#5FC195" d="M133.902,102.979c6.201-7.849,8.38-18.508,15.168-25.842c1.315-1.422-4.282-0.744-5.275,0.328
				c-6.833,7.383-8.957,17.981-15.168,25.844C127.372,104.897,133,104.123,133.902,102.979L133.902,102.979z"/>
		</g>
	</g>
	<g>
		<g>
			<path fill="#5FC195" d="M130.543,102.774c4.228,0.795,6.995,8.625,8.513,11.951c2.147,4.711,3.846,9.611,5.602,14.477
				c0.58,1.605,6.306-0.139,5.796-1.553c-2.035-5.637-4.062-11.265-6.628-16.688c-1.956-4.131-4.633-9.885-9.594-10.818
				C132.801,99.875,127.488,102.2,130.543,102.774L130.543,102.774z"/>
		</g>
	</g>
	<g>
		<g>
			<path fill="#5FC195" d="M151.578,127.649c0.039-17.801,1.006-35.604-0.562-53.371c-1.932,0.519-3.863,1.035-5.795,1.554
				c3.698,12.138,8.191,23.927,10.154,36.519c1.208,7.748,2.143,18.57,8.004,24.418c0.963,0.961,5.346-0.071,5.588-1.498
				c3.866-22.75,3.957-45.845,3.958-68.855c0-1.256-5.795-0.325-5.795,1.553c-0.001,22.801-0.075,45.678-3.907,68.221
				c1.863-0.5,3.727-0.998,5.588-1.498c-5.854-5.842-6.604-17.241-7.809-24.973c-1.902-12.199-6.402-23.68-9.986-35.439
				c-0.476-1.561-5.94-0.1-5.795,1.554c1.567,17.767,0.6,35.569,0.562,53.371C145.779,130.456,151.574,129.528,151.578,127.649
				L151.578,127.649z"/>
		</g>
	</g>
	<g>
		<g>
			<path fill="#5FC195" d="M201.611,97.856c2.256-9.705,2.101-19.664-3.139-28.325c-2.728-4.509-8.709-13.399-14.896-8.772
				c-2.461,1.842-3.682,5.538-4.797,8.246c-1.361,3.309-2.731,6.717-3.76,10.141c-3.317,11.06-6.446,23.207-5.58,34.854
				c0.637,8.565,3.729,33.063,17.283,29.026c6.356-1.894,8.442-11.81,10.248-17.201c3.182-9.506,4.57-19.044,4.641-29.092
				c0.021-3.004-5.848-2.096-5.865,0.461c-0.098,13.879-2.63,28.717-9.62,40.959c-2.476,4.336-6.856-6.645-7.442-8.328
				c-1.861-5.348-2.896-11.088-3.398-16.717c-1.35-15.113,3.968-31.752,9.88-45.506c0.521-1.213,1.12-2.381,1.776-3.526
				c0.972-0.998,0.623-1.136-1.047-0.413c0.557,0.277,1.066,0.624,1.53,1.037c2.638,2.057,4.568,5.434,6.272,8.25
				c4.568,7.552,3.976,17.072,2.049,25.367C195.099,101.11,201.027,100.378,201.611,97.856L201.611,97.856z"/>
		</g>
	</g>
	<g>
		<g>
			<path fill="#5FC195" d="M200.275,54.483c-2.346,16.025-0.557,32.969,0.142,49.092c0.703,16.29,4.656,32.285,3.793,48.66
				c-0.048,0.91,5.478,0.003,5.754-1.291c1.613-7.51,5.431-14.297,6.74-21.91c-1.918,0.431-3.836,0.861-5.754,1.292
				c0.163,9.155,2.256,19.239,6.181,27.528c0.573,1.211,5.506-0.115,5.754-1.293c2.176-10.313,3.482-20.709,3.989-31.238
				c0.5-10.395-0.163-20.76-0.036-31.149c0.105-8.692,1.385-17.362,2.027-26.022c0.589-7.937,1.142-16.709-2.008-24.209
				c-0.58-1.384-6.229,0.519-5.795,1.553c2.791,6.652,2.541,14.186,2.192,21.253c-0.435,8.804-1.666,17.549-2.124,26.353
				c-0.521,10.049,0.329,20.172,0.074,30.24c-0.291,11.533-1.655,22.967-4.034,34.252c1.918-0.431,3.836-0.861,5.754-1.292
				c-3.925-8.29-6.017-18.372-6.181-27.528c-0.018-1.01-5.54,0.045-5.754,1.293c-1.311,7.613-5.129,14.399-6.74,21.91
				c1.918-0.432,3.836-0.861,5.754-1.293c0.861-16.336-2.854-32.41-3.793-48.66c-0.455-7.883-0.438-15.809-0.822-23.701
				c-0.414-8.486-0.552-16.965,0.682-25.393C206.167,52.278,200.532,52.729,200.275,54.483L200.275,54.483z"/>
		</g>
	</g>
	<g>
		<g>
			<path fill="#5FC195" d="M228.33,41.575c-0.961,20.72,3.779,41.117,3.934,61.798c0.074,10.131-1.092,20.235-1.686,30.337
				c-0.602,10.223,1.822,20.195-0.562,30.337c-0.273,1.166,1.084,1.673,1.926,1.856c3.261,0.709,6.312,2.105,9.443,3.222
				c2.441,0.87,6.812-2.638,3.355-3.869c-3.594-1.28-7.047-2.708-10.782-3.521c0.642,0.619,1.283,1.236,1.925,1.855
				c2.233-9.494,0.46-18.867,0.497-28.47c0.039-10.112,1.562-20.208,1.74-30.332c0.375-21.322-4.912-42.322-3.923-63.67
				C234.336,38.12,228.449,38.989,228.33,41.575L228.33,41.575z"/>
		</g>
	</g>
	<g>
		<g>
			<path fill="#5FC195" d="M249.493,170.938c3.181-0.851,3.842-2.738,4.271-5.742c0.7-4.934,0.633-9.995,0.602-14.965
				c-0.1-15.847-1.159-31.699-2.205-47.506c-0.995-15.052-2.178-30.091-3.242-45.138c-0.284-4.013-0.621-8.037-0.706-12.06
				c-0.058-2.692-0.565-8.488,2.724-9.624c3.578-1.235,6.584-2.811,9.363-5.427c1.284-1.21-4.229-0.581-5.26,0.391
				c-4.76,4.481-11.383,3.532-12.398,11.096c-0.562,4.182-0.097,8.55,0.178,12.741c0.9,13.745,2.019,27.476,2.979,41.216
				c1.104,15.814,2.135,31.645,2.611,47.493c0.18,6,0.285,12.015,0.017,18.015c-0.089,1.982-0.228,3.975-0.565,5.932
				c-0.44,2.543-1.836,2.492,1.133,1.697C245.603,169.962,246.109,171.844,249.493,170.938L249.493,170.938z"/>
		</g>
	</g>
	<g>
		<g>
			<path fill="#5FC195" d="M248.564,109.987c4.004-0.117,7.809-1.568,11.797-1.686c1.25-0.035,2.955-0.504,3.873-1.408
				c0.966-0.953-0.848-1.058-1.395-1.041c-4.005,0.117-7.809,1.567-11.798,1.685c-1.25,0.036-2.955,0.504-3.872,1.407
				C246.205,109.899,248.017,110.002,248.564,109.987L248.564,109.987z"/>
		</g>
	</g>
	<g>
		<g>
			<path fill="#5FC195" d="M248.496,169.536c4.488,0.605,9.486,1.927,12.625,5.396c1.014,1.121,6.418-0.936,5.453-2.002
				c-3.532-3.906-9.34-5.162-14.34-5.838C250.939,166.917,245.542,169.135,248.496,169.536L248.496,169.536z"/>
		</g>
	</g>
	<g>
		<g>
			<path fill="#5FC195" d="M272.394,175.925c1.74-24.674,3.682-49.087,0.657-73.747c-1.501-12.238-2.997-24.474-4.047-36.759
				c-1.116-13.082-0.996-25.856-0.543-38.932c0.101-2.906-5.771-1.958-5.854,0.504c-0.834,24.047,1.07,47.448,3.986,71.339
				c1.574,12.896,2.582,25.648,2.331,38.652c-0.255,13.17-1.459,26.312-2.386,39.445
				C266.335,179.313,272.22,178.395,272.394,175.925L272.394,175.925z"/>
		</g>
	</g>
	<g>
		<g>
			<path fill="#5FC195" d="M267.032,177.389c9.307,0.34,13.407-7.507,15.772-15.307c3.188-10.506,4.146-21.873,4.619-32.796
				c0.75-17.313-0.21-34.976-1.962-52.198c-1.709-16.795-3.239-39.127-17.2-50.783c-1.234-1.03-6.389,1.217-5.455,1.995
				c12.226,10.208,14.032,28.488,16.023,43.239c2.375,17.598,2.852,35.428,2.904,53.163c0.025,8.805-0.707,17.638-2.047,26.336
				c-0.769,4.993-1.84,9.956-3.473,14.739c-0.641,1.878-1.449,3.688-2.404,5.425c-0.516,0.937-1.14,1.8-1.838,2.606
				c-0.42,0.484-1.646,1.141-1.197,1.156C269.515,174.92,264.13,177.284,267.032,177.389L267.032,177.389z"/>
		</g>
	</g>
	<g>
		<g>
			<path fill="#5FC195" d="M303.127,170.518c-1.14,5.592-3.869,13.77-9.937,15.709c1.297-0.052,2.595-0.103,3.892-0.152
				c-4.502-41.691-8.259-83.49-4.308-125.355c0.947-10.039,2.082-20.057,3.017-30.096c0.478-5.116,0.593-10.727,3.053-15.355
				c0.689-0.763,0.466-0.874-0.669-0.334c0.567,0.274,1.098,0.609,1.59,1.003c1.176,0.833,2.026,1.893,2.625,3.181
				c1.106,2.387,1.438,5.216,1.817,7.788c0.853,5.755,1.103,11.65,1.125,17.463c0.003,0.897,5.802,0.068,5.795-1.553
				c-0.024-6.583-0.396-13.218-1.479-19.716c-0.808-4.849-2.996-10.683-8.876-10.714c-5.084-0.027-7.856,3.247-9.121,7.793
				c-1.889,6.794-1.861,14.36-2.562,21.312c-2.438,24.182-4.896,48.147-3.724,72.483c1.186,24.604,3.276,49.164,5.922,73.65
				c0.108,1.02,3.481-0.021,3.891-0.152c8.024-2.564,12.062-10.139,13.66-17.998C309.095,168.217,303.411,169.127,303.127,170.518
				L303.127,170.518z"/>
		</g>
	</g>
	<g>
		<g>
			<path fill="#5FC195" d="M300.544,170.528c2.977-0.493,5.782-0.922,8.729-0.043c-0.38-0.42-0.759-0.84-1.138-1.26
				c-0.573,3.227-1.571,6.348-2.246,9.551c-0.477,2.27,5.375,1.332,5.804-0.699c0.673-3.203,1.672-6.324,2.246-9.551
				c0.136-0.768-0.523-1.077-1.138-1.26c-3.792-1.133-7.656-0.68-11.492-0.043c-1.109,0.184-2.981,0.688-3.285,2.002
				C297.73,170.51,299.759,170.659,300.544,170.528L300.544,170.528z"/>
		</g>
	</g>
	<g>
		<g>
			<path fill="#5FC195" d="M324.048,193.942c0.001-32.264,0.956-64.543,0.438-96.797c-0.118-7.332,0.512-14.678-0.237-21.984
				c-0.769-7.505-2.756-14.844-3.695-22.329c-0.997-7.948-0.356-16.139-0.306-24.132c0.05-7.851-0.086-15.692-0.693-23.521
				c-0.586,0.649-1.172,1.299-1.758,1.949c3.186-1.337,6.24-2.851,9.08-4.824c3.224-2.239-1.78-2.94-3.586-1.686
				c-2.444,1.698-5.033,3.015-7.773,4.165c-0.807,0.339-1.836,0.947-1.758,1.949c1.229,15.847-0.622,31.876,0.998,47.653
				c0.713,6.933,2.476,13.729,3.48,20.62c1.141,7.814,0.357,15.819,0.452,23.694c0.387,32.256-0.438,64.53-0.438,96.796
				C318.253,197.268,324.048,196.175,324.048,193.942L324.048,193.942z"/>
		</g>
	</g>
	<g>
		<g>
			<path fill="#5FC195" d="M320.577,105.004c3.395,0.893,6.968-0.365,10.396-0.429c1.219-0.022,3.021-0.902,3.219-2.25
				c0.214-1.474-1.594-1.757-2.637-1.738c-1.479,0.027-2.94,0.235-4.404,0.427c-0.896,0.117-2.553,0.435-3.177,0.271
				c-1.402-0.369-3.097,0-4.099,1.098C319.018,103.321,319.28,104.663,320.577,105.004L320.577,105.004z"/>
		</g>
	</g>
	<g>
		<g>
			<path fill="#5FC195" d="M322.292,193.997c-0.908-0.293-1.771-0.355-2.713-0.117c-0.884,0.225-2.967,1.336-2.407,2.607
				c0.785,1.785,4.376,2.67,5.977,3.398c2.324,1.059,4.688,2.049,6.984,3.168c1.329,0.647,2.936,0.45,4.143-0.404
				c0.826-0.586,1.688-2.142,0.367-2.784c-2.03-0.99-4.119-1.869-6.177-2.802c-1.373-0.621-2.744-1.248-4.107-1.889
				c-0.437-0.205-0.87-0.414-1.303-0.63c-0.862-0.43-0.543-0.644-0.088,0.39c-0.803,0.869-1.604,1.738-2.407,2.608
				c-1.701,0.433-2.672-0.181-1.673,0.142c1.356,0.438,3.138-0.057,4.1-1.098C323.886,195.612,323.541,194.401,322.292,193.997
				L322.292,193.997z"/>
		</g>
	</g>
</g>
</svg>
