<?xml version="1.0" encoding="utf-8"?>
<!-- Generator: Adobe Illustrator 15.1.0, SVG Export Plug-In . SVG Version: 6.00 Build 0)  -->
<!DOCTYPE svg PUBLIC "-//W3C//DTD SVG 1.1//EN" "http://www.w3.org/Graphics/SVG/1.1/DTD/svg11.dtd">
<svg version="1.1" id="Layer_1" xmlns="http://www.w3.org/2000/svg" xmlns:xlink="http://www.w3.org/1999/xlink" x="0px" y="0px"
	 width="335.324px" height="793.307px" viewBox="0 0 335.324 793.307" enable-background="new 0 0 335.324 793.307"
	 xml:space="preserve">
<g>
	<g>
		<g>
			<path fill="#898989" d="M39.277,67.752c-7.033,2.596-12.174-5.445-13.71-11.124c-1.87-6.914-0.196-14.913,5.167-19.819
				c4.399-4.024,10.989-3.818,15.837-0.764c4.517,2.846,6.552,8.562,7.816,13.456c2.206,8.541,2.288,18.108,11.514,22.229
				c6.751,3.016,17.524,2.204,23.973-1.262c7.725-4.15,10.264-12.94,8.921-21.205c-3.588-22.08-32.31-13.304-42.042-1.239
				c-5.394,6.687-8.06,15.275-15.776,19.86c-5.998,3.564-14.741,2.775-21.494,2.667c-3.026-0.048-5.887-0.601-8.865,0.197
				c-6.11,1.638-7.453,8.733-8.433,14.205c-1.781,9.943-1.897,20.085-1.907,30.158c-0.003,3.247-0.127,6.492-0.141,9.739
				c-0.006,1.466-0.636,6.907,0.863,7.909c5.188,3.469,14.408,1.205,20.084,0.359c5.848-0.871,12.315,0.132,18.185,0.562
				c6.355,0.465,12.7,1.034,19.063,1.387c13.161,0.731,26.451-3.421,39.297,1.064c1.036,0.362,5.307-0.088,5.588-1.498
				c1.989-9.958-1.063-19.801-2.563-29.613c-1.716-11.231,2.42-22.803,2.048-34.11c-0.028-0.843-5.846,0.039-5.796,1.553
				c0.36,10.94-2.59,21.638-2.247,32.584c0.328,10.434,4.978,20.034,2.856,30.66c1.863-0.499,3.726-0.999,5.588-1.498
				c-13.485-4.708-27.154-0.709-40.976-1.369c-13.635-0.651-27.64-3.38-41.233-1.491c-2.659,0.369-12.943,2.51-14.432-0.699
				c-1.591-3.43-0.532-9.262-0.448-12.926c0.252-11.018-0.023-22.011,1.717-32.937c0.467-2.931,1.209-5.796,2.227-8.582
				c0.384-1.05,0.856-2.051,1.376-3.039c0.723-1.375-1.252-0.725,0.268-0.65c6.105,0.301,12.16,0.36,18.263-0.135
				c9.937-0.805,18.781-4.78,24.563-13.046c6.647-9.502,12.591-22.882,26.672-21.433c11.465,1.18,14.081,15.701,10.988,24.65
				c-1.365,3.949-4.357,7.667-8.707,8.236c-4.342,0.568-8.818,0.444-12.861-1.362c-6.804-3.04-8.572-11.148-9.587-17.756
				c-1.063-6.924-3.627-14.232-9.809-18.127c-5.587-3.52-13.693-2.109-19.463,0.169c-10.029,3.96-14.27,14.251-11.891,24.468
				C22.247,68.811,31.5,72.469,41.23,68.878C45.12,67.442,41.406,66.966,39.277,67.752L39.277,67.752z"/>
		</g>
	</g>
	<g>
		<g>
			<path fill="#898989" d="M130.775,120.611c-10.946-2.265-18.764-12.515-30.426-12.442c-2.261,0.014-6.133,3.464-2.214,3.439
				c10.75-0.067,18.783,10.137,29.124,12.276C129.205,124.287,134.117,121.302,130.775,120.611L130.775,120.611z"/>
		</g>
	</g>
	<g>
		<g>
			<path fill="#898989" d="M98.531,98.214c11.799-3.562,22.381-9.982,33.889-14.279c3.789-1.414,0.343-3.553-2.335-2.553
				c-10.996,4.105-21.113,10.356-32.378,13.756C94.264,96.177,95.049,99.265,98.531,98.214L98.531,98.214z"/>
		</g>
	</g>
	<g>
		<g>
			<path fill="#5EC094" d="M133.047,121.354c0.052-12.929,1.078-25.833,1.124-38.764c0.009-2.574-5.805-1.39-5.812,0.663
				c-0.045,12.93-1.071,25.835-1.124,38.764C127.224,124.59,133.038,123.407,133.047,121.354L133.047,121.354z"/>
		</g>
	</g>
	<g>
		<g>
			<path fill="#5EC094" d="M133.902,102.981c6.202-7.849,8.38-18.509,15.168-25.843c1.316-1.421-4.282-0.744-5.275,0.329
				c-6.833,7.382-8.957,17.981-15.168,25.843C127.372,104.899,133,104.124,133.902,102.981L133.902,102.981z"/>
		</g>
	</g>
	<g>
		<g>
			<path fill="#5EC094" d="M130.544,102.775c4.227,0.795,6.995,8.625,8.512,11.951c2.148,4.711,3.846,9.612,5.602,14.477
				c0.58,1.606,6.306-0.139,5.796-1.553c-2.035-5.637-4.062-11.264-6.628-16.687c-1.956-4.131-4.632-9.885-9.594-10.818
				C132.802,99.876,127.488,102.201,130.544,102.775L130.544,102.775z"/>
		</g>
	</g>
	<g>
		<g>
			<path fill="#5EC094" d="M151.578,127.651c0.039-17.801,1.006-35.605-0.562-53.371c-1.932,0.518-3.864,1.035-5.796,1.553
				c3.699,12.138,8.192,23.927,10.155,36.518c1.208,7.749,2.143,18.571,8.004,24.419c0.963,0.961,5.346-0.072,5.588-1.498
				c3.866-22.751,3.957-45.845,3.958-68.856c0-1.256-5.795-0.325-5.795,1.553c-0.001,22.8-0.075,45.677-3.907,68.22
				c1.863-0.499,3.726-0.998,5.588-1.498c-5.854-5.841-6.604-17.241-7.809-24.972c-1.902-12.199-6.403-23.68-9.986-35.439
				c-0.476-1.561-5.941-0.1-5.796,1.553c1.568,17.766,0.601,35.57,0.562,53.371C145.78,130.457,151.574,129.53,151.578,127.651
				L151.578,127.651z"/>
		</g>
	</g>
	<g>
		<g>
			<path fill="#5EC094" d="M201.612,97.858c2.255-9.705,2.1-19.664-3.14-28.326c-2.727-4.509-8.709-13.399-14.896-8.772
				c-2.461,1.841-3.681,5.538-4.796,8.246c-1.362,3.308-2.732,6.716-3.761,10.141c-3.317,11.059-6.446,23.206-5.58,34.854
				c0.637,8.565,3.729,33.064,17.283,29.027c6.357-1.894,8.443-11.81,10.248-17.202c3.183-9.506,4.571-19.044,4.641-29.092
				c0.021-3.004-5.848-2.096-5.865,0.462c-0.098,13.878-2.63,28.716-9.62,40.958c-2.476,4.336-6.856-6.644-7.442-8.328
				c-1.862-5.347-2.896-11.087-3.399-16.717c-1.349-15.113,3.968-31.751,9.88-45.505c0.521-1.213,1.12-2.382,1.776-3.527
				c0.972-0.998,0.623-1.136-1.046-0.413c0.556,0.278,1.066,0.624,1.53,1.037c2.637,2.057,4.568,5.434,6.272,8.25
				c4.568,7.552,3.976,17.072,2.049,25.368C195.099,101.111,201.027,100.38,201.612,97.858L201.612,97.858z"/>
		</g>
	</g>
	<g>
		<g>
			<path fill="#5EC094" d="M200.276,54.484c-2.347,16.026-0.557,32.969,0.141,49.092c0.703,16.29,4.656,32.286,3.793,48.661
				c-0.048,0.91,5.477,0.002,5.754-1.292c1.613-7.51,5.431-14.297,6.74-21.91c-1.918,0.431-3.836,0.861-5.754,1.292
				c0.163,9.156,2.256,19.239,6.181,27.528c0.573,1.211,5.506-0.115,5.754-1.292c2.175-10.314,3.482-20.71,3.989-31.239
				c0.5-10.394-0.163-20.76-0.036-31.149c0.106-8.692,1.384-17.362,2.027-26.022c0.589-7.937,1.142-16.709-2.007-24.21
				c-0.58-1.384-6.229,0.519-5.795,1.553c2.791,6.652,2.541,14.185,2.192,21.253c-0.435,8.804-1.666,17.549-2.124,26.353
				c-0.522,10.048,0.329,20.172,0.074,30.24c-0.291,11.533-1.655,22.966-4.034,34.252c1.918-0.431,3.836-0.861,5.754-1.292
				c-3.925-8.29-6.017-18.373-6.181-27.528c-0.018-1.011-5.54,0.044-5.754,1.292c-1.31,7.613-5.128,14.4-6.74,21.91
				c1.918-0.431,3.836-0.861,5.754-1.292c0.861-16.337-2.854-32.411-3.793-48.661c-0.455-7.882-0.438-15.808-0.822-23.701
				c-0.414-8.486-0.552-16.964,0.682-25.392C206.167,52.279,200.532,52.731,200.276,54.484L200.276,54.484z"/>
		</g>
	</g>
	<g>
		<g>
			<path fill="#5EC094" d="M228.33,41.576c-0.961,20.72,3.78,41.118,3.934,61.798c0.074,10.131-1.092,20.235-1.686,30.337
				c-0.602,10.223,1.823,20.195-0.562,30.337c-0.274,1.166,1.083,1.673,1.925,1.856c3.261,0.709,6.313,2.106,9.444,3.222
				c2.441,0.87,6.812-2.638,3.355-3.869c-3.593-1.28-7.046-2.708-10.782-3.521c0.642,0.619,1.283,1.237,1.925,1.856
				c2.233-9.494,0.46-18.867,0.497-28.47c0.039-10.112,1.562-20.208,1.74-30.332c0.375-21.322-4.912-42.322-3.923-63.67
				C234.337,38.121,228.449,38.99,228.33,41.576L228.33,41.576z"/>
		</g>
	</g>
	<g>
		<g>
			<path fill="#5EC094" d="M249.493,170.94c3.181-0.851,3.842-2.739,4.27-5.743c0.701-4.933,0.633-9.995,0.602-14.964
				c-0.1-15.847-1.159-31.7-2.205-47.506c-0.995-15.052-2.177-30.091-3.242-45.138c-0.284-4.013-0.621-8.037-0.706-12.06
				c-0.057-2.692-0.566-8.488,2.723-9.624c3.578-1.235,6.585-2.811,9.364-5.427c1.284-1.21-4.228-0.581-5.26,0.391
				c-4.759,4.481-11.383,3.532-12.398,11.096c-0.562,4.182-0.097,8.55,0.178,12.741c0.9,13.745,2.018,27.475,2.978,41.216
				c1.104,15.814,2.135,31.645,2.611,47.493c0.18,6,0.285,12.015,0.017,18.014c-0.089,1.983-0.228,3.975-0.566,5.933
				c-0.44,2.542-1.835,2.491,1.133,1.697C245.604,169.964,246.109,171.846,249.493,170.94L249.493,170.94z"/>
		</g>
	</g>
	<g>
		<g>
			<path fill="#5EC094" d="M248.564,109.988c4.005-0.117,7.809-1.568,11.798-1.685c1.25-0.036,2.955-0.504,3.872-1.408
				c0.966-0.954-0.847-1.058-1.394-1.042c-4.005,0.117-7.809,1.568-11.798,1.685c-1.25,0.036-2.955,0.504-3.872,1.408
				C246.205,109.9,248.018,110.004,248.564,109.988L248.564,109.988z"/>
		</g>
	</g>
	<g>
		<g>
			<path fill="#5EC094" d="M248.496,169.537c4.489,0.606,9.486,1.927,12.625,5.397c1.014,1.12,6.418-0.936,5.453-2.003
				c-3.532-3.905-9.339-5.161-14.34-5.837C250.94,166.918,245.543,169.137,248.496,169.537L248.496,169.537z"/>
		</g>
	</g>
	<g>
		<g>
			<path fill="#5EC094" d="M272.395,175.927c1.74-24.674,3.681-49.087,0.657-73.748c-1.501-12.237-2.998-24.473-4.047-36.758
				c-1.117-13.082-0.996-25.856-0.543-38.932c0.101-2.906-5.77-1.958-5.855,0.504c-0.833,24.047,1.071,47.448,3.987,71.339
				c1.574,12.896,2.582,25.648,2.331,38.653c-0.255,13.17-1.459,26.311-2.386,39.445
				C266.336,179.315,272.22,178.397,272.395,175.927L272.395,175.927z"/>
		</g>
	</g>
	<g>
		<g>
			<path fill="#5EC094" d="M267.032,177.391c9.307,0.339,13.408-7.507,15.773-15.307c3.188-10.506,4.146-21.873,4.619-32.796
				c0.75-17.314-0.21-34.975-1.962-52.198c-1.709-16.795-3.24-39.127-17.201-50.783c-1.233-1.03-6.388,1.217-5.455,1.995
				c12.226,10.208,14.033,28.488,16.024,43.239c2.375,17.597,2.852,35.428,2.904,53.163c0.026,8.805-0.706,17.638-2.046,26.336
				c-0.769,4.993-1.841,9.956-3.473,14.74c-0.641,1.877-1.45,3.688-2.405,5.424c-0.515,0.937-1.139,1.8-1.837,2.606
				c-0.42,0.485-1.646,1.141-1.198,1.157C269.516,174.922,264.131,177.285,267.032,177.391L267.032,177.391z"/>
		</g>
	</g>
	<g>
		<g>
			<path fill="#5EC094" d="M303.128,170.519c-1.139,5.592-3.869,13.77-9.936,15.709c1.297-0.051,2.594-0.102,3.891-0.152
				c-4.502-41.691-8.259-83.49-4.308-125.356c0.947-10.038,2.082-20.056,3.017-30.095c0.477-5.116,0.593-10.727,3.053-15.355
				c0.689-0.763,0.466-0.874-0.669-0.334c0.567,0.274,1.097,0.609,1.589,1.003c1.177,0.833,2.027,1.893,2.625,3.181
				c1.107,2.387,1.438,5.216,1.818,7.788c0.853,5.755,1.103,11.65,1.125,17.463c0.003,0.897,5.802,0.068,5.795-1.553
				c-0.024-6.583-0.396-13.218-1.479-19.716c-0.807-4.849-2.996-10.683-8.875-10.714c-5.085-0.027-7.857,3.247-9.121,7.793
				c-1.889,6.794-1.862,14.36-2.563,21.312c-2.438,24.182-4.897,48.147-3.724,72.484c1.186,24.603,3.277,49.164,5.922,73.65
				c0.109,1.019,3.481-0.021,3.891-0.152c8.024-2.565,12.061-10.139,13.66-17.998C309.096,168.219,303.411,169.129,303.128,170.519
				L303.128,170.519z"/>
		</g>
	</g>
	<g>
		<g>
			<path fill="#5EC094" d="M300.545,170.53c2.977-0.494,5.782-0.923,8.729-0.043c-0.379-0.42-0.758-0.84-1.137-1.26
				c-0.574,3.226-1.572,6.347-2.246,9.551c-0.477,2.269,5.375,1.332,5.803-0.7c0.673-3.203,1.672-6.324,2.246-9.551
				c0.136-0.767-0.523-1.077-1.137-1.26c-3.792-1.132-7.656-0.679-11.493-0.043c-1.109,0.184-2.981,0.689-3.284,2.003
				C297.73,170.512,299.76,170.66,300.545,170.53L300.545,170.53z"/>
		</g>
	</g>
	<g>
		<g>
			<path fill="#5EC094" d="M324.049,193.943c0.001-32.264,0.956-64.543,0.438-96.796c-0.118-7.333,0.512-14.678-0.237-21.985
				c-0.769-7.505-2.756-14.843-3.695-22.329c-0.997-7.948-0.357-16.139-0.306-24.132c0.05-7.851-0.086-15.692-0.693-23.521
				c-0.586,0.649-1.172,1.299-1.758,1.949c3.185-1.337,6.24-2.851,9.08-4.824c3.224-2.239-1.78-2.94-3.586-1.686
				c-2.444,1.698-5.033,3.015-7.773,4.165c-0.807,0.339-1.836,0.947-1.758,1.949c1.229,15.847-0.622,31.876,0.998,47.653
				c0.713,6.933,2.475,13.729,3.48,20.62c1.141,7.815,0.358,15.819,0.452,23.694c0.387,32.256-0.437,64.53-0.437,96.796
				C318.254,197.27,324.049,196.177,324.049,193.943L324.049,193.943z"/>
		</g>
	</g>
	<g>
		<g>
			<path fill="#5EC094" d="M320.577,105.006c3.395,0.893,6.968-0.365,10.396-0.429c1.218-0.022,3.021-0.902,3.218-2.25
				c0.214-1.474-1.593-1.757-2.636-1.738c-1.479,0.027-2.941,0.235-4.405,0.427c-0.896,0.117-2.552,0.434-3.176,0.27
				c-1.403-0.369-3.097,0-4.099,1.098C319.019,103.322,319.28,104.664,320.577,105.006L320.577,105.006z"/>
		</g>
	</g>
	<g>
		<g>
			<path fill="#5EC094" d="M322.292,193.998c-0.908-0.293-1.771-0.355-2.713-0.117c-0.884,0.225-2.967,1.336-2.407,2.608
				c0.785,1.784,4.376,2.669,5.976,3.398c2.325,1.059,4.689,2.049,6.985,3.168c1.329,0.647,2.935,0.45,4.142-0.405
				c0.827-0.586,1.688-2.141,0.368-2.784c-2.031-0.99-4.12-1.869-6.177-2.801c-1.373-0.622-2.744-1.248-4.108-1.889
				c-0.436-0.206-0.87-0.415-1.302-0.63c-0.863-0.43-0.543-0.644-0.088,0.39c-0.803,0.869-1.605,1.738-2.407,2.608
				c-1.702,0.432-2.672-0.181-1.673,0.142c1.356,0.438,3.137-0.057,4.099-1.098C323.887,195.613,323.541,194.402,322.292,193.998
				L322.292,193.998z"/>
		</g>
	</g>
</g>
<g>
	<g>
		<g>
			<path fill="#898989" d="M43.208,565.263c-0.496-45.29,0.781-90.573,0.801-135.862c0.001-2.709-5.827-1.594-5.828,0.604
				c-0.019,45.289-1.296,90.572-0.801,135.862C37.41,568.581,43.232,567.453,43.208,565.263L43.208,565.263z"/>
		</g>
	</g>
	<g>
		<g>
			<path fill="#898989" d="M6.097,565.33c-0.496-45.29,0.781-90.573,0.8-135.862c0.001-2.988-5.862-2.061-5.863,0.471
				c-0.02,45.289-1.296,90.572-0.8,135.862C0.267,568.792,6.125,567.855,6.097,565.33L6.097,565.33z"/>
		</g>
	</g>
	<g>
		<g>
			<path fill="#898989" d="M176.503,565.368c-0.497-45.291,0.78-90.573,0.8-135.862c0.001-3.136-5.883-2.33-5.884,0.395
				c-0.019,45.29-1.296,90.572-0.8,135.862C170.653,568.9,176.532,568.087,176.503,565.368L176.503,565.368z"/>
		</g>
	</g>
	<g>
		<g>
			<path fill="#898989" d="M212.273,565.226c-0.497-45.29,0.78-90.572,0.8-135.862c0.001-2.543-5.808-1.34-5.809,0.678
				c-0.02,45.289-1.296,90.571-0.8,135.862C206.493,568.453,212.295,567.235,212.273,565.226L212.273,565.226z"/>
		</g>
	</g>
	<g>
		<g>
			<path fill="#5EC094" d="M14.917,439.512c-0.042,4.086-0.518,8.224-1.971,12.063c-0.813,2.149,3.068,2.249,3.718,0.531
				c1.549-4.095,2.135-8.482,2.18-12.843C18.866,437.146,14.936,437.654,14.917,439.512L14.917,439.512z"/>
		</g>
	</g>
	<g>
		<g>
			<path fill="#5EC094" d="M24.605,440.212c-0.001,4.152,0.162,8.813-1.277,12.762c-0.781,2.142,3.094,2.19,3.71,0.502
				c1.548-4.246,1.488-9.062,1.49-13.527C28.528,437.858,24.606,438.395,24.605,440.212L24.605,440.212z"/>
		</g>
	</g>
	<g>
		<g>
			<path fill="#5EC094" d="M12.874,466.887c0,3.171-0.222,6.611,0.692,9.686c0.317,1.067,4.168-0.01,3.863-1.035
				c-0.914-3.074-0.691-6.515-0.692-9.686C16.737,465.002,12.873,465.627,12.874,466.887L12.874,466.887z"/>
		</g>
	</g>
	<g>
		<g>
			<path fill="#5EC094" d="M12.874,492.486c0.911,4.565-0.64,9.271,0.692,13.837c0.284,0.975,4.137-0.097,3.863-1.035
				c-1.332-4.565,0.219-9.271-0.692-13.837C16.553,490.53,12.668,491.456,12.874,492.486L12.874,492.486z"/>
		</g>
	</g>
	<g>
		<g>
			<path fill="#5EC094" d="M12.874,519.467c0.618,4.598,0.766,9.239,1.384,13.836c0.208,1.549,4.086,0.621,3.863-1.035
				c-0.618-4.598-0.766-9.239-1.384-13.836C16.529,516.883,12.65,517.811,12.874,519.467L12.874,519.467z"/>
		</g>
	</g>
	<g>
		<g>
			<path fill="#5EC094" d="M13.565,547.14c0.001,4.172,0.055,8.322,0.692,12.453c0.113,0.731,4.008-0.098,3.863-1.035
				c-0.637-4.131-0.69-8.282-0.692-12.453C17.429,545.533,13.565,546.072,13.565,547.14L13.565,547.14z"/>
		</g>
	</g>
	<g>
		<g>
			<path fill="#5EC094" d="M184.301,438.516c7.153-2.355,0.266,13.162,0.148,15.919c-0.03,0.704,3.812,0.18,3.863-1.035
				c0.185-4.337,2.854-8.387,3.265-12.765c0.503-5.377-5.283-4.251-8.651-3.143C180.314,438.353,182.775,439.018,184.301,438.516
				L184.301,438.516z"/>
		</g>
	</g>
	<g>
		<g>
			<path fill="#5EC094" d="M183.062,467.591c1.357-0.331,3.068,0.254,4.373,0.62c0.855,0.24-0.549,4.851-0.712,5.489
				c-0.769,3.017-1.484,5.975-1.583,9.1c-0.016,0.483,3.83,0.02,3.863-1.035c0.157-4.974,1.971-9.651,2.768-14.529
				c-0.072-0.125-0.184-0.19-0.335-0.196c-2.96-0.94-5.638-1.245-8.657-0.507C180.52,467.084,180.818,468.14,183.062,467.591
				L183.062,467.591z"/>
		</g>
	</g>
	<g>
		<g>
			<path fill="#5EC094" d="M182.66,493.05c8.598-1.337,1.508,13.479,0.404,17.146c-0.417,1.387,3.469,0.84,3.865-0.479
				c1.867-6.204,8.824-20.786-3.748-18.831C181.327,491.175,179.991,493.465,182.66,493.05L182.66,493.05z"/>
		</g>
	</g>
	<g>
		<g>
			<path fill="#5EC094" d="M182.061,521.071c1.615,0,3.229,0,4.844,0c-0.588-0.304-1.176-0.607-1.764-0.911
				c0.456,5.562-1.98,10.811-2.794,16.229c-0.297,1.977,3.652,1.472,3.916-0.287c0.862-5.74,3.225-11.083,2.741-16.978
				c-0.063-0.778-1.209-0.911-1.764-0.911c-1.615,0-3.229,0-4.844,0C180.178,518.213,179.44,521.071,182.061,521.071
				L182.061,521.071z"/>
		</g>
	</g>
	<g>
		<g>
			<path fill="#5EC094" d="M182.615,546.845c6.862-0.785,0.585,10.975,0.45,14.132c-0.039,0.914,3.806,0.314,3.863-1.035
				c0.154-3.601,2.402-6.924,2.802-10.53c0.463-4.19-3.129-4.781-6.504-4.395C181.479,545.217,179.916,547.155,182.615,546.845
				L182.615,546.845z"/>
		</g>
	</g>
	<g>
		<g>
			<path fill="#5EC094" d="M197.594,439.214c0.632,4.121,0.881,8.666-0.026,12.771c-0.424,1.916,3.533,1.445,3.916-0.287
				c0.959-4.335,0.642-9.161-0.026-13.519C201.18,436.372,197.308,437.347,197.594,439.214L197.594,439.214z"/>
		</g>
	</g>
	<g>
		<g>
			<path fill="#5EC094" d="M196.188,470.123c1.086-0.511,1.524-0.805,1.839,0.482c0.294,1.199-0.055,2.603-0.304,3.778
				c-0.567,2.678-1.587,5.306-2.791,7.759c-0.793,1.613,1.841,1.449,2.64,1.126c1.191-0.482,2.745-0.408,4.016-0.411
				c0.912-0.002,2.043-0.251,2.53-1.126c0.44-0.787-0.373-1.409-1.12-1.407c-2.386,0.005-4.816,0.066-7.055,0.974
				c0.88,0.375,1.76,0.751,2.64,1.126c1.706-3.473,3.354-7.549,3.421-11.462c0.078-4.553-4.297-4.291-7.444-2.81
				C192.148,469.287,194.326,471,196.188,470.123L196.188,470.123z"/>
		</g>
	</g>
	<g>
		<g>
			<path fill="#5EC094" d="M195.157,493.904c1.197-0.201,2.145,0.454,2.846,1.376c1.373,1.808-1.007,4.151-2.137,5.237
				c-0.429,0.412-0.549,1.159,0.07,1.472c3.752,1.891,3.457,5.63-1.236,5.331c-1.681-0.107-4.04,2.337-1.42,2.504
				c2.951,0.188,6.875-0.401,8.627-3.149c1.885-2.956-0.255-5.382-2.945-6.738c0.023,0.491,0.047,0.981,0.07,1.472
				c2.194-2.108,4.15-4.73,2.533-7.735c-1.045-1.94-3.996-2.589-5.975-2.257C193.62,491.747,192.517,494.347,195.157,493.904
				L195.157,493.904z"/>
		</g>
	</g>
	<g>
		<g>
			<path fill="#5EC094" d="M192.756,521.978c-0.744,1.814-0.061,3.911-0.005,5.791c0.013,0.453,0.888,0.513,1.164,0.518
				c2.897,0.049,5.764,0.68,8.618-0.139c0.503-0.145,1.9-0.636,1.691-1.414c-0.205-0.767-1.67-0.522-2.172-0.379
				c-2.063,0.592-4.489-0.103-6.603-0.139c0.388,0.173,0.776,0.345,1.164,0.518c-0.051-1.727-0.687-3.614-0.005-5.277
				C197.078,520.314,193.252,520.767,192.756,521.978L192.756,521.978z"/>
		</g>
	</g>
	<g>
		<g>
			<path fill="#5EC094" d="M196.902,520.851c0.762,4.21,0.673,8.54,0.674,12.803c0,1.915,3.899,1.24,3.898-0.352
				c-0.001-4.481,0.093-9.06-0.709-13.486C200.466,518.161,196.592,519.136,196.902,520.851L196.902,520.851z"/>
		</g>
	</g>
	<g>
		<g>
			<path fill="#5EC094" d="M193.923,549.072c2.075,0,4.15,0,6.226,0c0.866,0,2.019-0.294,2.554-1.042
				c0.532-0.744-0.448-1.087-1.034-1.087c-2.075,0-4.15,0-6.226,0c-0.866,0-2.019,0.294-2.554,1.042
				C192.356,548.729,193.337,549.072,193.923,549.072L193.923,549.072z"/>
		</g>
	</g>
	<g>
		<g>
			<path fill="#5EC094" d="M193.411,548.134c0.104,1.631,0.633,3.21,0.692,4.843c0.036,0.977,0.895,1.427,1.811,1.359
				c1.411-0.105,2.745-0.589,4.15-0.692c-0.593-0.323-1.187-0.646-1.779-0.969c0.127,1.026,0.3,2.445-0.334,3.361
				c-0.471,0.679-1.977,0.283-2.617,0.188c-1.984-0.296-3.898,2.55-1.303,2.938c2.251,0.336,4.512,0.259,6.416-1.114
				c2.022-1.459,1.973-4.21,1.701-6.407c-0.094-0.76-1.177-1.013-1.779-0.969c-1.411,0.105-2.745,0.589-4.15,0.692
				c0.604,0.453,1.207,0.906,1.811,1.359c-0.061-1.644-0.59-3.218-0.692-4.843C197.202,545.774,193.296,546.318,193.411,548.134
				L193.411,548.134z"/>
		</g>
	</g>
	<g>
		<g>
			<path fill="#5EC094" d="M23.562,470.307c5.547-0.973,3.934,4.832,1.436,7.434c-0.373,0.388-0.614,1.098,0.045,1.378
				c2.025,0.859,4.159,0.888,6.331,0.891c0.893,0.001,2.035-0.27,2.541-1.092c0.476-0.775-0.401-1.278-1.085-1.279
				c-1.554-0.002-3.277,0.126-4.739-0.494c0.015,0.459,0.03,0.919,0.045,1.378c1.93-2.009,3.627-4.731,3.099-7.634
				c-0.586-3.221-4.707-3.357-7.199-2.921c-0.762,0.134-1.992,0.471-2.176,1.385C21.684,470.225,22.982,470.409,23.562,470.307
				L23.562,470.307z"/>
		</g>
	</g>
	<g>
		<g>
			<path fill="#5EC094" d="M24.493,491.45c-0.405,0.159-0.806,0.316-1.158,0.578c-0.125,0.094-0.557,0.395-0.437,0.633
				c0.704,1.406,6.385,0.199,7.693,0.156c-0.226-0.321-0.451-0.643-0.677-0.964c-1.767,1.153-2.99,2.844-4.416,4.37
				c-0.269,0.288-0.201,0.575,0.184,0.687c2.474,0.721,4.306,2.194,4.598,4.861c0.333,3.047-2.404,5.379-5.244,5.263
				c-0.894-0.037-4.45,1.612-2.475,1.693c4.378,0.181,9.575-1.276,11.288-5.758c0.705-1.843,0.168-3.745-0.941-5.273
				c-0.628-0.865-1.701-1.526-2.685-1.902c-1.527-0.582,1.839-3.161,2.681-3.71c0.971-0.634,0.026-0.987-0.677-0.964
				c-0.918,0.03-1.835,0.117-2.751,0.178c-0.557,0.037-1.113,0.066-1.669,0.095c-0.329,0.016-0.657,0.026-0.986,0.032
				c-0.576-0.108-0.893,0.246-0.948,1.062C28.424,491.485,26.02,490.851,24.493,491.45L24.493,491.45z"/>
		</g>
	</g>
	<g>
		<g>
			<path fill="#5EC094" d="M26.407,519.34c0.005-0.002,0.01-0.004,0.015-0.006c-0.697,0.309-1.394,0.617-2.09,0.927
				c0.019-0.003,0.038-0.005,0.056-0.008c-0.496-0.053-0.992-0.104-1.488-0.157c0.158,0.22-0.103,1.608-0.137,1.974
				c-0.069,0.745-0.176,1.491-0.202,2.24c0.068,0.161,0.189,0.263,0.364,0.305c3.576,0.821,7.192,0.74,10.76-0.079
				c0.414-0.096,1.914-0.583,1.732-1.261c-0.187-0.697-1.714-0.321-2.131-0.226c-1.518,0.35-3.072,0.406-4.622,0.313
				c-0.606-0.036-1.207-0.128-1.806-0.222c-0.6-0.094-0.422-0.096-0.36-0.711c0.098-0.97,0.635-2.876,0.022-3.728
				c-0.253-0.351-1.161-0.199-1.488-0.157c-0.979,0.128-1.953,0.521-2.455,1.398c-0.4,0.699,1.391,0.584,1.594,0.552
				C24.95,520.373,25.986,520.076,26.407,519.34L26.407,519.34z"/>
		</g>
	</g>
	<g>
		<g>
			<path fill="#5EC094" d="M29.59,519.526c-0.993,1.346-1.068,3.666-1.248,5.248c-0.292,2.578-0.299,5.334,0.443,7.838
				c0.455,1.537,4.312,0.479,3.863-1.035c-0.696-2.353-0.647-4.788-0.421-7.209c0.124-1.326,0.173-3.488,1-4.609
				C34.363,518.22,30.431,518.388,29.59,519.526L29.59,519.526z"/>
		</g>
	</g>
	<g>
		<g>
			<path fill="#5EC094" d="M26.704,548.914c1-0.912,2.562-1.112,3.84-0.737c0.89,0.261,1.925,0.028,2.722-0.414
				c0.387-0.214,1.292-1.045,0.392-1.309c-3.147-0.923-7.524-0.227-9.997,2.03c-0.555,0.507-0.513,1.045,0.311,1.161
				C24.827,549.766,26.05,549.51,26.704,548.914L26.704,548.914z"/>
		</g>
	</g>
	<g>
		<g>
			<path fill="#5EC094" d="M25.73,547.49c0.004-0.164-0.027-0.396,0.063-0.544c-0.918,0.356-1.836,0.714-2.755,1.07
				c0.017-0.001,0.033-0.002,0.049-0.003c-0.324-0.024-0.647-0.048-0.971-0.072c0.761,0.723,0.908,3.032,1.134,4.042
				c0.162,0.727,2.691-0.19,3.027-0.331c2.297-0.962,4.933-0.057,5.336,2.598c0.154,1.014-0.226,1.987-0.845,2.772
				c-0.148,0.188-0.357,0.338-0.544,0.484c-0.389,0.303,0.679-0.035,0.029-0.009c-0.943,0.037-1.892-0.234-2.781-0.514
				c-0.777-0.243-1.997,0.213-2.693,0.522c-0.355,0.158-1.288,0.649-0.503,0.896c3.713,1.164,10.808,0.482,11.224-4.53
				c0.145-1.754-1.11-3.228-2.686-3.794c-2.781-0.999-6.15,0.122-8.727,1.201c1.009-0.11,2.018-0.221,3.027-0.331
				c-0.296-1.327-0.546-2.763-1.119-4.002c-0.33-0.714-1.698-0.303-2.241-0.157c-1.096,0.293-1.862,0.572-1.888,1.736
				C21.856,549.001,25.708,548.526,25.73,547.49L25.73,547.49z"/>
		</g>
	</g>
	<g>
		<g>
			<path fill="#898989" d="M85.16,440.121c-4.136-1.51-9.071-0.879-12.029,2.607c-0.911,1.072-1.358,2.649-0.836,3.991
				c0.68,1.746,2.681,2.501,4.362,2.86c4.257,0.909,12.143,0.228,13.904-4.657c0.593-1.646-0.538-3.304-1.852-4.183
				c-2.216-1.481-5.021-1.616-7.597-1.47c-0.736,0.043-2.001,0.519-2.186,1.35c-0.2,0.901,1.153,0.923,1.686,0.893
				c2.035-0.117,6.516,0.456,6.174,3.457c-0.356,3.126-6.068,2.803-8.113,2.366c-1.939-0.414-3.429-2.012-2.298-3.955
				c1.188-2.042,3.733-2.063,5.724-1.336c0.903,0.329,1.928,0.169,2.741-0.343C85.302,441.411,86.066,440.452,85.16,440.121
				L85.16,440.121z"/>
		</g>
	</g>
	<g>
		<path fill="#5EC094" d="M127.85,442.398c-8.303,0,1.383,11.761,9.686,2.075c-2.768-3.458-6.919-4.151-11.07-3.458"/>
		<g>
			<path fill="#898989" d="M128.611,441.336c-1.9,0.053-4.579,0.425-5.592,2.305c-0.854,1.587,0.419,3.239,1.65,4.172
				c4.769,3.615,11.197,0.539,14.66-3.318c0.205-0.229,0.195-0.544,0.003-0.768c-3.202-3.737-7.933-4.438-12.593-3.743
				c-0.716,0.106-1.982,0.451-2.203,1.284c-0.222,0.836,1.193,0.848,1.655,0.778c3.732-0.557,7.033,0.238,9.547,3.173
				c0.001-0.256,0.002-0.512,0.003-0.768c-2.027,2.259-4.678,3.754-7.479,1.87c-0.669-0.45-1.241-1.077-1.533-1.831
				c-0.114-0.294-0.126-0.571-0.063-0.875c0.064-0.312-0.374-0.134,0.422-0.156c0.874-0.024,2.008-0.28,2.554-1.04
				C130.17,441.685,129.201,441.32,128.611,441.336L128.611,441.336z"/>
		</g>
	</g>
	<g>
		<g>
			<path fill="#898989" d="M159.916,441.349c-3.427-1.642-8.1-1.745-11.176,0.814c-1.919,1.596-2.198,3.588-0.135,5.182
				c4.831,3.731,13.94,1.127,16.233-4.319c0.065-0.122,0.04-0.22-0.079-0.293c-2.181-1.986-4.645-2.18-7.481-2.186
				c-0.92-0.002-1.94,0.258-2.732,0.732c-0.617,0.369-0.526,0.777,0.209,0.779c1.616,0.004,3.143,0.012,4.645,0.688
				c1.883,0.848,1.372,2.019,0.25,3.28c-1.477,1.659-3.37,1.56-5.359,1.019c-1.358-0.369-2.85-1.248-3.293-2.653
				c-0.231-0.734,0.144-1.487,0.622-2.027c1.177-1.33,3.374-0.336,4.648,0.274c0.708,0.34,1.798-0.01,2.48-0.252
				C158.851,442.352,160.519,441.638,159.916,441.349L159.916,441.349z"/>
		</g>
	</g>
	<g>
		<g>
			<path fill="#898989" d="M56.719,439.136c-2.686,0.018-8.987,0.419-9.011,4.362c-0.018,2.899,3.435,4.842,5.765,5.712
				c3.29,1.229,7.357,1.014,9.946-1.57c1.622-1.619,2.712-4.249,1.043-6.206c-1.658-1.944-4.677-2.265-7.051-2.298
				c-0.844-0.012-2.019,0.65-2.128,1.562c-0.123,1.02,1.032,1.257,1.786,1.268c1.337,0.019,3.096,0.278,4.017,1.357
				c0.965,1.132-0.374,2.783-1.171,3.358c-0.25,0.181-0.449,0.233-0.804,0.327c-0.065,0.018-0.903,0.101-1.101,0.09
				c-1.105-0.058-1.984-0.331-3.054-0.796c-0.797-0.347-1.627-0.914-2.323-1.535c-0.507-0.45-0.904-1.07-1.014-1.696
				c0.054,0.309,0.016-0.116,0.03-0.215c0.029-0.21-0.093,0.164,0.09-0.183c-0.222,0.422,0.328-0.262-0.044,0.061
				c0.36-0.312-0.05-0.029,0.433-0.255c0.215-0.101,0.062-0.038,0.493-0.159c0.241-0.068,0.492-0.125,0.739-0.164
				c0.997-0.155,2.012-0.184,3.019-0.19c0.846-0.006,2.018-0.638,2.128-1.562C58.626,439.395,57.475,439.131,56.719,439.136
				L56.719,439.136z"/>
		</g>
	</g>
	<g>
		<g>
			<path fill="#898989" d="M106.982,441.212c-2.314-0.439-4.725-0.509-6.972,0.292c-1.245,0.443-2.889,1.352-2.986,2.848
				c-0.242,3.735,5.717,4.441,8.242,4.414c2.657-0.029,5.461-0.599,7.842-1.794c1.241-0.623,2.676-1.825,2.304-3.376
				c-0.338-1.411-2.053-2.239-3.275-2.675c-2.137-0.762-4.545-0.75-6.756-0.376c-0.683,0.115-1.964,0.416-2.228,1.192
				c-0.262,0.771,1.264,0.675,1.611,0.616c2.2-0.372,5.129-0.115,6.587,1.817c1.714,2.271-3.591,2.668-4.504,2.698
				c-1.985,0.067-5.105-0.495-5.876-2.673c-0.112-0.315-0.114-0.603-0.021-0.918c0.08-0.269,0.378-0.494,0.269-0.43
				c0.448-0.268-0.48,0.125,0.116-0.033c-0.309,0.082,0.455-0.034,0.423-0.032c0.937-0.05,1.875,0.111,2.792,0.286
				c0.875,0.166,2.038-0.202,2.732-0.732C107.932,441.842,107.721,441.353,106.982,441.212L106.982,441.212z"/>
		</g>
	</g>
	<g>
		<g>
			<path fill="#898989" d="M127.441,475.853c4.136,1.51,9.071,0.879,12.029-2.607c0.911-1.072,1.358-2.649,0.836-3.991
				c-0.679-1.746-2.68-2.501-4.362-2.86c-4.256-0.909-12.142-0.228-13.904,4.657c-0.594,1.646,0.538,3.304,1.851,4.183
				c2.216,1.481,5.021,1.616,7.597,1.47c0.736-0.043,2.001-0.519,2.186-1.35c0.2-0.901-1.153-0.923-1.686-0.893
				c-2.035,0.117-6.516-0.456-6.174-3.457c0.356-3.126,6.069-2.803,8.113-2.366c1.94,0.414,3.429,2.012,2.298,3.955
				c-1.188,2.042-3.733,2.063-5.724,1.336c-0.903-0.329-1.928-0.169-2.741,0.343C127.299,474.563,126.535,475.522,127.441,475.853
				L127.441,475.853z"/>
		</g>
	</g>
	<g>
		<g>
			<path fill="#898989" d="M84.563,474.93c1.871-0.052,4.417-0.64,5.138-2.635c0.619-1.71-0.567-3.217-1.8-4.269
				c-4.526-3.862-11.071-0.81-14.442,2.947c-0.322,0.358-0.524,0.945-0.168,1.361c3.227,3.766,7.909,4.687,12.656,3.978
				c0.828-0.123,2.005-0.534,2.14-1.518c0.127-0.924-1.044-1.3-1.765-1.191c-3.651,0.544-6.989-0.025-9.485-2.938
				c-0.056,0.454-0.112,0.908-0.168,1.361c2.034-2.267,4.759-3.965,7.679-2.23c0.733,0.436,1.356,1.096,1.589,1.924
				c0.205,0.726-0.3,0.481-1,0.501C82.784,472.281,81.927,475.004,84.563,474.93L84.563,474.93z"/>
		</g>
	</g>
	<g>
		<g>
			<path fill="#898989" d="M52.685,474.625c3.427,1.642,8.1,1.745,11.176-0.814c1.919-1.596,2.198-3.588,0.135-5.182
				c-4.831-3.731-13.94-1.127-16.233,4.319c-0.065,0.122-0.04,0.22,0.079,0.293c2.181,1.986,4.645,2.18,7.481,2.186
				c0.92,0.002,1.94-0.258,2.732-0.732c0.617-0.369,0.526-0.777-0.209-0.779c-1.616-0.004-3.143-0.012-4.645-0.688
				c-1.883-0.848-1.373-2.019-0.25-3.28c1.477-1.659,3.37-1.56,5.359-1.019c1.358,0.369,2.85,1.248,3.293,2.653
				c0.231,0.734-0.144,1.487-0.622,2.027c-1.177,1.33-3.374,0.336-4.648-0.274c-0.708-0.34-1.798,0.01-2.48,0.252
				C53.75,473.622,52.082,474.335,52.685,474.625L52.685,474.625z"/>
		</g>
	</g>
	<g>
		<g>
			<path fill="#898989" d="M155.882,476.837c2.686-0.018,8.986-0.419,9.011-4.362c0.018-2.899-3.435-4.842-5.765-5.712
				c-3.29-1.229-7.356-1.014-9.946,1.57c-1.622,1.619-2.712,4.249-1.043,6.206c1.658,1.943,4.677,2.265,7.051,2.298
				c0.844,0.012,2.019-0.65,2.128-1.562c0.123-1.02-1.032-1.257-1.786-1.268c-1.337-0.019-3.096-0.278-4.017-1.357
				c-0.965-1.132,0.374-2.783,1.171-3.358c0.25-0.181,0.449-0.233,0.804-0.327c0.065-0.018,0.903-0.101,1.101-0.09
				c1.105,0.058,1.984,0.331,3.054,0.796c0.797,0.347,1.627,0.914,2.323,1.535c0.507,0.45,0.904,1.07,1.014,1.696
				c-0.054-0.309-0.016,0.116-0.03,0.215c-0.029,0.21,0.093-0.164-0.089,0.183c0.222-0.422-0.329,0.262,0.044-0.061
				c-0.36,0.312,0.05,0.029-0.432,0.255c-0.216,0.102-0.062,0.038-0.493,0.159c-0.241,0.068-0.492,0.125-0.739,0.164
				c-0.997,0.155-2.012,0.184-3.019,0.19c-0.846,0.006-2.018,0.638-2.128,1.562C153.975,476.579,155.126,476.842,155.882,476.837
				L155.882,476.837z"/>
		</g>
	</g>
	<g>
		<path fill="#5EC094" d="M106.834,473.833c10.378,2.076,8.302-6.918-2.075-5.535c-10.377,1.384-4.843,7.611,2.768,6.227"/>
		<g>
			<path fill="#898989" d="M105.26,474.629c2.25,0.428,4.577,0.59,6.797-0.096c1.34-0.413,3.279-1.204,3.503-2.812
				c0.181-1.295-0.8-2.35-1.807-3.012c-1.75-1.149-4.016-1.44-6.061-1.418c-2.764,0.03-5.692,0.551-8.177,1.798
				c-1.215,0.61-2.698,1.743-2.328,3.288c0.336,1.402,2.054,2.193,3.262,2.624c2.13,0.759,4.546,0.7,6.743,0.329
				c0.662-0.112,1.948-0.397,2.247-1.121c0.292-0.708-1.319-0.536-1.578-0.492c-2.064,0.349-5.271,0.103-6.573-1.851
				c-1.574-2.361,2.863-2.77,4.099-2.839c2.08-0.117,5.268,0.422,6.195,2.617c0.238,0.564,0.124,1.308-0.266,1.605
				c-0.276,0.211,0.059-0.008,0.178-0.045c-0.457,0.141,0.183,0.014-0.365,0.059c-0.903,0.075-1.834-0.061-2.72-0.229
				c-0.909-0.173-1.89,0.044-2.71,0.459C105.398,473.647,104.343,474.456,105.26,474.629L105.26,474.629z"/>
		</g>
	</g>
	<g>
		<g>
			<path fill="#898989" d="M85.16,493.912c-4.136-1.509-9.071-0.878-12.029,2.607c-0.911,1.073-1.358,2.65-0.836,3.992
				c0.68,1.746,2.681,2.501,4.362,2.859c4.257,0.909,12.143,0.228,13.904-4.657c0.593-1.646-0.538-3.304-1.852-4.183
				c-2.216-1.481-5.021-1.616-7.597-1.47c-0.736,0.043-2.001,0.52-2.186,1.35c-0.2,0.901,1.153,0.923,1.686,0.893
				c2.035-0.117,6.516,0.457,6.174,3.458c-0.356,3.125-6.068,2.803-8.113,2.366c-1.939-0.415-3.429-2.012-2.298-3.956
				c1.188-2.041,3.733-2.062,5.724-1.336c0.903,0.329,1.928,0.169,2.741-0.343C85.302,495.203,86.066,494.243,85.16,493.912
				L85.16,493.912z"/>
		</g>
	</g>
	<g>
		<g>
			<path fill="#898989" d="M128.038,494.834c-1.871,0.052-4.417,0.64-5.139,2.636c-0.618,1.709,0.567,3.217,1.8,4.269
				c4.526,3.862,11.071,0.809,14.442-2.948c0.322-0.358,0.524-0.945,0.168-1.361c-3.227-3.766-7.909-4.686-12.655-3.978
				c-0.828,0.123-2.005,0.534-2.14,1.518c-0.127,0.924,1.044,1.299,1.765,1.191c3.651-0.544,6.989,0.025,9.484,2.938
				c0.056-0.454,0.112-0.908,0.168-1.361c-2.034,2.267-4.759,3.966-7.679,2.231c-0.733-0.436-1.355-1.097-1.589-1.925
				c-0.205-0.726,0.301-0.481,1-0.501C129.817,497.484,130.674,494.76,128.038,494.834L128.038,494.834z"/>
		</g>
	</g>
	<g>
		<g>
			<path fill="#898989" d="M159.916,495.14c-3.427-1.642-8.1-1.745-11.176,0.814c-1.919,1.597-2.198,3.589-0.135,5.183
				c4.831,3.731,13.94,1.126,16.233-4.32c0.065-0.122,0.04-0.22-0.079-0.293c-2.181-1.986-4.645-2.18-7.481-2.186
				c-0.92-0.002-1.94,0.258-2.732,0.732c-0.617,0.369-0.526,0.777,0.209,0.779c1.616,0.004,3.143,0.012,4.645,0.688
				c1.883,0.848,1.372,2.019,0.25,3.28c-1.477,1.66-3.37,1.561-5.359,1.02c-1.358-0.37-2.85-1.249-3.293-2.653
				c-0.231-0.735,0.144-1.487,0.622-2.028c1.177-1.33,3.374-0.336,4.648,0.274c0.708,0.34,1.798-0.01,2.48-0.252
				C158.851,496.143,160.519,495.429,159.916,495.14L159.916,495.14z"/>
		</g>
	</g>
	<g>
		<path fill="#5EC094" d="M56.548,494.342c-15.913,0,0,12.453,5.534,6.227c3.459-4.151-0.691-6.227-4.843-6.227"/>
		<g>
			<path fill="#898989" d="M57.795,493.534c-2.376,0.016-4.784,0.198-7.023,1.056c-1.175,0.451-2.809,1.242-3.005,2.653
				c-0.358,2.579,3.11,4.386,5.048,5.148c3.271,1.288,7.486,0.917,10.29-1.28c1.518-1.188,2.975-3.545,1.68-5.364
				c-1.315-1.848-4.225-2.184-6.298-2.213c-0.928-0.013-1.946,0.223-2.732,0.732c-0.603,0.391-0.523,0.874,0.237,0.885
				c1.665,0.023,3.402,0.296,4.705,1.413c1.46,1.253,0.454,3.328-0.647,4.428c-0.306,0.305-0.642,0.477-0.713,0.503
				c0.156-0.059,0.071-0.024-0.083,0.001c0.204-0.034-0.381,0.004-0.467,0.002c-1.068-0.029-2.152-0.342-3.127-0.766
				c-1.568-0.683-3.488-1.882-3.991-3.629c-0.174-0.606,0.046-1.265,0.476-1.565c0.048-0.033,0.325-0.148,0.167-0.089
				c-0.365,0.141,0.465-0.112,0.326-0.085c0.872-0.175,1.777-0.207,2.664-0.213c0.936-0.006,1.936-0.216,2.732-0.732
				C58.624,494.036,58.564,493.529,57.795,493.534L57.795,493.534z"/>
		</g>
	</g>
	<g>
		<g>
			<path fill="#898989" d="M106.982,495.003c-2.314-0.439-4.725-0.508-6.972,0.292c-1.245,0.444-2.889,1.352-2.986,2.848
				c-0.242,3.735,5.717,4.441,8.242,4.414c2.657-0.029,5.461-0.599,7.842-1.794c1.241-0.623,2.676-1.825,2.304-3.376
				c-0.338-1.411-2.053-2.239-3.275-2.675c-2.137-0.762-4.545-0.749-6.756-0.376c-0.683,0.115-1.964,0.416-2.228,1.192
				c-0.262,0.771,1.264,0.675,1.611,0.616c2.2-0.371,5.129-0.115,6.587,1.818c1.714,2.271-3.591,2.667-4.504,2.697
				c-1.985,0.067-5.105-0.495-5.876-2.673c-0.112-0.315-0.114-0.602-0.021-0.917c0.08-0.27,0.378-0.495,0.269-0.43
				c0.448-0.269-0.48,0.124,0.116-0.033c-0.309,0.081,0.455-0.035,0.423-0.033c0.937-0.049,1.875,0.111,2.792,0.286
				c0.875,0.166,2.038-0.202,2.732-0.732C107.932,495.633,107.721,495.144,106.982,495.003L106.982,495.003z"/>
		</g>
	</g>
	<g>
		<g>
			<path fill="#898989" d="M127.441,529.644c4.136,1.51,9.071,0.879,12.029-2.607c0.911-1.072,1.358-2.649,0.836-3.991
				c-0.679-1.746-2.68-2.501-4.362-2.86c-4.256-0.909-12.143-0.228-13.904,4.657c-0.594,1.646,0.538,3.304,1.851,4.183
				c2.216,1.482,5.021,1.617,7.597,1.471c0.736-0.043,2.001-0.52,2.186-1.35c0.2-0.901-1.153-0.923-1.686-0.893
				c-2.035,0.117-6.516-0.457-6.174-3.458c0.356-3.126,6.068-2.803,8.113-2.366c1.94,0.414,3.429,2.012,2.298,3.955
				c-1.188,2.042-3.733,2.063-5.724,1.336c-0.903-0.329-1.928-0.169-2.741,0.343C127.299,528.354,126.535,529.313,127.441,529.644
				L127.441,529.644z"/>
		</g>
	</g>
	<g>
		<g>
			<path fill="#898989" d="M84.563,528.721c1.871-0.052,4.417-0.64,5.138-2.635c0.619-1.71-0.567-3.217-1.8-4.269
				c-4.526-3.862-11.071-0.81-14.442,2.947c-0.322,0.358-0.524,0.945-0.168,1.361c3.227,3.767,7.909,4.687,12.656,3.979
				c0.828-0.123,2.005-0.534,2.14-1.518c0.127-0.924-1.044-1.299-1.765-1.191c-3.651,0.544-6.989-0.026-9.485-2.939
				c-0.056,0.454-0.112,0.908-0.168,1.361c2.034-2.267,4.759-3.965,7.679-2.23c0.733,0.436,1.356,1.096,1.589,1.924
				c0.205,0.726-0.3,0.481-1,0.501C82.784,526.072,81.927,528.795,84.563,528.721L84.563,528.721z"/>
		</g>
	</g>
	<g>
		<g>
			<path fill="#898989" d="M52.685,528.416c3.426,1.644,8.1,1.744,11.176-0.814c1.919-1.596,2.198-3.588,0.135-5.182
				c-4.831-3.731-13.94-1.126-16.233,4.32c-0.065,0.122-0.04,0.22,0.079,0.293c2.181,1.986,4.645,2.18,7.481,2.186
				c0.92,0.002,1.94-0.258,2.732-0.732c0.617-0.369,0.526-0.777-0.209-0.779c-1.616-0.004-3.143-0.012-4.645-0.688
				c-1.883-0.848-1.373-2.019-0.25-3.28c1.477-1.66,3.37-1.561,5.359-1.02c1.358,0.369,2.85,1.248,3.293,2.653
				c0.231,0.734-0.144,1.487-0.622,2.027c-1.178,1.33-3.374,0.337-4.648-0.274c-0.708-0.34-1.798,0.011-2.48,0.252
				C53.75,527.413,52.082,528.126,52.685,528.416L52.685,528.416z"/>
		</g>
	</g>
	<g>
		<path fill="#5EC094" d="M156.053,529.213c15.912,0,0-12.452-5.535-6.227c-3.459,4.151,0.692,6.227,4.843,6.227"/>
		<g>
			<path fill="#898989" d="M155.261,530.157c2.283-0.015,4.663-0.208,6.788-1.107c1.173-0.497,2.703-1.378,2.805-2.809
				c0.188-2.637-3.228-4.463-5.279-5.229c-3.251-1.214-7.424-0.955-10.145,1.357c-1.631,1.386-2.868,3.694-1.488,5.632
				c1.342,1.886,4.557,2.127,6.627,2.156c0.837,0.012,2.008-0.327,2.567-0.991c0.594-0.707-0.509-0.889-0.982-0.896
				c-1.573-0.021-3.289-0.354-4.439-1.5c-1.215-1.211-0.174-3.234,0.896-4.144c0.2-0.17,0.271-0.209,0.443-0.305
				c0.087-0.048,0.357-0.127,0.11-0.052c0.161-0.049,0.431-0.108,0.88-0.085c1.102,0.058,2.15,0.382,3.155,0.819
				c1.494,0.649,3.368,1.872,3.763,3.569c0.067,0.291,0.035,0.532-0.066,0.812c-0.109,0.305-0.302,0.405-0.397,0.459
				c-0.079,0.046-0.289,0.115-0.153,0.072c-0.273,0.086-0.44,0.12-0.688,0.164c-0.928,0.165-1.872,0.184-2.812,0.189
				c-0.845,0.006-2,0.317-2.567,0.991C153.689,529.962,154.782,530.16,155.261,530.157L155.261,530.157z"/>
		</g>
	</g>
	<g>
		<g>
			<path fill="#898989" d="M105.619,528.552c2.314,0.439,4.725,0.509,6.972-0.292c1.245-0.443,2.888-1.352,2.985-2.848
				c0.242-3.735-5.716-4.441-8.242-4.413c-2.658,0.029-5.461,0.599-7.843,1.794c-1.241,0.622-2.676,1.825-2.304,3.376
				c0.339,1.41,2.053,2.238,3.276,2.674c2.137,0.762,4.545,0.75,6.755,0.376c0.683-0.115,1.964-0.416,2.228-1.192
				c0.262-0.771-1.264-0.675-1.611-0.616c-2.2,0.372-5.128,0.115-6.587-1.817c-1.714-2.271,3.592-2.667,4.505-2.697
				c1.985-0.068,5.105,0.494,5.876,2.672c0.112,0.315,0.114,0.603,0.02,0.918c-0.08,0.269-0.377,0.494-0.268,0.43
				c-0.449,0.268,0.48-0.125-0.116,0.033c0.309-0.082-0.455,0.034-0.423,0.032c-0.937,0.05-1.875-0.111-2.792-0.286
				c-0.875-0.166-2.038,0.202-2.732,0.732C104.669,527.922,104.88,528.412,105.619,528.552L105.619,528.552z"/>
		</g>
	</g>
	<g>
		<g>
			<path fill="#898989" d="M85.16,547.704c-4.136-1.51-9.071-0.879-12.029,2.607c-0.911,1.072-1.358,2.649-0.836,3.991
				c0.68,1.746,2.681,2.501,4.362,2.86c4.257,0.909,12.143,0.227,13.904-4.657c0.593-1.646-0.538-3.305-1.852-4.184
				c-2.216-1.481-5.021-1.616-7.597-1.47c-0.736,0.043-2.001,0.52-2.186,1.35c-0.2,0.901,1.153,0.923,1.686,0.893
				c2.035-0.117,6.516,0.457,6.174,3.458c-0.356,3.126-6.068,2.803-8.113,2.366c-1.939-0.414-3.429-2.012-2.298-3.955
				c1.188-2.042,3.733-2.063,5.724-1.336c0.903,0.329,1.928,0.169,2.741-0.343C85.302,548.994,86.066,548.035,85.16,547.704
				L85.16,547.704z"/>
		</g>
	</g>
	<g>
		<g>
			<path fill="#898989" d="M128.038,548.626c-1.871,0.052-4.417,0.64-5.139,2.635c-0.618,1.71,0.567,3.217,1.8,4.269
				c4.526,3.862,11.071,0.81,14.442-2.947c0.322-0.358,0.524-0.945,0.168-1.361c-3.226-3.767-7.909-4.687-12.655-3.979
				c-0.828,0.123-2.005,0.534-2.14,1.518c-0.127,0.924,1.044,1.299,1.765,1.191c3.651-0.544,6.989,0.026,9.484,2.939
				c0.056-0.454,0.112-0.908,0.168-1.361c-2.034,2.267-4.759,3.965-7.679,2.23c-0.733-0.436-1.355-1.097-1.589-1.924
				c-0.205-0.726,0.301-0.481,1-0.501C129.817,551.276,130.674,548.552,128.038,548.626L128.038,548.626z"/>
		</g>
	</g>
	<g>
		<g>
			<path fill="#898989" d="M159.916,548.931c-3.426-1.642-8.101-1.745-11.176,0.814c-1.919,1.597-2.198,3.589-0.135,5.183
				c4.831,3.731,13.94,1.126,16.233-4.32c0.065-0.122,0.04-0.22-0.079-0.293c-2.181-1.986-4.645-2.18-7.481-2.186
				c-0.92-0.002-1.94,0.258-2.732,0.732c-0.617,0.369-0.526,0.777,0.209,0.779c1.616,0.004,3.143,0.012,4.645,0.688
				c1.883,0.848,1.372,2.019,0.25,3.28c-1.477,1.66-3.37,1.561-5.359,1.02c-1.358-0.37-2.85-1.249-3.293-2.653
				c-0.231-0.735,0.144-1.487,0.622-2.028c1.177-1.329,3.374-0.336,4.648,0.274c0.708,0.34,1.798-0.01,2.48-0.252
				C158.851,549.934,160.519,549.22,159.916,548.931L159.916,548.931z"/>
		</g>
	</g>
	<g>
		<path fill="#5EC094" d="M56.548,548.134c-15.913,0,0,12.452,5.534,6.226c3.459-4.15-0.691-6.226-4.843-6.226"/>
		<g>
			<path fill="#898989" d="M57.812,547.39c-2.366,0.016-4.79,0.227-7.017,1.079c-1.194,0.458-2.837,1.192-3.038,2.636
				c-0.344,2.476,3.141,4.331,5.005,5.026c3.358,1.254,7.399,0.839,10.33-1.275c1.556-1.122,2.959-3.538,1.692-5.317
				c-1.307-1.836-4.237-2.12-6.281-2.148c-0.912-0.013-1.947,0.271-2.732,0.732c-0.629,0.37-0.521,0.746,0.203,0.756
				c1.668,0.023,3.415,0.338,4.715,1.453c1.463,1.255,0.483,3.387-0.628,4.497c-0.149,0.148-0.318,0.296-0.494,0.412
				c-0.019,0.013-0.473,0.233-0.208,0.133c0.318-0.12-0.271,0.021,0.202-0.043c-0.233,0.031-0.471,0.03-0.758,0.022
				c-1.075-0.029-2.16-0.381-3.138-0.806c-1.582-0.688-3.491-1.892-3.998-3.653c-0.2-0.693,0.049-1.299,0.604-1.729
				c0.085-0.065,0.22-0.091,0.017-0.013c0.572-0.219-0.388,0.06,0.326-0.085c0.874-0.176,1.783-0.184,2.67-0.189
				c0.921-0.006,1.936-0.264,2.732-0.732C58.633,547.783,58.545,547.385,57.812,547.39L57.812,547.39z"/>
		</g>
	</g>
	<g>
		<g>
			<path fill="#898989" d="M106.982,548.795c-2.314-0.439-4.725-0.509-6.972,0.292c-1.245,0.443-2.889,1.352-2.986,2.848
				c-0.242,3.735,5.717,4.441,8.242,4.413c2.657-0.029,5.461-0.599,7.842-1.794c1.241-0.623,2.676-1.825,2.304-3.376
				c-0.338-1.411-2.053-2.239-3.275-2.675c-2.137-0.762-4.545-0.749-6.756-0.376c-0.683,0.115-1.964,0.416-2.228,1.192
				c-0.262,0.771,1.264,0.675,1.611,0.616c2.2-0.371,5.129-0.115,6.587,1.818c1.714,2.271-3.591,2.667-4.504,2.697
				c-1.985,0.068-5.105-0.494-5.876-2.672c-0.112-0.315-0.114-0.603-0.021-0.918c0.08-0.269,0.378-0.494,0.269-0.43
				c0.448-0.268-0.48,0.125,0.116-0.033c-0.309,0.082,0.455-0.034,0.423-0.032c0.937-0.05,1.875,0.111,2.792,0.286
				c0.875,0.166,2.038-0.202,2.732-0.732C107.932,549.425,107.721,548.936,106.982,548.795L106.982,548.795z"/>
		</g>
	</g>
	<g>
		<g>
			<path fill="#898989" d="M296.884,556.534c4.136,1.51,9.07,0.879,12.029-2.607c0.911-1.072,1.358-2.649,0.837-3.991
				c-0.68-1.746-2.681-2.501-4.362-2.86c-4.257-0.909-12.143-0.227-13.904,4.657c-0.594,1.646,0.537,3.305,1.852,4.184
				c2.216,1.481,5.021,1.616,7.597,1.47c0.736-0.043,2.001-0.52,2.186-1.35c0.2-0.901-1.153-0.923-1.686-0.893
				c-2.035,0.117-6.516-0.457-6.174-3.458c0.356-3.126,6.068-2.803,8.113-2.366c1.939,0.414,3.429,2.012,2.298,3.955
				c-1.188,2.042-3.733,2.063-5.725,1.336c-0.903-0.329-1.928-0.169-2.741,0.343C296.741,555.244,295.978,556.203,296.884,556.534
				L296.884,556.534z"/>
		</g>
	</g>
	<g>
		<g>
			<path fill="#898989" d="M254.011,555.611c1.87-0.052,4.416-0.64,5.138-2.635c0.619-1.71-0.566-3.217-1.799-4.269
				c-4.525-3.863-11.069-0.81-14.44,2.947c-0.321,0.358-0.523,0.945-0.167,1.361c3.225,3.767,7.906,4.687,12.652,3.979
				c0.828-0.123,2.005-0.534,2.141-1.518c0.127-0.924-1.045-1.299-1.766-1.191c-3.65,0.544-6.987-0.026-9.482-2.939
				c-0.056,0.454-0.111,0.908-0.167,1.361c2.033-2.266,4.757-3.965,7.677-2.23c0.732,0.436,1.354,1.097,1.589,1.924
				c0.204,0.726-0.301,0.481-1,0.501C252.231,552.961,251.374,555.685,254.011,555.611L254.011,555.611z"/>
		</g>
	</g>
	<g>
		<g>
			<path fill="#898989" d="M222.137,555.305c3.426,1.643,8.099,1.744,11.174-0.814c1.919-1.596,2.199-3.588,0.136-5.182
				c-4.83-3.731-13.939-1.125-16.231,4.32c-0.065,0.122-0.039,0.22,0.079,0.293c2.181,1.986,4.644,2.18,7.479,2.186
				c0.92,0.002,1.94-0.258,2.732-0.732c0.617-0.369,0.526-0.777-0.209-0.779c-1.616-0.004-3.143-0.012-4.644-0.688
				c-1.884-0.848-1.373-2.019-0.25-3.28c1.476-1.66,3.368-1.561,5.357-1.02c1.357,0.369,2.85,1.248,3.292,2.653
				c0.231,0.734-0.144,1.487-0.622,2.027c-1.177,1.33-3.372,0.337-4.647-0.274c-0.707-0.34-1.798,0.011-2.479,0.252
				C223.201,554.302,221.533,555.016,222.137,555.305L222.137,555.305z"/>
		</g>
	</g>
	<g>
		<g>
			<path fill="#898989" d="M325.325,557.518c2.686-0.018,8.986-0.418,9.011-4.362c0.018-2.898-3.436-4.842-5.766-5.712
				c-3.289-1.228-7.356-1.013-9.946,1.571c-1.622,1.619-2.711,4.248-1.042,6.205c1.657,1.944,4.677,2.265,7.051,2.298
				c0.844,0.012,2.019-0.65,2.128-1.562c0.123-1.02-1.032-1.257-1.786-1.268c-1.337-0.019-3.095-0.278-4.016-1.357
				c-0.966-1.132,0.373-2.782,1.171-3.357c0.25-0.181,0.448-0.233,0.804-0.327c0.065-0.018,0.903-0.101,1.102-0.091
				c1.104,0.058,1.983,0.331,3.054,0.797c0.797,0.347,1.626,0.914,2.323,1.534c0.506,0.451,0.903,1.071,1.014,1.697
				c-0.055-0.31-0.016,0.116-0.029,0.214c-0.029,0.21,0.093-0.164-0.09,0.183c0.222-0.422-0.328,0.262,0.044-0.061
				c-0.36,0.312,0.051,0.03-0.433,0.256c-0.215,0.101-0.062,0.037-0.492,0.158c-0.241,0.068-0.492,0.125-0.739,0.164
				c-0.997,0.155-2.013,0.184-3.02,0.19c-0.846,0.006-2.017,0.638-2.128,1.562C323.418,557.259,324.569,557.523,325.325,557.518
				L325.325,557.518z"/>
		</g>
	</g>
	<g>
		<g>
			<path fill="#898989" d="M275.062,555.442c2.314,0.439,4.726,0.509,6.972-0.292c1.245-0.443,2.889-1.352,2.986-2.848
				c0.242-3.734-5.716-4.441-8.241-4.413c-2.657,0.029-5.461,0.599-7.843,1.794c-1.24,0.622-2.676,1.825-2.304,3.376
				c0.339,1.41,2.054,2.238,3.275,2.675c2.138,0.762,4.545,0.749,6.756,0.376c0.683-0.115,1.964-0.416,2.228-1.192
				c0.261-0.771-1.264-0.675-1.612-0.616c-2.199,0.371-5.128,0.114-6.586-1.818c-1.715-2.271,3.59-2.667,4.504-2.697
				c1.985-0.068,5.104,0.494,5.875,2.672c0.111,0.315,0.114,0.603,0.02,0.918c-0.079,0.269-0.377,0.494-0.268,0.43
				c-0.448,0.268,0.479-0.125-0.116,0.033c0.309-0.082-0.455,0.034-0.423,0.032c-0.937,0.05-1.875-0.111-2.791-0.286
				c-0.875-0.166-2.038,0.202-2.732,0.732C274.112,554.812,274.323,555.301,275.062,555.442L275.062,555.442z"/>
		</g>
	</g>
	<g>
		<g>
			<path fill="#898989" d="M254.606,520.801c-4.136-1.509-9.069-0.878-12.027,2.607c-0.911,1.073-1.358,2.65-0.836,3.992
				c0.679,1.746,2.68,2.501,4.361,2.86c4.257,0.909,12.142,0.227,13.902-4.657c0.594-1.646-0.537-3.305-1.851-4.184
				c-2.216-1.481-5.021-1.616-7.597-1.47c-0.736,0.043-2.001,0.52-2.186,1.35c-0.2,0.901,1.153,0.923,1.686,0.893
				c2.035-0.117,6.515,0.457,6.173,3.458c-0.355,3.125-6.066,2.803-8.111,2.366c-1.939-0.414-3.428-2.012-2.298-3.956
				c1.188-2.041,3.731-2.063,5.723-1.336c0.903,0.329,1.928,0.169,2.741-0.343C254.749,522.091,255.513,521.132,254.606,520.801
				L254.606,520.801z"/>
		</g>
	</g>
	<g>
		<g>
			<path fill="#898989" d="M297.48,521.725c-1.871,0.052-4.416,0.64-5.139,2.635c-0.618,1.71,0.567,3.217,1.8,4.269
				c4.526,3.863,11.07,0.81,14.442-2.947c0.321-0.358,0.523-0.945,0.167-1.361c-3.226-3.767-7.908-4.687-12.655-3.979
				c-0.828,0.123-2.005,0.534-2.141,1.518c-0.127,0.924,1.045,1.299,1.766,1.191c3.651-0.544,6.99,0.026,9.485,2.939
				c0.056-0.454,0.111-0.908,0.167-1.361c-2.034,2.266-4.759,3.965-7.679,2.23c-0.733-0.436-1.355-1.096-1.589-1.924
				c-0.204-0.726,0.301-0.481,1-0.501C299.26,524.375,300.117,521.651,297.48,521.725L297.48,521.725z"/>
		</g>
	</g>
	<g>
		<g>
			<path fill="#898989" d="M329.358,522.03c-3.427-1.642-8.1-1.745-11.175,0.814c-1.919,1.597-2.198,3.589-0.135,5.183
				c4.83,3.731,13.939,1.126,16.232-4.32c0.065-0.122,0.039-0.22-0.079-0.293c-2.181-1.986-4.645-2.18-7.48-2.186
				c-0.92-0.002-1.94,0.258-2.732,0.732c-0.617,0.369-0.526,0.777,0.209,0.779c1.616,0.004,3.143,0.012,4.645,0.688
				c1.884,0.848,1.372,2.019,0.25,3.28c-1.477,1.66-3.369,1.561-5.358,1.02c-1.358-0.37-2.851-1.249-3.293-2.653
				c-0.231-0.735,0.144-1.487,0.622-2.028c1.177-1.33,3.373-0.336,4.648,0.274c0.708,0.339,1.798-0.01,2.479-0.252
				C328.293,523.033,329.962,522.319,329.358,522.03L329.358,522.03z"/>
		</g>
	</g>
	<g>
		<g>
			<path fill="#898989" d="M226.169,519.818c-2.686,0.018-8.984,0.419-9.009,4.362c-0.018,2.898,3.434,4.842,5.764,5.712
				c3.289,1.228,7.356,1.013,9.945-1.571c1.621-1.619,2.712-4.249,1.043-6.205c-1.658-1.944-4.678-2.265-7.052-2.298
				c-0.844-0.012-2.019,0.65-2.128,1.562c-0.123,1.02,1.032,1.257,1.786,1.268c1.337,0.019,3.096,0.277,4.017,1.357
				c0.965,1.132-0.374,2.782-1.171,3.357c-0.251,0.181-0.449,0.233-0.805,0.327c-0.064,0.018-0.903,0.101-1.101,0.091
				c-1.104-0.058-1.983-0.331-3.053-0.797c-0.797-0.346-1.627-0.914-2.323-1.534c-0.506-0.451-0.903-1.071-1.014-1.697
				c0.055,0.31,0.017-0.116,0.03-0.214c0.029-0.21-0.093,0.164,0.089-0.183c-0.222,0.422,0.329-0.262-0.044,0.061
				c0.36-0.312-0.051-0.029,0.433-0.255c0.215-0.102,0.062-0.038,0.492-0.159c0.241-0.068,0.492-0.125,0.739-0.164
				c0.996-0.155,2.012-0.184,3.019-0.19c0.846-0.006,2.017-0.638,2.128-1.562C228.076,520.077,226.925,519.813,226.169,519.818
				L226.169,519.818z"/>
		</g>
	</g>
	<g>
		<g>
			<path fill="#898989" d="M276.427,521.894c-2.314-0.439-4.725-0.509-6.972,0.292c-1.245,0.443-2.888,1.352-2.985,2.848
				c-0.242,3.734,5.716,4.441,8.24,4.413c2.657-0.029,5.461-0.599,7.843-1.794c1.24-0.623,2.676-1.825,2.304-3.376
				c-0.339-1.411-2.054-2.239-3.275-2.675c-2.138-0.762-4.545-0.749-6.756-0.376c-0.683,0.115-1.964,0.416-2.228,1.192
				c-0.261,0.771,1.264,0.675,1.612,0.616c2.199-0.371,5.128-0.114,6.586,1.818c1.715,2.271-3.59,2.667-4.504,2.697
				c-1.984,0.068-5.104-0.495-5.874-2.672c-0.112-0.315-0.114-0.603-0.021-0.918c0.08-0.269,0.378-0.495,0.269-0.43
				c0.448-0.268-0.48,0.125,0.115-0.033c-0.309,0.082,0.455-0.034,0.423-0.032c0.937-0.05,1.875,0.111,2.791,0.286
				c0.875,0.166,2.038-0.202,2.732-0.732C277.376,522.524,277.165,522.035,276.427,521.894L276.427,521.894z"/>
		</g>
	</g>
	<g>
		<g>
			<path fill="#898989" d="M296.884,502.743c4.136,1.51,9.07,0.879,12.029-2.607c0.911-1.072,1.358-2.649,0.837-3.991
				c-0.68-1.746-2.681-2.501-4.362-2.86c-4.257-0.909-12.143-0.228-13.904,4.657c-0.594,1.646,0.537,3.304,1.852,4.183
				c2.216,1.481,5.021,1.616,7.597,1.47c0.736-0.043,2.001-0.519,2.186-1.35c0.2-0.901-1.153-0.923-1.686-0.893
				c-2.035,0.117-6.516-0.457-6.174-3.457c0.356-3.126,6.068-2.803,8.113-2.366c1.939,0.414,3.429,2.012,2.298,3.955
				c-1.188,2.042-3.733,2.063-5.725,1.336c-0.903-0.329-1.928-0.169-2.741,0.343C296.741,501.453,295.978,502.412,296.884,502.743
				L296.884,502.743z"/>
		</g>
	</g>
	<g>
		<g>
			<path fill="#898989" d="M254.011,501.82c1.87-0.052,4.416-0.64,5.138-2.635c0.619-1.71-0.566-3.217-1.799-4.269
				c-4.525-3.863-11.07-0.809-14.441,2.947c-0.321,0.358-0.523,0.945-0.167,1.361c3.226,3.766,7.907,4.687,12.653,3.979
				c0.828-0.123,2.005-0.534,2.141-1.518c0.127-0.924-1.045-1.299-1.766-1.191c-3.651,0.544-6.988-0.026-9.483-2.939
				c-0.056,0.454-0.111,0.908-0.167,1.361c2.033-2.266,4.758-3.965,7.678-2.23c0.732,0.436,1.354,1.097,1.588,1.924
				c0.205,0.726-0.3,0.481-0.999,0.501C252.231,499.17,251.374,501.894,254.011,501.82L254.011,501.82z"/>
		</g>
	</g>
	<g>
		<g>
			<path fill="#898989" d="M222.137,501.514c3.427,1.642,8.099,1.745,11.174-0.814c1.919-1.597,2.197-3.588,0.135-5.182
				c-4.83-3.731-13.938-1.126-16.23,4.319c-0.065,0.122-0.039,0.22,0.079,0.293c2.18,1.986,4.643,2.18,7.479,2.186
				c0.92,0.002,1.94-0.258,2.732-0.732c0.617-0.369,0.526-0.777-0.209-0.779c-1.616-0.004-3.143-0.012-4.644-0.688
				c-1.883-0.848-1.371-2.02-0.25-3.28c1.477-1.659,3.368-1.56,5.357-1.019c1.357,0.369,2.85,1.248,3.292,2.653
				c0.231,0.734-0.143,1.486-0.621,2.027c-1.177,1.33-3.373,0.336-4.647-0.274c-0.708-0.339-1.798,0.01-2.479,0.252
				C223.202,500.511,221.533,501.225,222.137,501.514L222.137,501.514z"/>
		</g>
	</g>
	<g>
		<g>
			<path fill="#898989" d="M325.325,503.727c2.686-0.018,8.986-0.418,9.011-4.362c0.018-2.899-3.436-4.842-5.766-5.712
				c-3.289-1.229-7.356-1.014-9.946,1.57c-1.622,1.619-2.711,4.249-1.042,6.206c1.657,1.944,4.677,2.265,7.051,2.298
				c0.844,0.012,2.019-0.65,2.128-1.562c0.123-1.02-1.032-1.257-1.786-1.268c-1.337-0.019-3.095-0.278-4.016-1.358
				c-0.966-1.131,0.373-2.782,1.171-3.357c0.25-0.181,0.448-0.232,0.804-0.327c0.065-0.017,0.903-0.101,1.102-0.09
				c1.104,0.058,1.983,0.331,3.054,0.796c0.797,0.347,1.626,0.915,2.323,1.535c0.506,0.451,0.903,1.071,1.014,1.697
				c-0.055-0.31-0.016,0.116-0.029,0.214c-0.029,0.21,0.093-0.164-0.09,0.183c0.222-0.422-0.328,0.262,0.044-0.061
				c-0.36,0.312,0.051,0.03-0.433,0.255c-0.215,0.102-0.062,0.038-0.492,0.159c-0.241,0.068-0.492,0.125-0.739,0.164
				c-0.997,0.155-2.013,0.184-3.02,0.19c-0.846,0.006-2.017,0.638-2.128,1.562C323.418,503.468,324.569,503.732,325.325,503.727
				L325.325,503.727z"/>
		</g>
	</g>
	<g>
		<g>
			<path fill="#898989" d="M275.062,501.651c2.314,0.439,4.726,0.509,6.972-0.292c1.245-0.443,2.889-1.352,2.986-2.848
				c0.242-3.734-5.716-4.441-8.241-4.413c-2.657,0.029-5.461,0.599-7.843,1.794c-1.24,0.622-2.676,1.825-2.304,3.376
				c0.339,1.41,2.054,2.238,3.275,2.674c2.138,0.762,4.545,0.75,6.756,0.376c0.683-0.115,1.964-0.416,2.228-1.192
				c0.261-0.771-1.264-0.675-1.612-0.616c-2.199,0.372-5.128,0.115-6.586-1.817c-1.715-2.271,3.59-2.667,4.504-2.697
				c1.985-0.068,5.104,0.494,5.875,2.672c0.111,0.315,0.114,0.603,0.02,0.918c-0.079,0.269-0.377,0.494-0.268,0.43
				c-0.448,0.268,0.479-0.125-0.116,0.033c0.309-0.082-0.455,0.034-0.423,0.032c-0.937,0.05-1.875-0.111-2.791-0.286
				c-0.875-0.166-2.038,0.202-2.732,0.732C274.112,501.021,274.323,501.51,275.062,501.651L275.062,501.651z"/>
		</g>
	</g>
	<g>
		<g>
			<path fill="#898989" d="M254.606,467.01c-4.136-1.509-9.069-0.878-12.027,2.607c-0.911,1.073-1.358,2.65-0.836,3.992
				c0.679,1.746,2.68,2.501,4.361,2.859c4.257,0.909,12.142,0.228,13.902-4.657c0.594-1.646-0.537-3.304-1.851-4.183
				c-2.216-1.481-5.021-1.616-7.597-1.47c-0.736,0.043-2.001,0.52-2.186,1.35c-0.2,0.901,1.153,0.923,1.686,0.893
				c2.035-0.117,6.515,0.457,6.173,3.458c-0.355,3.125-6.066,2.803-8.111,2.366c-1.939-0.415-3.428-2.013-2.298-3.956
				c1.188-2.041,3.731-2.063,5.723-1.336c0.903,0.329,1.928,0.169,2.741-0.343C254.749,468.3,255.513,467.341,254.606,467.01
				L254.606,467.01z"/>
		</g>
	</g>
	<g>
		<path fill="#5EC094" d="M297.293,469.288c-8.303,0,1.383,11.761,9.686,2.075c-2.768-3.458-6.92-4.15-11.07-3.458"/>
		<g>
			<path fill="#898989" d="M297.451,467.823c-1.924,0.054-4.389,0.653-5.125,2.688c-0.624,1.727,0.587,3.323,1.831,4.384
				c4.575,3.905,11.032,0.882,14.448-2.924c0.337-0.375,0.499-1.052,0.138-1.473c-3.24-3.782-7.891-4.771-12.677-4.058
				c-0.87,0.129-2.009,0.568-2.119,1.598c-0.101,0.938,1.007,1.451,1.803,1.332c3.608-0.537,6.982-0.037,9.464,2.858
				c0.046-0.491,0.092-0.981,0.138-1.473c-1.978,2.203-4.807,3.956-7.673,2.254c-0.717-0.426-1.344-1.053-1.573-1.866
				c-0.032-0.115-0.057-0.262,0.02-0.363c-0.183,0.245,0.628-0.017,1.01-0.027C299.37,470.691,300.076,467.75,297.451,467.823
				L297.451,467.823z"/>
		</g>
	</g>
	<g>
		<g>
			<path fill="#898989" d="M329.358,468.239c-3.427-1.642-8.099-1.745-11.175,0.814c-1.919,1.597-2.198,3.588-0.135,5.183
				c4.83,3.731,13.939,1.126,16.232-4.32c0.065-0.122,0.039-0.22-0.079-0.293c-2.181-1.986-4.645-2.18-7.48-2.186
				c-0.92-0.002-1.94,0.258-2.732,0.732c-0.617,0.369-0.526,0.777,0.209,0.779c1.616,0.004,3.143,0.012,4.645,0.688
				c1.884,0.848,1.372,2.019,0.25,3.28c-1.477,1.66-3.369,1.56-5.358,1.019c-1.358-0.369-2.851-1.248-3.293-2.652
				c-0.231-0.735,0.144-1.488,0.622-2.028c1.177-1.33,3.373-0.336,4.648,0.274c0.708,0.339,1.798-0.01,2.479-0.252
				C328.293,469.242,329.962,468.528,329.358,468.239L329.358,468.239z"/>
		</g>
	</g>
	<g>
		<g>
			<path fill="#898989" d="M226.169,466.026c-2.686,0.018-8.984,0.419-9.009,4.362c-0.018,2.899,3.434,4.842,5.764,5.712
				c3.289,1.229,7.356,1.014,9.945-1.57c1.622-1.619,2.712-4.249,1.043-6.206c-1.658-1.944-4.678-2.265-7.052-2.298
				c-0.844-0.012-2.019,0.65-2.128,1.562c-0.123,1.02,1.032,1.257,1.786,1.268c1.337,0.019,3.096,0.278,4.017,1.358
				c0.965,1.131-0.374,2.782-1.171,3.357c-0.251,0.181-0.449,0.233-0.805,0.327c-0.064,0.018-0.903,0.101-1.101,0.09
				c-1.104-0.058-1.983-0.33-3.053-0.796c-0.797-0.347-1.627-0.914-2.323-1.535c-0.506-0.45-0.903-1.071-1.014-1.696
				c0.055,0.309,0.017-0.116,0.03-0.215c0.029-0.21-0.093,0.164,0.089-0.183c-0.222,0.422,0.329-0.262-0.044,0.061
				c0.36-0.312-0.051-0.029,0.433-0.255c0.215-0.102,0.062-0.038,0.492-0.159c0.241-0.068,0.492-0.125,0.739-0.164
				c0.996-0.155,2.012-0.184,3.019-0.19c0.846-0.006,2.017-0.638,2.128-1.562C228.076,466.285,226.925,466.021,226.169,466.026
				L226.169,466.026z"/>
		</g>
	</g>
	<g>
		<g>
			<path fill="#898989" d="M276.427,468.102c-2.314-0.439-4.726-0.508-6.972,0.292c-1.245,0.444-2.888,1.352-2.985,2.848
				c-0.242,3.735,5.716,4.441,8.24,4.414c2.657-0.029,5.461-0.599,7.843-1.794c1.24-0.623,2.676-1.825,2.304-3.376
				c-0.339-1.411-2.054-2.239-3.275-2.675c-2.138-0.762-4.545-0.749-6.756-0.376c-0.683,0.115-1.964,0.416-2.228,1.192
				c-0.261,0.771,1.264,0.675,1.612,0.616c2.199-0.371,5.128-0.114,6.586,1.818c1.715,2.271-3.59,2.667-4.504,2.697
				c-1.984,0.067-5.104-0.495-5.874-2.673c-0.112-0.315-0.114-0.602-0.021-0.917c0.08-0.27,0.378-0.495,0.269-0.43
				c0.448-0.269-0.48,0.124,0.115-0.033c-0.309,0.081,0.455-0.035,0.423-0.033c0.937-0.049,1.875,0.111,2.791,0.286
				c0.875,0.166,2.038-0.202,2.732-0.732C277.376,468.732,277.165,468.243,276.427,468.102L276.427,468.102z"/>
		</g>
	</g>
	<g>
		<g>
			<path fill="#898989" d="M296.884,448.952c4.137,1.509,9.07,0.878,12.029-2.607c0.911-1.073,1.358-2.65,0.837-3.992
				c-0.68-1.746-2.681-2.501-4.362-2.859c-4.257-0.909-12.143-0.228-13.904,4.657c-0.594,1.646,0.537,3.304,1.852,4.183
				c2.216,1.481,5.021,1.616,7.597,1.47c0.736-0.043,2.001-0.519,2.186-1.35c0.2-0.901-1.153-0.923-1.686-0.893
				c-2.035,0.117-6.516-0.456-6.174-3.457c0.356-3.126,6.068-2.804,8.113-2.367c1.939,0.415,3.429,2.013,2.298,3.956
				c-1.188,2.041-3.733,2.062-5.725,1.336c-0.903-0.329-1.928-0.169-2.741,0.343C296.741,447.661,295.978,448.621,296.884,448.952
				L296.884,448.952z"/>
		</g>
	</g>
	<g>
		<g>
			<path fill="#898989" d="M254.011,448.029c1.87-0.052,4.416-0.64,5.138-2.635c0.619-1.71-0.566-3.217-1.799-4.269
				c-4.525-3.863-11.07-0.809-14.441,2.947c-0.321,0.358-0.523,0.945-0.167,1.361c3.226,3.766,7.907,4.686,12.653,3.978
				c0.828-0.123,2.005-0.534,2.141-1.518c0.127-0.924-1.045-1.299-1.766-1.191c-3.65,0.544-6.988-0.026-9.483-2.938
				c-0.056,0.454-0.111,0.908-0.167,1.361c2.033-2.266,4.758-3.965,7.678-2.23c0.732,0.436,1.354,1.097,1.588,1.924
				c0.205,0.726-0.3,0.481-0.999,0.501C252.231,445.379,251.374,448.103,254.011,448.029L254.011,448.029z"/>
		</g>
	</g>
	<g>
		<path fill="#5EC094" d="M223.96,447.078c1.384,0.691,4.841,2.075,7.608,0c6.225-4.842-8.992-10.378-12.451-1.384
			c2.074,2.075,4.15,2.075,6.917,2.075"/>
		<g>
			<path fill="#898989" d="M222.137,447.723c3.427,1.642,8.099,1.745,11.174-0.814c1.919-1.597,2.197-3.588,0.135-5.183
				c-4.83-3.731-13.938-1.125-16.23,4.32c-0.065,0.122-0.039,0.22,0.079,0.293c2.18,1.986,4.643,2.18,7.479,2.186
				c0.92,0.002,1.94-0.258,2.732-0.732c0.617-0.369,0.526-0.777-0.209-0.779c-1.616-0.004-3.143-0.012-4.644-0.688
				c-1.883-0.848-1.371-2.02-0.25-3.28c1.477-1.659,3.368-1.56,5.357-1.019c1.358,0.369,2.85,1.248,3.292,2.652
				c0.231,0.735-0.143,1.487-0.621,2.028c-1.177,1.33-3.373,0.336-4.647-0.274c-0.708-0.339-1.798,0.01-2.479,0.252
				C223.202,446.72,221.533,447.434,222.137,447.723L222.137,447.723z"/>
		</g>
	</g>
	<g>
		<g>
			<path fill="#898989" d="M325.325,449.936c2.686-0.018,8.986-0.419,9.011-4.362c0.018-2.899-3.435-4.842-5.766-5.712
				c-3.289-1.229-7.356-1.014-9.946,1.57c-1.622,1.619-2.711,4.249-1.042,6.206c1.657,1.944,4.677,2.265,7.051,2.298
				c0.844,0.012,2.019-0.65,2.128-1.562c0.123-1.02-1.032-1.257-1.786-1.268c-1.337-0.019-3.095-0.278-4.016-1.358
				c-0.966-1.131,0.373-2.782,1.171-3.357c0.25-0.181,0.448-0.233,0.804-0.327c0.065-0.018,0.903-0.101,1.102-0.09
				c1.104,0.058,1.983,0.331,3.054,0.796c0.797,0.347,1.626,0.914,2.323,1.535c0.506,0.45,0.903,1.07,1.014,1.696
				c-0.054-0.309-0.016,0.116-0.029,0.215c-0.029,0.21,0.093-0.164-0.09,0.183c0.222-0.422-0.328,0.262,0.044-0.061
				c-0.36,0.312,0.051,0.029-0.433,0.255c-0.215,0.101-0.062,0.038-0.492,0.159c-0.241,0.068-0.492,0.125-0.739,0.164
				c-0.997,0.155-2.013,0.184-3.02,0.19c-0.846,0.006-2.017,0.638-2.128,1.562C323.418,449.677,324.569,449.941,325.325,449.936
				L325.325,449.936z"/>
		</g>
	</g>
	<g>
		<g>
			<path fill="#898989" d="M275.062,447.86c2.314,0.439,4.726,0.508,6.972-0.292c1.245-0.444,2.889-1.352,2.986-2.848
				c0.242-3.735-5.716-4.441-8.241-4.414c-2.657,0.029-5.461,0.599-7.843,1.794c-1.24,0.623-2.676,1.825-2.304,3.376
				c0.339,1.411,2.054,2.239,3.275,2.675c2.138,0.762,4.545,0.749,6.756,0.376c0.683-0.115,1.964-0.416,2.228-1.192
				c0.261-0.771-1.264-0.675-1.612-0.616c-2.199,0.371-5.128,0.114-6.586-1.818c-1.715-2.271,3.59-2.667,4.504-2.697
				c1.985-0.067,5.104,0.495,5.875,2.673c0.111,0.315,0.114,0.602,0.02,0.917c-0.079,0.27-0.377,0.495-0.268,0.43
				c-0.448,0.269,0.479-0.124-0.116,0.033c0.309-0.081-0.455,0.035-0.423,0.033c-0.937,0.049-1.875-0.111-2.791-0.286
				c-0.875-0.166-2.038,0.202-2.732,0.732C274.112,447.23,274.323,447.719,275.062,447.86L275.062,447.86z"/>
		</g>
	</g>
</g>
<g>
	<g>
		<path fill="#898989" d="M134.278,616.369c0.849,0,2.006-1.289,0.699-1.289C134.128,615.08,132.971,616.369,134.278,616.369
			L134.278,616.369z"/>
	</g>
</g>
<g>
	<g>
		<g opacity="0.5">
			<g>
				<path fill="#5EC094" d="M53.953,260.331c74.985,0.455,149.969,1.257,224.956,1.086c0.73-0.002,4.371-1.45,2.541-1.446
					c-74.987,0.172-149.971-0.63-224.956-1.086C55.763,258.88,52.119,260.32,53.953,260.331L53.953,260.331z"/>
			</g>
		</g>
		<g>
			<g>
				<path fill="#898989" d="M276.232,244.174c0.066,32.665,0.918,65.321,1.002,97.983c0.01,3.793,0.003,7.586-0.006,11.378
					c-0.006,2.637,0.113,5.447-1.985,7.404c-3.224,3.005-9.49,2.459-13.541,2.445c-14.711-0.051-29.423-0.035-44.134-0.035
					c-32.222,0-64.44-2.181-96.66-1.4c-7.567,0.183-15.114,0.859-22.682,0.928c-7.931,0.073-15.892-0.466-23.808-0.897
					c-3.833-0.208-8.572,0.241-11.882-2.037c-5.21-3.585-3.365-13.967-3.368-19.18c-0.021-30.656-0.84-61.309-0.98-91.966
					c-0.019-4.224-1.593-12.349,2.821-15.069c3.548-2.187,8.681-1.827,12.677-1.813c14.072,0.048,28.146,0.035,42.218,0.035
					c30.949,0,61.878,1.889,92.825,1.517c15.416-0.186,30.594-1.191,46.023-0.46c4.894,0.232,9.922,0.195,14.768,0.975
					c4.944,0.795,6.11,5.455,6.757,9.75c0.417,2.778,6.226,1.308,5.795-1.553c-1.41-9.385-6.567-12.521-15.595-13.032
					c-14.042-0.796-27.944-1.294-41.994-0.544c-32.173,1.718-64.399-0.886-96.579-1.035c-15.942-0.074-31.887-0.003-47.83-0.003
					c-7.931,0-18.139-1.263-24.463,4.634c-2.596,2.42-3.328,5.655-3.328,9.087c0,8.573,0.068,17.147,0.145,25.72
					c0.147,16.488,0.396,32.974,0.646,49.46c0.115,7.602,0.19,15.202,0.209,22.805c0.017,6.509-0.969,13.573,1.533,19.746
					c3.236,7.984,13.172,7.001,20.208,7.459c15.229,0.99,30.188,0.294,45.408-0.141c16.517-0.473,33.051,0.057,49.56,0.566
					c30.419,0.939,60.809,0.59,91.233,0.869c7.515,0.068,17.029-0.388,20.917-7.961c2.516-4.901,0.982-12.758,0.974-18.054
					c-0.014-8.262-0.115-16.522-0.24-24.783c-0.369-24.399-0.712-48.799-0.761-73.201
					C282.108,240.649,276.228,241.468,276.232,244.174L276.232,244.174z"/>
			</g>
		</g>
		<g opacity="0.5">
			<g>
				<path fill="#898989" d="M53.953,273.438c74.985,0.454,149.969,1.257,224.956,1.086c0.73-0.002,4.371-1.45,2.541-1.446
					c-74.987,0.172-149.971-0.631-224.956-1.086C55.763,271.987,52.119,273.426,53.953,273.438L53.953,273.438z"/>
			</g>
		</g>
		<g opacity="0.5">
			<g>
				<path fill="#898989" d="M53.953,286.545c74.985,0.455,149.969,1.256,224.956,1.086c0.73-0.002,4.371-1.45,2.541-1.446
					c-74.987,0.171-149.971-0.63-224.956-1.086C55.763,285.094,52.119,286.534,53.953,286.545L53.953,286.545z"/>
			</g>
		</g>
		<g opacity="0.5">
			<g>
				<path fill="#898989" d="M53.953,299.653c74.985,0.454,149.969,1.257,224.956,1.086c0.73-0.002,4.371-1.45,2.541-1.446
					c-74.987,0.172-149.971-0.631-224.956-1.086C55.763,298.203,52.119,299.642,53.953,299.653L53.953,299.653z"/>
			</g>
		</g>
		<g opacity="0.5">
			<g>
				<path fill="#898989" d="M53.953,312.761c74.985,0.455,149.969,1.256,224.956,1.085c0.73-0.002,4.371-1.45,2.541-1.446
					c-74.987,0.172-149.971-0.629-224.956-1.085C55.763,311.31,52.119,312.75,53.953,312.761L53.953,312.761z"/>
			</g>
		</g>
		<g opacity="0.5">
			<g>
				<path fill="#898989" d="M53.953,325.868c74.985,0.455,149.969,1.257,224.956,1.086c0.73-0.002,4.371-1.45,2.541-1.446
					c-74.987,0.172-149.971-0.63-224.956-1.086C55.763,324.417,52.119,325.857,53.953,325.868L53.953,325.868z"/>
			</g>
		</g>
		<g opacity="0.5">
			<g>
				<path fill="#898989" d="M53.953,338.977c74.985,0.455,149.969,1.256,224.956,1.084c0.73-0.002,4.371-1.45,2.541-1.446
					c-74.987,0.173-149.971-0.628-224.956-1.084C55.763,337.526,52.119,338.965,53.953,338.977L53.953,338.977z"/>
			</g>
		</g>
		<g opacity="0.5">
			<g>
				<path fill="#898989" d="M53.953,352.084c74.985,0.455,149.969,1.257,224.956,1.085c0.73-0.002,4.371-1.45,2.541-1.446
					c-74.987,0.173-149.971-0.629-224.956-1.085C55.763,350.633,52.119,352.073,53.953,352.084L53.953,352.084z"/>
			</g>
		</g>
	</g>
	<g>
		<g>
			<g>
				<path fill="#5EC094" d="M96.111,271.944c2.085-11.283-8.277-16.118-17.946-12.786c-5.657,1.949-10.154,6.509-12.387,12.073
					c-2.605,6.49-0.967,12.177,3.471,17.35c4.594,5.354,11.165,8.28,16.326,12.934c5.62,5.066,8.982,12.78,8.151,20.343
					c-1.002,9.125-8.942,15.502-17.74,12.048c-6.428-2.524-9.86-9.072-5.025-14.766c1.634-1.924-4.199-1.5-5.39-0.098
					c-8.807,10.37,4.494,19.253,14.386,19.33c13.61,0.107,22.015-13.76,18.951-26.142c-1.52-6.143-5.958-12.094-11.181-15.58
					c-6.263-4.179-13.604-8.686-16.678-15.902c-2.973-6.979,2.336-17.274,9.544-19.247c7.217-1.976,10.826,5.225,9.724,11.182
					C89.913,274.885,95.751,273.893,96.111,271.944L96.111,271.944z"/>
			</g>
		</g>
		<g>
			<g>
				<path fill="#5EC094" d="M104.701,293.965c5.458,0.773,10.931,1.452,16.372,2.339c2.924,0.477,5.864-3.688,1.978-4.321
					c-5.441-0.888-10.914-1.566-16.372-2.339C103.757,289.23,100.801,293.413,104.701,293.965L104.701,293.965z"/>
			</g>
		</g>
		<g>
			<g>
				<path fill="#5EC094" d="M106.056,308.02c4.938,0,9.876,0,14.813,0c1.261,0,3.002-0.483,3.853-1.482
					c0.892-1.048-0.765-1.323-1.469-1.323c-4.938,0-9.876,0-14.813,0c-1.261,0-3.002,0.483-3.853,1.482
					C103.695,307.745,105.352,308.02,106.056,308.02L106.056,308.02z"/>
			</g>
		</g>
		<g>
			<g>
				<path fill="#5EC094" d="M134.986,338.983c9.627-24.582,4.912-52.848,4.833-78.548c-0.01-3.188-5.9-2.426-5.892,0.368
					c0.077,25.18,4.91,53.297-4.521,77.376C128.15,341.39,133.978,341.558,134.986,338.983L134.986,338.983z"/>
			</g>
		</g>
		<g>
			<g>
				<path fill="#5EC094" d="M142.845,306.083c3.625-6.665,11.283-9.855,16.911-14.541c1.018-0.848-0.905-0.872-1.336-0.829
					c-1.289,0.129-2.866,0.502-3.887,1.353c-5.826,4.851-13.628,8.167-17.392,15.084C136.789,307.797,142.074,307.5,142.845,306.083
					L142.845,306.083z"/>
			</g>
		</g>
		<g>
			<g>
				<path fill="#5EC094" d="M138.654,308.173c2.916,10.868,7.399,22.908,13.48,32.395c1.23,1.92,6.82-0.109,5.343-2.414
					c-5.888-9.187-10.202-21.002-13.027-31.533C143.814,304.251,138.019,305.805,138.654,308.173L138.654,308.173z"/>
			</g>
		</g>
		<g>
			<g>
				<path fill="#5EC094" d="M160.482,309.313c-3.698,9.101-3.163,20.529-1.557,30.044c0.339,2.009,6.162,0.615,5.796-1.553
					c-1.574-9.323-2.068-20.282,1.559-29.208C167.05,306.702,161.263,307.39,160.482,309.313L160.482,309.313z"/>
			</g>
		</g>
		<g>
			<g>
				<path fill="#5EC094" d="M164.45,309.534c2.406-2.12,5.35-2.008,7.37,0.776c1.023,1.41-0.39,3.131-1.308,4.11
					c-2.31,2.46-5.828,4.262-8.919,5.542c-0.723,0.299-3.166,1.935-0.864,1.893c5.056-0.092,9.882,1.974,11.396,7.132
					c0.557,1.894,0.155,3.833-0.73,5.544c-1.689,3.26-5.307,3.148-8.479,2.845c-1.267-0.121-6.673,2.131-3.747,2.41
					c6.674,0.637,17.131-0.824,18.851-8.769c1.712-7.906-7.225-11.688-13.544-11.573c-0.288,0.631-0.576,1.262-0.864,1.893
					c4.097-1.696,13.888-5.567,14.288-10.866c0.261-3.462-4.783-5.084-7.495-5.214c-4.046-0.194-8.278,2.097-11.209,4.681
					C157.918,311.064,163.395,310.464,164.45,309.534L164.45,309.534z"/>
			</g>
		</g>
		<g>
			<g>
				<path fill="#5EC094" d="M186.739,339.778c13.387-12.592,16.562-32.178,18.008-49.61c0.552-6.65,4.134-35.134-9.226-31.792
					c-4.297,1.075-5.658,5.451-6.453,9.296c-1.369,6.627-1.34,13.599-1.293,20.335c0.107,15.37,1.312,31.102,4.331,46.191
					c0.45,2.252,0.912,4.627,1.901,6.718c0.91,1.925,6.561,0.065,5.795-1.553c-1.782-3.768-2.261-8.328-2.912-12.393
					c-1.13-7.043-1.857-14.154-2.427-21.262c-1.061-13.236-2.556-28.149,0.94-41.149c0.281-1.046,0.821-3.193,1.731-3.792
					c-2.188,1.44-1.904-0.274-0.338,1.79c0.817,1.077,1.178,2.575,1.521,3.854c2.002,7.453,1.273,15.855,0.729,23.445
					c-1.212,16.857-3.969,36.899-16.924,49.085C179.697,341.226,185.434,341.007,186.739,339.778L186.739,339.778z"/>
			</g>
		</g>
		<g>
			<g>
				<path fill="#5EC094" d="M204.923,308.953c0.52,10.233-2.861,20.153-2.339,30.405c0.119,2.346,5.391,0.683,5.812-1.076
					c2.006-8.379,2.383-23.748,12.352-26.856c-1.117-0.305-2.234-0.609-3.351-0.914c2.068,6.997-13.919,34.388,4.13,29.76
					c3.54-0.908,2.621-4.285-0.906-3.381c-4.612,1.183-0.642-11.043-0.106-12.923c1.249-4.384,4.048-10.376,2.678-15.008
					c-0.376-1.273-2.37-1.219-3.351-0.914c-13.644,4.255-14.439,18.995-17.275,30.835c1.938-0.358,3.875-0.717,5.812-1.076
					c-0.521-10.233,2.86-20.153,2.339-30.405C210.605,305.186,204.796,306.46,204.923,308.953L204.923,308.953z"/>
			</g>
		</g>
		<g>
			<g>
				<path fill="#5EC094" d="M230.649,325.325c0.003,4.917-0.056,9.954,0.78,14.812c0.105,0.203,0.277,0.315,0.514,0.337
					c3.772,0.785,7.547,0.071,11.194-1.015c0.551-0.164,2.491-0.625,2.621-1.393c0.762-4.473,0.053-9.11-0.581-13.556
					c-0.986-6.919-2.331-13.785-3.396-20.692c-1.812-11.738-4.707-27.554,2.442-38.105c3.811-5.624,11.606-6.151,16.562-1.732
					c5.477,4.884,6.089,14.362,6.206,21.141c0.337,19.36-11.953,35.7-11.395,55.016c0.105,0.203,0.277,0.315,0.514,0.337
					c4.224,0.874,8.538,0.813,12.755-0.061c0.646-0.134,3.621-0.721,3.441-1.83c-0.839-5.188-1.499-10.403-2.338-15.592
					c-0.188-1.161-6.028,0.111-5.795,1.553c0.838,5.188,1.498,10.403,2.338,15.592c1.146-0.61,2.294-1.22,3.441-1.83
					c-1.851,0.383-3.688,0.479-5.574,0.432c-2.911-0.073-3.042-0.976-3.03-3.597c0.016-3.511,0.586-6.995,1.358-10.41
					c1.238-5.464,3.47-10.678,5.408-15.916c3.174-8.574,4.812-17.17,4.653-26.307c-0.131-7.521-1.468-16.687-7.832-21.58
					c-5.269-4.051-13.775-2.243-19.362,0.09c-13.248,5.532-11.984,23.688-10.784,35.312c0.849,8.221,2.409,16.353,3.769,24.498
					c0.971,5.814,2.491,12.358,1.486,18.267c0.873-0.464,1.747-0.929,2.621-1.393c-3.01,0.896-5.488,1.289-5.823-2.007
					c-0.161-1.59-0.216-3.192-0.28-4.788c-0.098-2.377-0.117-4.758-0.119-7.137C236.444,322.854,230.648,323.682,230.649,325.325
					L230.649,325.325z"/>
			</g>
		</g>
	</g>
</g>
<g>
	<g>
		<g>
			<path fill="#898989" d="M108.982,594.202c32.588-0.054,65.168-0.658,97.754-0.858c8.008-0.049,16.073-0.295,24.076,0.006
				c5.827,0.219,7.531,5.592,7.896,10.496c0.991,13.354,0.042,27.097,0.042,40.484c0,32.253-2.99,64.609-1.156,96.838
				c0.755,13.272,0.711,26.654-0.793,39.895c-0.606,5.342-4.39,6.383-9.252,6.979c-8.197,1.006-17.164-0.017-25.437,0.034
				c-28.675,0.175-57.347,0.706-86.023,0.821c-4.854,0.02-11.956,1.392-16.143-1.706c-3.036-2.245-3.217-7.433-3.306-10.794
				c-0.323-12.163,0.032-24.385,0.032-36.554c0-28.463,2.048-56.906,1.657-85.362c-0.191-13.897-1.319-27.493-0.506-41.406
				c0.248-4.229,0.298-8.552,0.927-12.747c0.722-4.818,4.886-5.605,9.124-6.126c3.262-0.4,4.413-4.868,0.477-4.385
				c-8.233,1.01-14.7,3.755-15.711,12.657c-1.545,13.595-1.357,27.29-0.583,40.908c1.831,32.203-1.266,64.629-1.266,96.863
				c0,13.098-0.854,26.488,0.117,39.554c0.645,8.675,5.61,13.508,14.375,13.508c32.121,0,64.235-0.619,96.354-0.847
				c7.826-0.056,15.651-0.055,23.477-0.039c4.739,0.01,9.883-0.944,13.715-3.906c2.463-1.904,3.414-4.906,3.855-7.855
				c0.854-5.697,0.795-11.667,1.117-17.408c0.889-15.815-0.987-31.646-0.848-47.488c0.143-16.22,1.079-32.422,1.499-48.634
				c0.417-16.079,0.182-32.184,0.182-48.267c0-7.895,2.061-19.654-3.615-26.195c-2.537-2.924-6.644-3.723-10.322-3.731
				c-8.479-0.021-16.958-0.018-25.438,0.034c-16.291,0.1-32.582,0.38-48.873,0.548c-15.642,0.161-31.284,0.273-46.926,0.299
				C106.095,589.823,105.055,594.208,108.982,594.202L108.982,594.202z"/>
		</g>
	</g>
	<g>
		<g>
			<path fill="#898989" d="M115.545,611.078c32.7-0.052,65.395-0.734,98.094-0.736c5.941,0,12.838-1.24,15.04,5.615
				c1.394,4.335,0.651,9.679,0.651,14.147c0,16.633,0.187,33.271-0.407,49.897c-0.554,15.529-1.404,31.05-0.914,46.594
				c0.417,13.185,2.163,27.209-0.648,40.272c-1.348,6.263-11.438,4.284-16.062,4.284c-8.281,0-16.562,0.061-24.844,0.157
				c-16.515,0.192-33.029,0.379-49.543,0.49c-8.066,0.054-16.715,0.996-24.719-0.085c-6.044-0.816-6.163-8.419-6.133-13.016
				c0.118-18.177-0.242-36.363,0.369-54.533c0.607-18.069,1.731-36.132,0.711-54.209c-0.54-9.574-0.375-18.88,0.281-28.449
				c0.431-6.295,0.716-9.636,7.887-10.481c2.714-0.32,4.888-3.45,0.854-2.975c-8.185,0.966-13.806,3.578-14.401,12.289
				c-0.403,5.896-0.898,11.815-0.987,17.726c-0.125,8.288,0.839,16.561,0.981,24.853c0.285,16.583-0.917,33.16-1.332,49.731
				c-0.383,15.261-0.034,30.537-0.134,45.801c-0.05,7.57,0.685,16.06,10.184,16.457c15.25,0.638,30.667-0.064,45.928-0.215
				c16.258-0.159,32.516-0.422,48.775-0.46c7.324-0.017,22.856,2.37,27.179-6.144c1.279-2.519,1.259-5.387,1.427-8.148
				c0.318-5.25,0.788-10.505,0.867-15.768c0.2-13.279-1.185-26.525-0.864-39.846c0.622-25.938,1.343-51.777,1.343-77.731
				c0-5.9,1.153-13.722-4.424-17.575c-3.111-2.148-7.379-1.747-10.935-1.754c-6.99-0.012-13.981,0.005-20.972,0.056
				c-26.98,0.195-53.958,0.635-80.94,0.677C115.83,608.003,111.636,611.083,115.545,611.078L115.545,611.078z"/>
		</g>
	</g>
	<g>
		<g>
			<g>
				<path fill="#5EC094" d="M146.148,696.48c5.188,6.982,13.756,9.706,22.18,9.769c9.117,0.067,16.165-3.994,22.458-10.259
					c1.077-1.072-4.288-0.339-5.209,0.578c-2.729,2.717-5.601,5.881-9.4,7.018c-3.183,0.951-6.784,0.498-9.983-0.086
					c-5.565-1.016-10.867-4.02-14.25-8.572C150.973,693.62,145.844,696.071,146.148,696.48L146.148,696.48z"/>
			</g>
		</g>
		<g>
			<path fill="#5EC094" d="M148.43,694.539c-17.104-0.829-12.012-36.366-9.167-46.603c7.482-27.049,48.918-27.049,58.702-1.151
				c3.453,9.208,6.906,50.646-9.783,48.344c-1.15-5.756,4.604-10.359,4.604-16.69c0-5.18-2.877-12.085-5.754-16.689
				c-12.662-18.416-18.993,1.151-31.654,7.481c-6.331,2.878-10.935,0.575-11.511,9.208c-0.575,3.453,3.453,14.388,5.18,17.266
				L148.43,694.539z"/>
			<g>
				<path fill="#5EC094" d="M150.321,693.399c-8.324-0.697-10.287-10.665-10.921-17.375c-0.777-8.23,0.184-16.772,1.821-24.845
					c1.675-8.263,5.648-15.245,13.081-19.586c8.055-4.705,18.646-3.394,26.707,0.524c15.421,7.496,17.125,24.711,16.9,39.927
					c-0.102,6.826-0.533,16.2-5.738,21.338c-0.34,0.335-1.803,0.85-0.626,0.688c-1.333,0.182-0.165-3.932,0.021-4.539
					c0.795-2.584,2.332-4.954,3.31-7.479c2.196-5.665-0.421-12.122-2.833-17.259c-3.138-6.683-8.576-13.272-16.594-11.482
					c-7.007,1.564-11.533,7.474-16.669,12.003c-3.461,3.052-6.963,3.964-11.169,5.361c-2.619,0.87-4.772,2.045-5.928,4.651
					c-2.753,6.21,1.453,15.754,4.467,21.152c0.755,1.354,6.223-0.745,5.796-1.553c-0.206-0.389-0.411-0.776-0.616-1.165
					c-0.727-1.374-6.221,0.748-5.796,1.553c0.206,0.389,0.411,0.776,0.616,1.165c1.932-0.518,3.864-1.035,5.796-1.553
					c-3.236-5.797-7.068-14.987-4.178-21.503c1.027-2.317,6.995-2.919,9.267-3.865c3.669-1.527,6.842-4.536,9.686-7.216
					c1.945-1.832,6.218-7.507,9.196-7.046c5.405,0.838,8.946,8.101,10.989,12.45c2.23,4.75,3.818,10.194,2.264,15.359
					c-1.346,4.47-4.442,7.886-3.884,12.798c0.107,0.195,0.276,0.3,0.508,0.315c15.902,1.614,17.886-15.834,17.93-27.748
					c0.058-15.248-2.51-30.555-17.244-38.296c-13.451-7.066-32.421-4.281-43.22,6.375c-5.26,5.191-7.151,12.067-8.389,19.11
					c-1.434,8.154-2.044,16.653-0.924,24.881c1.016,7.46,4.404,14.449,12.595,15.136
					C147.718,695.777,153.171,693.638,150.321,693.399z"/>
			</g>
		</g>
		<g>
			<g>
				<path fill="#5EC094" d="M164.056,696.47c6.194,1.936,13.288,1.757,17.696-3.61c1.57-1.911-2.094-2.632-3.254-1.219
					c-3.094,3.766-7.968,3.479-12.233,2.146C164.54,693.248,161.709,695.737,164.056,696.47L164.056,696.47z"/>
			</g>
		</g>
		<g>
			<g>
				<path fill="#5EC094" d="M164.243,676.573c0-1.343,0-2.686,0-4.028c0-0.963-0.928-1.386-1.796-1.307
					c-4.9,0.451-19.406,1.292-13.76,10.484c3.486,5.675,14.427,4.673,14.405-2.847c-0.708,0.527-1.415,1.056-2.123,1.583
					c3.856-0.003,7.685-0.036,11.51-0.576c1.033-0.146,2.248-0.739,2.095-1.962c-0.22-1.758,0.221-3.417,0-5.18
					c-0.698,0.654-1.396,1.309-2.095,1.962c2.404-0.007,4.918-0.201,7.262,0.449c2.925,0.812,2.221,4.671,1.878,6.878
					c0.707-0.527,1.415-1.056,2.122-1.583c-3.48,0.005-6.908,0.091-10.359,0.576c0.599,0.435,1.197,0.87,1.796,1.306
					c0-1.343,0-2.687,0-4.029c0-2.063-3.918-1.503-3.918,0.277c0,1.343,0,2.687,0,4.029c0,0.933,0.93,1.428,1.796,1.306
					c3.451-0.484,6.878-0.57,10.359-0.576c0.89-0.001,1.978-0.653,2.122-1.583c1.471-9.468-4.987-9.962-12.731-9.938
					c-1.048,0.003-2.235,0.839-2.095,1.962c0.22,1.758-0.221,3.417,0,5.18c0.698-0.654,1.396-1.309,2.095-1.962
					c-3.825,0.539-7.653,0.572-11.51,0.576c-0.772,0-2.125,0.655-2.123,1.583c0.018,5.927-7.706,2.821-7.306-2.298
					c0.248-3.184,8.111-2.53,10.254-2.727c-0.599-0.436-1.198-0.871-1.796-1.307c0,1.343,0,2.686,0,4.028
					C160.324,678.914,164.243,678.353,164.243,676.573L164.243,676.573z"/>
			</g>
		</g>
		<g>
			<g>
				<path fill="#5EC094" d="M171.669,669.544c1.726,0.575,3.454,1.15,5.179,1.727c0.883,0.295,1.938,0.061,2.728-0.394
					c0.422-0.242,1.264-1.088,0.372-1.386c-1.727-0.576-3.453-1.151-5.18-1.727c-0.884-0.294-1.938-0.062-2.728,0.394
					C171.62,668.401,170.776,669.248,171.669,669.544L171.669,669.544z"/>
			</g>
		</g>
		<g>
			<path fill="#5EC094" d="M211.201,752.679c-27.623,4.604-58.702,0-86.902,0v0.576c-1.15-11.511,10.359-29.352,19.567-35.106
				c6.906-4.03,13.237-5.18,16.115,0.575c1.15,2.878-1.151,6.906,0,9.784c1.15,2.876,5.179,4.028,7.481,6.905
				c12.662-2.877,4.028-8.632,7.482-16.689c2.303-4.605,10.359-6.332,16.689-4.028c16.113,6.331,12.66,25.898,18.416,37.408"/>
		</g>
		<g>
			<g>
				<path fill="#5EC094" d="M160.586,717.191c2.61-3.518,3.169-7.768,3.978-11.958c0.53-2.75-5.382-1.94-5.854,0.506
					c-0.63,3.268-0.88,7.155-2.928,9.915C153.609,718.583,159.104,719.189,160.586,717.191L160.586,717.191z"/>
			</g>
		</g>
		<g>
			<g>
				<path fill="#5EC094" d="M170.25,706.262c0.002,4.655,0.097,9.257,1.15,13.812c0.364,1.574,6.178,0.101,5.795-1.553
					c-1.053-4.557-1.147-9.157-1.15-13.812C176.046,703.412,170.25,704.357,170.25,706.262L170.25,706.262z"/>
			</g>
		</g>
	</g>
	<g>
		<g>
			<path fill="#898989" d="M169.958,774.477c-4.432-0.99-9.007,1.682-10.776,5.76c-1.81,4.169,0.842,8.388,5.037,9.474
				c4.525,1.172,9.635-0.435,12.044-4.554c1.797-3.072-0.844-9.141-3.826-10.721c-1.341-0.71-2.931-0.618-4.162,0.327
				c-0.875,0.672-1.613,2.381-0.288,3.083c1.6,0.848,2.506,3.396,2.882,5.03c0.443,1.928-1.36,2.936-3.047,2.825
				c-4.659-0.305-3.945-7.817,0.16-6.9C170.9,779.453,173.789,775.333,169.958,774.477L169.958,774.477z"/>
		</g>
	</g>
	<g>
		<g>
			<path fill="#898989" d="M154.174,601.407c8-0.063,15.983-0.847,23.985-0.475c1.331,0.062,6.676-2.386,3.717-2.523
				c-8.424-0.393-16.821,0.407-25.243,0.473C154.967,598.895,150.311,601.437,154.174,601.407L154.174,601.407z"/>
		</g>
	</g>
</g>
</svg>
