<?xml version="1.0" encoding="utf-8"?>
<!-- Generator: Adobe Illustrator 15.1.0, SVG Export Plug-In . SVG Version: 6.00 Build 0)  -->
<!DOCTYPE svg PUBLIC "-//W3C//DTD SVG 1.1//EN" "http://www.w3.org/Graphics/SVG/1.1/DTD/svg11.dtd">
<svg version="1.1" id="Layer_1" xmlns="http://www.w3.org/2000/svg" xmlns:xlink="http://www.w3.org/1999/xlink" x="0px" y="0px"
	 width="231.304px" height="140.324px" viewBox="0 0 231.304 140.324" enable-background="new 0 0 231.304 140.324"
	 xml:space="preserve">
<g>
	<g>
		<g opacity="0.5">
			<g>
				<path fill="#5FC195" d="M1.67,32.88c74.984,0.455,149.969,1.257,224.956,1.086c0.729-0.002,4.37-1.45,2.541-1.446
					C154.18,32.691,79.195,31.89,4.211,31.434C3.48,31.429-0.164,32.869,1.67,32.88L1.67,32.88z"/>
			</g>
		</g>
		<g>
			<g>
				<path fill="#898989" d="M223.949,16.723c0.065,32.665,0.918,65.321,1.002,97.983c0.01,3.793,0.002,7.586-0.006,11.378
					c-0.006,2.637,0.112,5.447-1.985,7.404c-3.224,3.004-9.49,2.459-13.541,2.444c-14.711-0.051-29.423-0.034-44.134-0.034
					c-32.223,0-64.44-2.182-96.66-1.4c-7.567,0.183-15.114,0.859-22.682,0.928c-7.932,0.073-15.893-0.466-23.809-0.896
					c-3.833-0.209-8.572,0.24-11.882-2.037c-5.21-3.586-3.365-13.967-3.368-19.18c-0.021-30.656-0.84-61.31-0.98-91.967
					C5.886,17.122,4.312,8.997,8.726,6.277c3.548-2.188,8.681-1.828,12.677-1.813c14.072,0.048,28.146,0.035,42.219,0.035
					c30.949,0,61.878,1.889,92.824,1.517c15.416-0.186,30.595-1.191,46.023-0.46c4.895,0.231,9.922,0.195,14.768,0.976
					c4.944,0.795,6.11,5.455,6.758,9.75c0.416,2.777,6.226,1.308,5.795-1.553c-1.41-9.386-6.567-12.521-15.596-13.033
					C200.152,0.9,186.25,0.402,172.199,1.152c-32.172,1.717-64.398-0.887-96.578-1.035c-15.942-0.074-31.887-0.004-47.83-0.004
					c-7.932,0-18.139-1.263-24.463,4.635C0.732,7.168,0,10.402,0,13.835c0,8.573,0.068,17.147,0.145,25.72
					c0.147,16.488,0.396,32.975,0.646,49.46C0.906,96.617,0.98,104.217,1,111.82c0.017,6.508-0.969,13.572,1.533,19.746
					c3.236,7.983,13.172,7,20.207,7.459c15.229,0.989,30.188,0.293,45.408-0.142c16.518-0.474,33.051,0.058,49.561,0.565
					c30.419,0.939,60.809,0.591,91.232,0.869c7.516,0.068,17.029-0.388,20.918-7.961c2.516-4.9,0.981-12.758,0.974-18.054
					c-0.015-8.262-0.115-16.522-0.24-24.782c-0.369-24.399-0.712-48.8-0.761-73.201C229.824,13.197,223.945,14.017,223.949,16.723
					L223.949,16.723z"/>
			</g>
		</g>
		<g opacity="0.5">
			<g>
				<path fill="#898989" d="M1.67,45.986c74.984,0.455,149.969,1.258,224.956,1.086c0.729-0.002,4.37-1.449,2.541-1.445
					C154.18,45.799,79.195,44.996,4.211,44.541C3.48,44.535-0.164,45.975,1.67,45.986L1.67,45.986z"/>
			</g>
		</g>
		<g opacity="0.5">
			<g>
				<path fill="#898989" d="M1.67,59.094c74.984,0.455,149.969,1.256,224.956,1.086c0.729-0.002,4.37-1.449,2.541-1.445
					c-74.987,0.17-149.972-0.631-224.956-1.086C3.48,57.643-0.164,59.083,1.67,59.094L1.67,59.094z"/>
			</g>
		</g>
		<g opacity="0.5">
			<g>
				<path fill="#898989" d="M1.67,72.201c74.984,0.455,149.969,1.258,224.956,1.087c0.729-0.003,4.37-1.45,2.541-1.446
					C154.18,72.014,79.195,71.211,4.211,70.756C3.48,70.752-0.164,72.191,1.67,72.201L1.67,72.201z"/>
			</g>
		</g>
		<g opacity="0.5">
			<g>
				<path fill="#898989" d="M1.67,85.31c74.984,0.455,149.969,1.257,224.956,1.085c0.729-0.002,4.37-1.449,2.541-1.445
					C154.18,85.121,79.195,84.32,4.211,83.863C3.48,83.859-0.164,85.299,1.67,85.31L1.67,85.31z"/>
			</g>
		</g>
		<g opacity="0.5">
			<g>
				<path fill="#898989" d="M1.67,98.417c74.984,0.455,149.969,1.257,224.956,1.086c0.729-0.002,4.37-1.45,2.541-1.446
					c-74.987,0.172-149.972-0.63-224.956-1.086C3.48,96.966-0.164,98.406,1.67,98.417L1.67,98.417z"/>
			</g>
		</g>
		<g opacity="0.5">
			<g>
				<path fill="#898989" d="M1.67,111.525c74.984,0.455,149.969,1.256,224.956,1.084c0.729-0.002,4.37-1.449,2.541-1.445
					c-74.987,0.173-149.972-0.629-224.956-1.084C3.48,110.074-0.164,111.514,1.67,111.525L1.67,111.525z"/>
			</g>
		</g>
		<g opacity="0.5">
			<g>
				<path fill="#898989" d="M1.67,124.633c74.984,0.455,149.969,1.257,224.956,1.085c0.729-0.002,4.37-1.45,2.541-1.446
					c-74.987,0.174-149.972-0.629-224.956-1.084C3.48,123.182-0.164,124.622,1.67,124.633L1.67,124.633z"/>
			</g>
		</g>
	</g>
	<g>
		<g>
			<g>
				<path fill="#5FC195" d="M43.828,44.492c2.084-11.282-8.277-16.117-17.946-12.785c-5.657,1.949-10.153,6.509-12.388,12.072
					c-2.604,6.49-0.967,12.178,3.472,17.351c4.594,5.354,11.165,8.28,16.326,12.935c5.62,5.065,8.981,12.779,8.151,20.342
					c-1.002,9.125-8.942,15.502-17.74,12.049c-6.428-2.524-9.86-9.072-5.025-14.766c1.635-1.925-4.199-1.5-5.391-0.099
					c-8.807,10.37,4.494,19.253,14.387,19.33c13.609,0.106,22.016-13.761,18.951-26.142c-1.52-6.144-5.958-12.095-11.182-15.58
					c-6.263-4.18-13.604-8.687-16.678-15.902c-2.973-6.979,2.336-17.273,9.544-19.247c7.218-1.976,10.826,5.226,9.724,11.183
					C37.63,47.434,43.468,46.441,43.828,44.492L43.828,44.492z"/>
			</g>
		</g>
		<g>
			<g>
				<path fill="#5FC195" d="M52.418,66.514c5.458,0.773,10.931,1.452,16.372,2.34c2.924,0.477,5.864-3.688,1.978-4.322
					c-5.441-0.888-10.914-1.565-16.371-2.338C51.474,61.779,48.518,65.962,52.418,66.514L52.418,66.514z"/>
			</g>
		</g>
		<g>
			<g>
				<path fill="#5FC195" d="M53.773,80.568c4.938,0,9.875,0,14.812,0c1.261,0,3.002-0.482,3.854-1.481
					c0.891-1.048-0.766-1.323-1.47-1.323c-4.938,0-9.876,0-14.813,0c-1.26,0-3.002,0.483-3.853,1.482
					C51.412,80.294,53.068,80.568,53.773,80.568L53.773,80.568z"/>
			</g>
		</g>
		<g>
			<g>
				<path fill="#5FC195" d="M82.703,111.531c9.627-24.582,4.912-52.848,4.832-78.547c-0.01-3.188-5.899-2.427-5.892,0.367
					c0.077,25.18,4.91,53.297-4.521,77.377C75.867,113.939,81.695,114.107,82.703,111.531L82.703,111.531z"/>
			</g>
		</g>
		<g>
			<g>
				<path fill="#5FC195" d="M90.562,78.632c3.625-6.665,11.282-9.854,16.91-14.541c1.018-0.849-0.904-0.872-1.336-0.829
					c-1.289,0.129-2.865,0.502-3.887,1.354c-5.826,4.851-13.629,8.166-17.393,15.084C84.506,80.346,89.791,80.049,90.562,78.632
					L90.562,78.632z"/>
			</g>
		</g>
		<g>
			<g>
				<path fill="#5FC195" d="M86.371,80.722c2.916,10.868,7.398,22.908,13.479,32.396c1.229,1.92,6.82-0.109,5.343-2.414
					c-5.888-9.188-10.201-21.002-13.026-31.533C91.531,76.8,85.736,78.354,86.371,80.722L86.371,80.722z"/>
			</g>
		</g>
		<g>
			<g>
				<path fill="#5FC195" d="M108.199,81.861c-3.698,9.102-3.164,20.529-1.558,30.045c0.339,2.009,6.162,0.615,5.796-1.553
					c-1.574-9.324-2.068-20.283,1.559-29.209C114.767,79.251,108.98,79.939,108.199,81.861L108.199,81.861z"/>
			</g>
		</g>
		<g>
			<g>
				<path fill="#5FC195" d="M112.167,82.083c2.405-2.12,5.35-2.009,7.37,0.776c1.022,1.41-0.391,3.131-1.309,4.109
					c-2.31,2.46-5.828,4.262-8.919,5.542c-0.723,0.299-3.166,1.935-0.864,1.894c5.057-0.092,9.883,1.974,11.396,7.131
					c0.557,1.895,0.154,3.834-0.73,5.545c-1.688,3.26-5.307,3.148-8.479,2.845c-1.268-0.121-6.673,2.131-3.747,2.41
					c6.674,0.637,17.131-0.824,18.851-8.769c1.713-7.906-7.225-11.688-13.543-11.574c-0.289,0.632-0.576,1.263-0.865,1.894
					c4.098-1.696,13.889-5.567,14.289-10.866c0.261-3.462-4.783-5.084-7.496-5.214c-4.045-0.194-8.277,2.097-11.209,4.681
					C105.635,83.613,111.111,83.013,112.167,82.083L112.167,82.083z"/>
			</g>
		</g>
		<g>
			<g>
				<path fill="#5FC195" d="M134.455,112.326c13.388-12.592,16.562-32.178,18.009-49.609c0.552-6.65,4.134-35.134-9.226-31.792
					c-4.297,1.075-5.658,5.451-6.453,9.296c-1.369,6.627-1.34,13.6-1.293,20.335c0.106,15.37,1.312,31.103,4.33,46.191
					c0.451,2.252,0.912,4.627,1.901,6.718c0.91,1.925,6.562,0.064,5.795-1.553c-1.782-3.768-2.261-8.328-2.911-12.393
					c-1.131-7.044-1.857-14.154-2.428-21.263c-1.061-13.235-2.556-28.149,0.939-41.149c0.281-1.045,0.822-3.192,1.731-3.791
					c-2.188,1.439-1.903-0.274-0.338,1.789c0.817,1.077,1.179,2.575,1.521,3.854c2.002,7.453,1.273,15.854,0.729,23.444
					c-1.212,16.857-3.969,36.899-16.924,49.086C127.414,113.775,133.15,113.556,134.455,112.326L134.455,112.326z"/>
			</g>
		</g>
		<g>
			<g>
				<path fill="#5FC195" d="M152.64,81.502c0.521,10.232-2.86,20.152-2.339,30.404c0.119,2.347,5.391,0.684,5.812-1.075
					c2.006-8.38,2.383-23.748,12.352-26.856c-1.117-0.305-2.234-0.609-3.352-0.914c2.068,6.997-13.918,34.389,4.131,29.76
					c3.539-0.907,2.621-4.285-0.906-3.381c-4.612,1.184-0.643-11.043-0.105-12.923c1.248-4.384,4.047-10.376,2.678-15.008
					c-0.377-1.272-2.37-1.219-3.352-0.914c-13.644,4.255-14.439,18.995-17.275,30.835c1.938-0.357,3.875-0.717,5.812-1.076
					c-0.521-10.232,2.859-20.152,2.339-30.404C158.322,77.734,152.513,79.009,152.64,81.502L152.64,81.502z"/>
			</g>
		</g>
		<g>
			<g>
				<path fill="#5FC195" d="M178.365,97.874c0.004,4.917-0.056,9.954,0.781,14.812c0.104,0.203,0.276,0.315,0.514,0.338
					c3.771,0.784,7.547,0.07,11.193-1.016c0.551-0.164,2.491-0.625,2.621-1.393c0.762-4.474,0.053-9.11-0.58-13.557
					c-0.986-6.919-2.332-13.785-3.396-20.691c-1.812-11.738-4.707-27.555,2.441-38.105c3.812-5.624,11.606-6.15,16.562-1.732
					c5.477,4.885,6.089,14.362,6.206,21.142c0.337,19.36-11.953,35.7-11.396,55.017c0.105,0.202,0.277,0.314,0.514,0.336
					c4.225,0.875,8.539,0.813,12.756-0.061c0.646-0.135,3.621-0.721,3.441-1.83c-0.84-5.188-1.5-10.402-2.339-15.592
					c-0.188-1.161-6.028,0.111-5.795,1.553c0.839,5.188,1.498,10.403,2.339,15.592c1.146-0.609,2.293-1.22,3.44-1.83
					c-1.851,0.383-3.688,0.479-5.574,0.433c-2.911-0.073-3.042-0.976-3.03-3.597c0.017-3.512,0.586-6.996,1.358-10.41
					c1.237-5.465,3.47-10.678,5.408-15.916c3.174-8.574,4.812-17.17,4.653-26.308c-0.131-7.521-1.469-16.687-7.832-21.579
					c-5.27-4.052-13.775-2.244-19.362,0.09c-13.248,5.531-11.984,23.688-10.784,35.312c0.85,8.222,2.409,16.353,3.77,24.498
					c0.971,5.813,2.49,12.358,1.485,18.267c0.873-0.464,1.747-0.929,2.621-1.393c-3.01,0.896-5.487,1.289-5.823-2.007
					c-0.16-1.591-0.216-3.192-0.279-4.788c-0.099-2.377-0.117-4.758-0.119-7.137C184.16,95.402,178.365,96.23,178.365,97.874
					L178.365,97.874z"/>
			</g>
		</g>
	</g>
</g>
</svg>
