<?xml version="1.0" encoding="utf-8"?>
<!-- Generator: Adobe Illustrator 15.1.0, SVG Export Plug-In . SVG Version: 6.00 Build 0)  -->
<!DOCTYPE svg PUBLIC "-//W3C//DTD SVG 1.1//EN" "http://www.w3.org/Graphics/SVG/1.1/DTD/svg11.dtd">
<svg version="1.1" id="Layer_1" xmlns="http://www.w3.org/2000/svg" xmlns:xlink="http://www.w3.org/1999/xlink" x="0px" y="0px"
	 width="334.216px" height="140.303px" viewBox="0 0 334.216 140.303" enable-background="new 0 0 334.216 140.303"
	 xml:space="preserve">
<g>
	<g>
		<g>
			<path fill="#898989" d="M43.088,137.78c-0.496-45.29,0.781-90.572,0.801-135.861c0.001-2.709-5.827-1.595-5.828,0.604
				c-0.019,45.289-1.296,90.572-0.801,135.862C37.291,141.099,43.112,139.971,43.088,137.78L43.088,137.78z"/>
		</g>
	</g>
	<g>
		<g>
			<path fill="#898989" d="M5.978,137.848c-0.496-45.29,0.781-90.573,0.8-135.862c0.001-2.987-5.862-2.061-5.863,0.472
				c-0.02,45.289-1.296,90.571-0.8,135.861C0.147,141.31,6.005,140.373,5.978,137.848L5.978,137.848z"/>
		</g>
	</g>
	<g>
		<g>
			<path fill="#898989" d="M176.383,137.886c-0.497-45.291,0.78-90.573,0.8-135.862c0.002-3.136-5.883-2.33-5.884,0.396
				c-0.019,45.29-1.296,90.571-0.8,135.861C170.533,141.418,176.413,140.604,176.383,137.886L176.383,137.886z"/>
		</g>
	</g>
	<g>
		<g>
			<path fill="#898989" d="M212.154,137.743c-0.498-45.29,0.779-90.571,0.8-135.861c0.001-2.543-5.808-1.34-5.81,0.678
				c-0.02,45.289-1.296,90.571-0.8,135.862C206.374,140.971,212.175,139.753,212.154,137.743L212.154,137.743z"/>
		</g>
	</g>
	<g>
		<g>
			<path fill="#5FC195" d="M14.797,12.029c-0.042,4.086-0.518,8.225-1.971,12.063c-0.813,2.148,3.068,2.249,3.718,0.531
				c1.549-4.096,2.135-8.482,2.18-12.844C18.747,9.664,14.816,10.172,14.797,12.029L14.797,12.029z"/>
		</g>
	</g>
	<g>
		<g>
			<path fill="#5FC195" d="M24.485,12.729c-0.001,4.152,0.162,8.813-1.277,12.762c-0.781,2.143,3.094,2.19,3.71,0.502
				c1.548-4.245,1.488-9.062,1.49-13.526C28.408,10.376,24.486,10.912,24.485,12.729L24.485,12.729z"/>
		</g>
	</g>
	<g>
		<g>
			<path fill="#5FC195" d="M12.754,39.404c0,3.171-0.222,6.611,0.692,9.687c0.317,1.066,4.168-0.011,3.863-1.035
				c-0.914-3.074-0.691-6.515-0.692-9.687C16.617,37.52,12.753,38.145,12.754,39.404L12.754,39.404z"/>
		</g>
	</g>
	<g>
		<g>
			<path fill="#5FC195" d="M12.754,65.004c0.911,4.564-0.64,9.271,0.692,13.837c0.284,0.975,4.137-0.098,3.863-1.035
				c-1.332-4.565,0.219-9.271-0.692-13.837C16.434,63.048,12.548,63.974,12.754,65.004L12.754,65.004z"/>
		</g>
	</g>
	<g>
		<g>
			<path fill="#5FC195" d="M12.754,91.984c0.618,4.599,0.766,9.239,1.384,13.836c0.208,1.549,4.086,0.621,3.863-1.035
				c-0.618-4.598-0.766-9.238-1.384-13.836C16.409,89.4,12.53,90.328,12.754,91.984L12.754,91.984z"/>
		</g>
	</g>
	<g>
		<g>
			<path fill="#5FC195" d="M13.445,119.657c0.001,4.173,0.055,8.322,0.692,12.453c0.113,0.731,4.008-0.098,3.863-1.035
				c-0.637-4.131-0.69-8.281-0.692-12.452C17.31,118.051,13.445,118.59,13.445,119.657L13.445,119.657z"/>
		</g>
	</g>
	<g>
		<g>
			<path fill="#5FC195" d="M184.181,11.033c7.153-2.354,0.266,13.162,0.148,15.919c-0.03,0.704,3.812,0.181,3.863-1.034
				c0.185-4.338,2.854-8.388,3.265-12.766c0.503-5.377-5.283-4.251-8.651-3.143C180.195,10.87,182.656,11.535,184.181,11.033
				L184.181,11.033z"/>
		</g>
	</g>
	<g>
		<g>
			<path fill="#5FC195" d="M182.943,40.108c1.356-0.331,3.067,0.254,4.373,0.62c0.854,0.24-0.549,4.852-0.713,5.489
				c-0.769,3.017-1.484,5.975-1.582,9.1c-0.017,0.483,3.83,0.021,3.862-1.035c0.157-4.974,1.972-9.65,2.769-14.528
				c-0.072-0.125-0.185-0.19-0.336-0.196c-2.959-0.94-5.638-1.245-8.656-0.507C180.4,39.602,180.699,40.657,182.943,40.108
				L182.943,40.108z"/>
		</g>
	</g>
	<g>
		<g>
			<path fill="#5FC195" d="M182.541,65.567c8.598-1.337,1.508,13.479,0.404,17.146c-0.418,1.387,3.469,0.84,3.865-0.479
				c1.866-6.204,8.823-20.786-3.748-18.831C181.208,63.692,179.872,65.982,182.541,65.567L182.541,65.567z"/>
		</g>
	</g>
	<g>
		<g>
			<path fill="#5FC195" d="M181.941,93.589c1.615,0,3.229,0,4.844,0c-0.588-0.305-1.176-0.607-1.764-0.911
				c0.457,5.562-1.979,10.811-2.793,16.229c-0.298,1.978,3.651,1.473,3.916-0.287c0.861-5.739,3.225-11.083,2.74-16.978
				c-0.062-0.778-1.209-0.911-1.764-0.911c-1.615,0-3.229,0-4.844,0C180.058,90.73,179.32,93.589,181.941,93.589L181.941,93.589z"/>
		</g>
	</g>
	<g>
		<g>
			<path fill="#5FC195" d="M182.496,119.362c6.861-0.785,0.585,10.976,0.449,14.132c-0.039,0.914,3.807,0.314,3.863-1.034
				c0.154-3.602,2.402-6.925,2.803-10.53c0.463-4.19-3.129-4.781-6.504-4.396C181.359,117.734,179.796,119.673,182.496,119.362
				L182.496,119.362z"/>
		</g>
	</g>
	<g>
		<g>
			<path fill="#5FC195" d="M197.474,11.731c0.633,4.121,0.881,8.666-0.025,12.771c-0.424,1.916,3.533,1.444,3.916-0.287
				c0.959-4.335,0.642-9.161-0.026-13.52C201.06,8.89,197.189,9.864,197.474,11.731L197.474,11.731z"/>
		</g>
	</g>
	<g>
		<g>
			<path fill="#5FC195" d="M196.068,42.641c1.086-0.511,1.524-0.805,1.84,0.482c0.293,1.198-0.055,2.603-0.305,3.777
				c-0.566,2.678-1.586,5.307-2.791,7.759c-0.793,1.613,1.842,1.449,2.641,1.126c1.191-0.481,2.744-0.407,4.016-0.41
				c0.912-0.002,2.043-0.251,2.53-1.126c0.44-0.787-0.373-1.409-1.12-1.407c-2.387,0.005-4.816,0.065-7.055,0.974
				c0.88,0.375,1.76,0.751,2.64,1.126c1.706-3.473,3.354-7.549,3.421-11.462c0.078-4.553-4.297-4.291-7.443-2.81
				C192.029,41.805,194.207,43.518,196.068,42.641L196.068,42.641z"/>
		</g>
	</g>
	<g>
		<g>
			<path fill="#5FC195" d="M195.038,66.422c1.196-0.201,2.145,0.454,2.846,1.376c1.373,1.808-1.007,4.15-2.137,5.236
				c-0.429,0.412-0.55,1.159,0.069,1.473c3.752,1.891,3.457,5.63-1.235,5.331c-1.681-0.107-4.04,2.337-1.421,2.504
				c2.951,0.188,6.875-0.401,8.628-3.149c1.885-2.956-0.255-5.382-2.945-6.738c0.022,0.491,0.047,0.981,0.07,1.473
				c2.194-2.108,4.149-4.73,2.532-7.735c-1.045-1.939-3.996-2.589-5.975-2.257C193.5,64.265,192.398,66.864,195.038,66.422
				L195.038,66.422z"/>
		</g>
	</g>
	<g>
		<g>
			<path fill="#5FC195" d="M192.636,94.496c-0.744,1.813-0.061,3.91-0.005,5.791c0.013,0.452,0.888,0.513,1.164,0.518
				c2.897,0.049,5.765,0.68,8.618-0.139c0.503-0.146,1.9-0.637,1.691-1.414c-0.205-0.768-1.67-0.522-2.173-0.379
				c-2.063,0.592-4.489-0.104-6.603-0.14c0.388,0.173,0.775,0.345,1.164,0.519c-0.051-1.728-0.688-3.614-0.006-5.277
				C196.958,92.832,193.132,93.284,192.636,94.496L192.636,94.496z"/>
		</g>
	</g>
	<g>
		<g>
			<path fill="#5FC195" d="M196.783,93.368c0.762,4.21,0.673,8.54,0.674,12.804c0,1.915,3.898,1.239,3.898-0.353
				c-0.002-4.48,0.092-9.06-0.709-13.485C200.346,90.679,196.472,91.653,196.783,93.368L196.783,93.368z"/>
		</g>
	</g>
	<g>
		<g>
			<path fill="#5FC195" d="M193.803,121.59c2.075,0,4.15,0,6.226,0c0.867,0,2.02-0.294,2.555-1.042
				c0.531-0.744-0.448-1.087-1.034-1.087c-2.075,0-4.149,0-6.226,0c-0.866,0-2.02,0.294-2.555,1.042
				C192.236,121.246,193.217,121.59,193.803,121.59L193.803,121.59z"/>
		</g>
	</g>
	<g>
		<g>
			<path fill="#5FC195" d="M193.292,120.651c0.104,1.631,0.633,3.21,0.692,4.843c0.035,0.978,0.895,1.428,1.811,1.359
				c1.411-0.104,2.745-0.589,4.15-0.692c-0.594-0.322-1.188-0.646-1.779-0.969c0.127,1.026,0.3,2.445-0.334,3.361
				c-0.471,0.679-1.977,0.283-2.617,0.188c-1.984-0.296-3.898,2.551-1.303,2.938c2.251,0.336,4.512,0.259,6.416-1.114
				c2.021-1.459,1.973-4.21,1.701-6.407c-0.094-0.76-1.178-1.013-1.779-0.969c-1.411,0.105-2.745,0.589-4.15,0.692
				c0.604,0.453,1.207,0.905,1.811,1.358c-0.061-1.644-0.59-3.218-0.691-4.843C197.083,118.292,193.176,118.836,193.292,120.651
				L193.292,120.651z"/>
		</g>
	</g>
	<g>
		<g>
			<path fill="#5FC195" d="M23.442,42.824c5.547-0.973,3.934,4.832,1.436,7.435c-0.373,0.388-0.614,1.098,0.045,1.378
				c2.025,0.858,4.159,0.888,6.331,0.891c0.893,0.001,2.035-0.27,2.541-1.092c0.476-0.775-0.401-1.278-1.085-1.279
				c-1.554-0.002-3.277,0.126-4.739-0.494c0.015,0.459,0.03,0.92,0.045,1.379c1.93-2.01,3.627-4.731,3.099-7.635
				c-0.586-3.221-4.707-3.356-7.199-2.921c-0.762,0.134-1.992,0.472-2.176,1.385C21.564,42.742,22.862,42.927,23.442,42.824
				L23.442,42.824z"/>
		</g>
	</g>
	<g>
		<g>
			<path fill="#5FC195" d="M24.374,63.968c-0.405,0.159-0.806,0.315-1.158,0.578c-0.125,0.094-0.557,0.395-0.437,0.633
				c0.704,1.406,6.385,0.199,7.693,0.156c-0.226-0.321-0.451-0.644-0.677-0.964c-1.767,1.152-2.99,2.844-4.416,4.369
				c-0.269,0.288-0.201,0.575,0.184,0.688c2.474,0.721,4.306,2.194,4.598,4.861c0.333,3.047-2.404,5.379-5.244,5.263
				c-0.894-0.037-4.45,1.612-2.475,1.692c4.378,0.182,9.575-1.275,11.288-5.758c0.705-1.843,0.168-3.745-0.941-5.272
				c-0.628-0.865-1.701-1.526-2.685-1.902c-1.527-0.582,1.839-3.161,2.681-3.71c0.971-0.634,0.026-0.987-0.677-0.964
				c-0.918,0.03-1.835,0.117-2.751,0.178c-0.557,0.037-1.113,0.066-1.669,0.095c-0.329,0.017-0.657,0.026-0.986,0.032
				c-0.576-0.107-0.893,0.246-0.948,1.062C28.304,64.003,25.9,63.368,24.374,63.968L24.374,63.968z"/>
		</g>
	</g>
	<g>
		<g>
			<path fill="#5FC195" d="M26.288,91.857c0.005-0.002,0.01-0.004,0.015-0.006c-0.697,0.309-1.394,0.617-2.09,0.927
				c0.019-0.003,0.038-0.005,0.056-0.008c-0.496-0.053-0.992-0.104-1.488-0.157c0.158,0.221-0.103,1.608-0.137,1.975
				c-0.069,0.745-0.176,1.491-0.202,2.24c0.068,0.16,0.189,0.263,0.364,0.305c3.576,0.82,7.192,0.74,10.76-0.079
				c0.414-0.096,1.914-0.583,1.732-1.261c-0.187-0.697-1.714-0.321-2.131-0.227c-1.518,0.351-3.072,0.406-4.622,0.313
				c-0.606-0.036-1.207-0.128-1.806-0.223c-0.6-0.094-0.422-0.096-0.36-0.711c0.098-0.97,0.635-2.876,0.022-3.728
				c-0.253-0.352-1.161-0.199-1.488-0.157c-0.979,0.128-1.953,0.521-2.455,1.398c-0.4,0.698,1.391,0.584,1.594,0.552
				C24.831,92.891,25.866,92.594,26.288,91.857L26.288,91.857z"/>
		</g>
	</g>
	<g>
		<g>
			<path fill="#5FC195" d="M29.47,92.044c-0.993,1.346-1.068,3.666-1.248,5.248c-0.292,2.577-0.299,5.334,0.443,7.838
				c0.455,1.537,4.312,0.479,3.863-1.035c-0.696-2.354-0.647-4.788-0.421-7.209c0.124-1.326,0.173-3.488,1-4.609
				C34.243,90.737,30.312,90.905,29.47,92.044L29.47,92.044z"/>
		</g>
	</g>
	<g>
		<g>
			<path fill="#5FC195" d="M26.584,121.432c1-0.912,2.562-1.112,3.84-0.737c0.89,0.261,1.925,0.028,2.722-0.414
				c0.387-0.214,1.292-1.045,0.392-1.309c-3.147-0.923-7.524-0.228-9.997,2.03c-0.555,0.507-0.513,1.045,0.311,1.16
				C24.708,122.283,25.93,122.027,26.584,121.432L26.584,121.432z"/>
		</g>
	</g>
	<g>
		<g>
			<path fill="#5FC195" d="M25.61,120.008c0.004-0.164-0.027-0.396,0.063-0.544c-0.918,0.355-1.836,0.714-2.755,1.069
				c0.017-0.001,0.033-0.002,0.049-0.003c-0.324-0.023-0.647-0.048-0.971-0.071c0.761,0.723,0.908,3.031,1.134,4.042
				c0.162,0.727,2.691-0.19,3.027-0.331c2.297-0.962,4.933-0.058,5.336,2.598c0.154,1.014-0.226,1.987-0.845,2.771
				c-0.148,0.188-0.357,0.339-0.544,0.484c-0.389,0.303,0.679-0.035,0.029-0.009c-0.943,0.037-1.892-0.234-2.781-0.514
				c-0.777-0.243-1.997,0.213-2.693,0.521c-0.355,0.158-1.288,0.649-0.503,0.896c3.713,1.164,10.808,0.481,11.224-4.53
				c0.145-1.754-1.11-3.229-2.686-3.794c-2.781-0.999-6.15,0.122-8.727,1.201c1.009-0.11,2.018-0.222,3.027-0.331
				c-0.296-1.327-0.546-2.764-1.119-4.002c-0.33-0.715-1.698-0.304-2.241-0.157c-1.096,0.293-1.862,0.572-1.888,1.736
				C21.736,121.519,25.588,121.044,25.61,120.008L25.61,120.008z"/>
		</g>
	</g>
	<g>
		<g>
			<path fill="#898989" d="M85.041,12.639c-4.137-1.51-9.071-0.879-12.029,2.606c-0.91,1.072-1.357,2.649-0.836,3.991
				c0.68,1.746,2.682,2.501,4.362,2.86c4.257,0.909,12.143,0.228,13.903-4.657c0.594-1.646-0.537-3.304-1.852-4.183
				c-2.216-1.481-5.021-1.616-7.598-1.471c-0.735,0.043-2,0.52-2.186,1.351c-0.199,0.9,1.153,0.923,1.686,0.893
				c2.035-0.117,6.517,0.456,6.175,3.457c-0.356,3.126-6.068,2.803-8.113,2.366c-1.938-0.414-3.429-2.012-2.298-3.955
				c1.188-2.042,3.732-2.062,5.725-1.336c0.902,0.329,1.928,0.169,2.74-0.343C85.182,13.929,85.947,12.97,85.041,12.639
				L85.041,12.639z"/>
		</g>
	</g>
	<g>
		<path fill="#5FC195" d="M127.73,14.916c-8.303,0,1.383,11.761,9.687,2.074c-2.769-3.458-6.919-4.15-11.07-3.458"/>
		<g>
			<path fill="#898989" d="M128.492,13.854c-1.9,0.053-4.579,0.425-5.592,2.305c-0.854,1.587,0.418,3.239,1.649,4.172
				c4.769,3.615,11.197,0.539,14.66-3.317c0.205-0.229,0.194-0.544,0.003-0.769c-3.202-3.736-7.934-4.438-12.594-3.742
				c-0.715,0.105-1.981,0.45-2.202,1.283c-0.222,0.836,1.192,0.849,1.655,0.778c3.731-0.557,7.033,0.238,9.547,3.173
				c0-0.256,0.002-0.512,0.003-0.768c-2.027,2.259-4.679,3.754-7.479,1.87c-0.669-0.45-1.24-1.077-1.533-1.831
				c-0.113-0.294-0.125-0.571-0.062-0.875c0.064-0.312-0.374-0.134,0.422-0.156c0.874-0.024,2.008-0.28,2.555-1.04
				C130.05,14.202,129.082,13.838,128.492,13.854L128.492,13.854z"/>
		</g>
	</g>
	<g>
		<g>
			<path fill="#898989" d="M159.796,13.866c-3.428-1.642-8.1-1.745-11.176,0.814c-1.92,1.596-2.198,3.588-0.135,5.182
				c4.83,3.731,13.939,1.127,16.232-4.318c0.064-0.122,0.04-0.221-0.079-0.293c-2.181-1.986-4.645-2.181-7.481-2.187
				c-0.92-0.002-1.939,0.258-2.731,0.732c-0.616,0.369-0.526,0.776,0.209,0.778c1.616,0.004,3.144,0.013,4.646,0.688
				c1.883,0.848,1.371,2.019,0.25,3.28c-1.478,1.658-3.37,1.56-5.359,1.019c-1.357-0.369-2.85-1.248-3.293-2.653
				c-0.23-0.733,0.145-1.486,0.622-2.026c1.177-1.33,3.374-0.336,4.647,0.273c0.709,0.34,1.799-0.01,2.48-0.252
				C158.732,14.869,160.4,14.155,159.796,13.866L159.796,13.866z"/>
		</g>
	</g>
	<g>
		<g>
			<path fill="#898989" d="M56.599,11.653c-2.686,0.019-8.987,0.419-9.011,4.362c-0.018,2.898,3.435,4.842,5.765,5.712
				c3.291,1.229,7.357,1.014,9.946-1.57c1.622-1.618,2.712-4.249,1.043-6.206c-1.657-1.943-4.677-2.265-7.051-2.298
				c-0.845-0.012-2.019,0.65-2.128,1.562c-0.123,1.02,1.031,1.257,1.785,1.268c1.338,0.02,3.097,0.278,4.018,1.357
				c0.965,1.132-0.374,2.783-1.171,3.357c-0.25,0.182-0.449,0.233-0.804,0.327c-0.065,0.019-0.903,0.102-1.102,0.09
				c-1.105-0.058-1.984-0.331-3.054-0.796c-0.797-0.347-1.627-0.914-2.323-1.535c-0.507-0.449-0.904-1.069-1.014-1.695
				c0.054,0.309,0.016-0.116,0.029-0.215c0.029-0.21-0.092,0.163,0.09-0.184c-0.221,0.422,0.328-0.262-0.043,0.062
				c0.359-0.312-0.051-0.029,0.433-0.256c0.215-0.101,0.062-0.037,0.493-0.158c0.24-0.068,0.492-0.125,0.738-0.164
				c0.998-0.155,2.013-0.185,3.02-0.19c0.846-0.006,2.018-0.638,2.128-1.562C58.506,11.912,57.355,11.648,56.599,11.653
				L56.599,11.653z"/>
		</g>
	</g>
	<g>
		<g>
			<path fill="#898989" d="M106.863,13.729c-2.314-0.438-4.726-0.509-6.973,0.292c-1.244,0.443-2.889,1.353-2.986,2.848
				c-0.241,3.735,5.718,4.441,8.242,4.414c2.657-0.028,5.461-0.599,7.842-1.794c1.242-0.623,2.677-1.825,2.305-3.376
				c-0.338-1.411-2.053-2.238-3.275-2.675c-2.137-0.762-4.545-0.75-6.756-0.376c-0.683,0.115-1.964,0.416-2.229,1.192
				c-0.262,0.771,1.265,0.675,1.611,0.615c2.2-0.372,5.129-0.114,6.588,1.817c1.713,2.271-3.592,2.668-4.504,2.698
				c-1.986,0.066-5.105-0.495-5.877-2.673c-0.111-0.315-0.113-0.604-0.021-0.918c0.079-0.27,0.378-0.494,0.269-0.431
				c0.448-0.268-0.48,0.125,0.116-0.032c-0.31,0.081,0.455-0.034,0.423-0.032c0.938-0.05,1.875,0.11,2.792,0.286
				c0.875,0.166,2.038-0.202,2.732-0.732C107.812,14.359,107.601,13.87,106.863,13.729L106.863,13.729z"/>
		</g>
	</g>
	<g>
		<g>
			<path fill="#898989" d="M127.322,48.37c4.136,1.511,9.07,0.88,12.029-2.606c0.91-1.072,1.357-2.649,0.836-3.991
				c-0.68-1.746-2.681-2.501-4.363-2.86c-4.256-0.908-12.142-0.228-13.903,4.657c-0.595,1.646,0.538,3.305,1.851,4.184
				c2.217,1.48,5.021,1.615,7.598,1.47c0.736-0.043,2.001-0.52,2.186-1.35c0.2-0.901-1.152-0.924-1.686-0.894
				c-2.035,0.117-6.516-0.456-6.174-3.457c0.355-3.126,6.068-2.803,8.113-2.366c1.939,0.414,3.428,2.013,2.297,3.955
				c-1.188,2.042-3.732,2.063-5.724,1.336c-0.903-0.329-1.928-0.169-2.741,0.344C127.179,47.08,126.416,48.04,127.322,48.37
				L127.322,48.37z"/>
		</g>
	</g>
	<g>
		<g>
			<path fill="#898989" d="M84.443,47.447c1.871-0.052,4.418-0.64,5.139-2.635c0.619-1.71-0.567-3.217-1.801-4.269
				c-4.525-3.862-11.07-0.811-14.441,2.946c-0.322,0.358-0.523,0.945-0.168,1.361c3.227,3.766,7.909,4.687,12.656,3.978
				c0.828-0.122,2.005-0.533,2.14-1.518c0.127-0.924-1.044-1.3-1.765-1.191c-3.651,0.544-6.989-0.024-9.485-2.938
				c-0.056,0.454-0.112,0.908-0.168,1.361c2.034-2.268,4.759-3.966,7.679-2.23c0.733,0.437,1.356,1.096,1.59,1.924
				c0.205,0.727-0.301,0.481-1,0.501C82.665,44.799,81.807,47.521,84.443,47.447L84.443,47.447z"/>
		</g>
	</g>
	<g>
		<g>
			<path fill="#898989" d="M52.566,47.143c3.426,1.642,8.1,1.745,11.176-0.814c1.918-1.596,2.197-3.588,0.135-5.182
				c-4.831-3.73-13.94-1.127-16.233,4.319c-0.065,0.122-0.04,0.22,0.079,0.293c2.181,1.985,4.645,2.18,7.481,2.186
				c0.92,0.002,1.94-0.258,2.731-0.731c0.617-0.369,0.526-0.777-0.209-0.779c-1.615-0.004-3.143-0.012-4.645-0.688
				c-1.883-0.849-1.373-2.02-0.25-3.28c1.477-1.659,3.369-1.561,5.359-1.02c1.357,0.369,2.85,1.248,3.293,2.653
				c0.23,0.734-0.145,1.487-0.623,2.027c-1.176,1.33-3.373,0.336-4.647-0.274c-0.708-0.34-1.798,0.01-2.479,0.252
				C53.63,46.14,51.962,46.853,52.566,47.143L52.566,47.143z"/>
		</g>
	</g>
	<g>
		<g>
			<path fill="#898989" d="M155.762,49.354c2.687-0.018,8.986-0.419,9.011-4.362c0.019-2.898-3.435-4.842-5.765-5.712
				c-3.29-1.229-7.356-1.014-9.946,1.57c-1.621,1.619-2.711,4.249-1.043,6.206c1.658,1.943,4.678,2.265,7.051,2.298
				c0.845,0.012,2.02-0.649,2.129-1.562c0.123-1.021-1.032-1.258-1.786-1.269c-1.337-0.019-3.097-0.278-4.017-1.356
				c-0.966-1.133,0.373-2.783,1.17-3.358c0.25-0.181,0.449-0.233,0.805-0.327c0.064-0.018,0.902-0.101,1.101-0.09
				c1.104,0.058,1.984,0.331,3.054,0.796c0.797,0.347,1.627,0.914,2.323,1.535c0.507,0.45,0.904,1.07,1.015,1.696
				c-0.055-0.31-0.017,0.115-0.03,0.215c-0.029,0.21,0.093-0.164-0.089,0.183c0.222-0.422-0.329,0.263,0.044-0.061
				c-0.36,0.312,0.05,0.028-0.433,0.255c-0.216,0.102-0.062,0.038-0.492,0.159c-0.241,0.067-0.492,0.125-0.739,0.164
				c-0.997,0.154-2.013,0.184-3.019,0.189c-0.847,0.006-2.019,0.638-2.129,1.562C153.855,49.097,155.006,49.359,155.762,49.354
				L155.762,49.354z"/>
		</g>
	</g>
	<g>
		<path fill="#5FC195" d="M106.714,46.351c10.378,2.076,8.303-6.918-2.075-5.535c-10.377,1.384-4.843,7.611,2.769,6.228"/>
		<g>
			<path fill="#898989" d="M105.14,47.146c2.25,0.428,4.577,0.59,6.797-0.096c1.34-0.413,3.279-1.204,3.504-2.812
				c0.181-1.295-0.801-2.35-1.808-3.012c-1.75-1.149-4.017-1.44-6.062-1.418c-2.764,0.03-5.691,0.551-8.176,1.798
				c-1.216,0.61-2.699,1.743-2.328,3.288c0.336,1.402,2.054,2.193,3.262,2.624c2.13,0.759,4.546,0.7,6.742,0.329
				c0.662-0.112,1.949-0.397,2.248-1.121c0.291-0.708-1.319-0.536-1.578-0.492c-2.064,0.35-5.271,0.104-6.573-1.851
				c-1.574-2.361,2.862-2.771,4.099-2.839c2.08-0.117,5.268,0.422,6.195,2.616c0.238,0.564,0.124,1.309-0.266,1.605
				c-0.276,0.211,0.059-0.008,0.178-0.045c-0.457,0.141,0.183,0.014-0.365,0.059c-0.902,0.075-1.834-0.061-2.72-0.229
				c-0.909-0.173-1.89,0.044-2.71,0.459C105.279,46.165,104.223,46.974,105.14,47.146L105.14,47.146z"/>
		</g>
	</g>
	<g>
		<g>
			<path fill="#898989" d="M85.041,66.43c-4.137-1.509-9.071-0.878-12.029,2.606c-0.91,1.073-1.357,2.65-0.836,3.992
				c0.68,1.746,2.682,2.501,4.362,2.859c4.257,0.909,12.143,0.228,13.903-4.657c0.594-1.646-0.537-3.304-1.852-4.183
				c-2.216-1.481-5.021-1.616-7.598-1.471c-0.735,0.043-2,0.521-2.186,1.351c-0.199,0.9,1.153,0.923,1.686,0.893
				c2.035-0.117,6.517,0.457,6.175,3.458c-0.356,3.125-6.068,2.804-8.113,2.366c-1.938-0.415-3.429-2.012-2.298-3.956
				c1.188-2.041,3.732-2.062,5.725-1.336c0.902,0.329,1.928,0.169,2.74-0.343C85.182,67.721,85.947,66.761,85.041,66.43
				L85.041,66.43z"/>
		</g>
	</g>
	<g>
		<g>
			<path fill="#898989" d="M127.918,67.352c-1.871,0.052-4.417,0.64-5.14,2.636c-0.617,1.709,0.567,3.218,1.801,4.27
				c4.525,3.861,11.07,0.809,14.441-2.948c0.322-0.358,0.524-0.945,0.168-1.361c-3.227-3.766-7.908-4.686-12.654-3.978
				c-0.828,0.123-2.006,0.534-2.141,1.518c-0.127,0.925,1.045,1.3,1.766,1.191c3.65-0.544,6.988,0.024,9.484,2.938
				c0.055-0.454,0.111-0.907,0.168-1.36c-2.035,2.267-4.76,3.966-7.68,2.23c-0.732-0.436-1.355-1.097-1.589-1.925
				c-0.205-0.726,0.301-0.48,1-0.501C129.697,70.002,130.554,67.277,127.918,67.352L127.918,67.352z"/>
		</g>
	</g>
	<g>
		<g>
			<path fill="#898989" d="M159.796,67.657c-3.428-1.642-8.1-1.745-11.176,0.814c-1.92,1.597-2.198,3.589-0.135,5.183
				c4.83,3.731,13.939,1.126,16.232-4.319c0.064-0.122,0.04-0.221-0.079-0.293c-2.181-1.986-4.645-2.181-7.481-2.187
				c-0.92-0.002-1.939,0.258-2.731,0.732c-0.616,0.369-0.526,0.776,0.209,0.778c1.616,0.004,3.144,0.013,4.646,0.688
				c1.883,0.848,1.371,2.019,0.25,3.28c-1.478,1.659-3.37,1.561-5.359,1.02c-1.357-0.37-2.85-1.249-3.293-2.653
				c-0.23-0.734,0.145-1.486,0.622-2.027c1.177-1.33,3.374-0.336,4.647,0.273c0.709,0.34,1.799-0.01,2.48-0.252
				C158.732,68.66,160.4,67.946,159.796,67.657L159.796,67.657z"/>
		</g>
	</g>
	<g>
		<path fill="#5FC195" d="M56.428,66.859c-15.913,0,0,12.453,5.534,6.228c3.459-4.151-0.691-6.228-4.844-6.228"/>
		<g>
			<path fill="#898989" d="M57.675,66.052c-2.376,0.016-4.783,0.198-7.023,1.056c-1.175,0.451-2.809,1.242-3.005,2.653
				c-0.358,2.579,3.11,4.386,5.047,5.147c3.271,1.288,7.486,0.917,10.291-1.279c1.518-1.188,2.975-3.545,1.68-5.364
				c-1.314-1.848-4.225-2.184-6.299-2.213c-0.928-0.013-1.945,0.223-2.731,0.731c-0.603,0.392-0.522,0.874,0.237,0.886
				c1.665,0.022,3.402,0.296,4.705,1.413c1.46,1.253,0.453,3.327-0.647,4.428c-0.306,0.305-0.642,0.477-0.713,0.503
				c0.156-0.06,0.071-0.024-0.083,0.001c0.204-0.034-0.381,0.004-0.467,0.002c-1.068-0.029-2.152-0.342-3.127-0.766
				c-1.568-0.684-3.488-1.883-3.991-3.629c-0.174-0.606,0.046-1.266,0.476-1.565c0.049-0.033,0.326-0.148,0.168-0.089
				c-0.365,0.141,0.465-0.112,0.326-0.085c0.871-0.175,1.776-0.207,2.663-0.213c0.937-0.007,1.937-0.217,2.732-0.732
				C58.504,66.554,58.445,66.047,57.675,66.052L57.675,66.052z"/>
		</g>
	</g>
	<g>
		<g>
			<path fill="#898989" d="M106.863,67.521c-2.314-0.438-4.726-0.508-6.973,0.292c-1.244,0.444-2.889,1.352-2.986,2.848
				c-0.241,3.735,5.718,4.441,8.242,4.414c2.657-0.028,5.461-0.599,7.842-1.794c1.242-0.623,2.677-1.825,2.305-3.376
				c-0.338-1.411-2.053-2.238-3.275-2.675c-2.137-0.762-4.545-0.749-6.756-0.376c-0.683,0.115-1.964,0.416-2.229,1.192
				c-0.262,0.771,1.265,0.675,1.611,0.615c2.2-0.37,5.129-0.114,6.588,1.818c1.713,2.271-3.592,2.667-4.504,2.697
				c-1.986,0.066-5.105-0.495-5.877-2.673c-0.111-0.315-0.113-0.603-0.021-0.917c0.079-0.271,0.378-0.495,0.269-0.431
				c0.448-0.269-0.48,0.124,0.116-0.033c-0.31,0.081,0.455-0.034,0.423-0.032c0.938-0.049,1.875,0.11,2.792,0.286
				c0.875,0.166,2.038-0.202,2.732-0.732C107.812,68.15,107.601,67.661,106.863,67.521L106.863,67.521z"/>
		</g>
	</g>
	<g>
		<g>
			<path fill="#898989" d="M127.322,102.161c4.136,1.511,9.07,0.88,12.029-2.606c0.91-1.072,1.357-2.649,0.836-3.991
				c-0.68-1.746-2.681-2.501-4.363-2.86c-4.256-0.908-12.143-0.228-13.903,4.657c-0.595,1.646,0.538,3.304,1.851,4.184
				c2.217,1.481,5.021,1.616,7.598,1.471c0.736-0.043,2.001-0.521,2.186-1.351c0.2-0.9-1.152-0.923-1.686-0.893
				c-2.035,0.117-6.516-0.457-6.174-3.458c0.355-3.126,6.067-2.803,8.113-2.366c1.939,0.414,3.428,2.013,2.297,3.955
				c-1.188,2.042-3.732,2.063-5.724,1.336c-0.903-0.329-1.928-0.169-2.741,0.344C127.179,100.871,126.416,101.83,127.322,102.161
				L127.322,102.161z"/>
		</g>
	</g>
	<g>
		<g>
			<path fill="#898989" d="M84.443,101.238c1.871-0.052,4.418-0.64,5.139-2.635c0.619-1.71-0.567-3.217-1.801-4.269
				c-4.525-3.862-11.07-0.811-14.441,2.946c-0.322,0.358-0.523,0.945-0.168,1.361c3.227,3.768,7.909,4.688,12.656,3.979
				c0.828-0.123,2.005-0.534,2.14-1.519c0.127-0.924-1.044-1.299-1.765-1.19c-3.651,0.544-6.989-0.026-9.485-2.939
				c-0.056,0.454-0.112,0.908-0.168,1.361c2.034-2.268,4.759-3.966,7.679-2.23c0.733,0.437,1.356,1.097,1.59,1.924
				c0.205,0.727-0.301,0.481-1,0.501C82.665,98.59,81.807,101.312,84.443,101.238L84.443,101.238z"/>
		</g>
	</g>
	<g>
		<g>
			<path fill="#898989" d="M52.566,100.934c3.426,1.644,8.1,1.744,11.176-0.814c1.918-1.596,2.197-3.588,0.135-5.182
				c-4.831-3.73-13.94-1.126-16.233,4.32c-0.065,0.122-0.04,0.22,0.079,0.293c2.181,1.986,4.645,2.18,7.481,2.186
				c0.92,0.002,1.94-0.258,2.731-0.731c0.617-0.369,0.526-0.777-0.209-0.779c-1.615-0.004-3.143-0.012-4.645-0.688
				c-1.883-0.848-1.373-2.019-0.25-3.279c1.477-1.66,3.369-1.562,5.359-1.021c1.357,0.369,2.85,1.248,3.293,2.653
				c0.23,0.734-0.145,1.487-0.623,2.027c-1.178,1.33-3.373,0.337-4.647-0.274c-0.708-0.34-1.798,0.011-2.479,0.252
				C53.63,99.931,51.962,100.644,52.566,100.934L52.566,100.934z"/>
		</g>
	</g>
	<g>
		<path fill="#5FC195" d="M155.933,101.73c15.912,0,0-12.452-5.535-6.227c-3.459,4.15,0.692,6.227,4.844,6.227"/>
		<g>
			<path fill="#898989" d="M155.142,102.675c2.282-0.016,4.662-0.208,6.787-1.107c1.174-0.497,2.703-1.378,2.805-2.809
				c0.188-2.638-3.228-4.463-5.278-5.229c-3.251-1.214-7.425-0.955-10.146,1.357c-1.631,1.386-2.867,3.693-1.488,5.632
				c1.343,1.886,4.558,2.127,6.627,2.156c0.838,0.012,2.009-0.327,2.567-0.991c0.595-0.707-0.509-0.889-0.981-0.896
				c-1.573-0.021-3.289-0.354-4.439-1.5c-1.215-1.211-0.174-3.233,0.896-4.144c0.199-0.17,0.271-0.209,0.443-0.305
				c0.086-0.048,0.356-0.127,0.109-0.053c0.161-0.049,0.431-0.107,0.88-0.085c1.103,0.059,2.149,0.383,3.155,0.819
				c1.494,0.649,3.367,1.872,3.763,3.569c0.067,0.291,0.035,0.531-0.065,0.812c-0.109,0.305-0.303,0.405-0.397,0.459
				c-0.079,0.046-0.289,0.115-0.153,0.072c-0.273,0.086-0.439,0.12-0.688,0.164c-0.928,0.165-1.872,0.184-2.812,0.188
				c-0.845,0.006-2,0.317-2.566,0.991C153.57,102.479,154.663,102.678,155.142,102.675L155.142,102.675z"/>
		</g>
	</g>
	<g>
		<g>
			<path fill="#898989" d="M105.5,101.069c2.314,0.439,4.725,0.509,6.972-0.292c1.245-0.442,2.888-1.352,2.985-2.848
				c0.242-3.735-5.717-4.441-8.242-4.413c-2.658,0.029-5.461,0.599-7.843,1.794c-1.241,0.622-2.677,1.825-2.304,3.376
				c0.338,1.41,2.053,2.238,3.275,2.674c2.137,0.763,4.545,0.75,6.755,0.376c0.683-0.115,1.964-0.416,2.228-1.191
				c0.263-0.771-1.264-0.676-1.61-0.616c-2.2,0.372-5.128,0.114-6.587-1.817c-1.714-2.271,3.592-2.667,4.505-2.697
				c1.985-0.067,5.104,0.494,5.876,2.672c0.112,0.315,0.114,0.604,0.02,0.919c-0.08,0.269-0.377,0.493-0.268,0.43
				c-0.449,0.268,0.48-0.125-0.115,0.033c0.309-0.082-0.455,0.034-0.424,0.031c-0.938,0.051-1.875-0.11-2.792-0.285
				c-0.875-0.166-2.038,0.201-2.731,0.731C104.549,100.439,104.76,100.93,105.5,101.069L105.5,101.069z"/>
		</g>
	</g>
	<g>
		<g>
			<path fill="#898989" d="M85.041,120.222c-4.137-1.51-9.071-0.879-12.029,2.606c-0.91,1.072-1.357,2.649-0.836,3.991
				c0.68,1.746,2.682,2.501,4.362,2.86c4.257,0.909,12.143,0.227,13.903-4.657c0.594-1.646-0.537-3.305-1.852-4.184
				c-2.216-1.481-5.021-1.616-7.598-1.471c-0.735,0.044-2,0.521-2.186,1.351c-0.199,0.9,1.153,0.923,1.686,0.893
				c2.035-0.117,6.517,0.457,6.175,3.458c-0.356,3.126-6.068,2.804-8.113,2.366c-1.938-0.414-3.429-2.012-2.298-3.955
				c1.188-2.042,3.732-2.062,5.725-1.336c0.902,0.329,1.928,0.169,2.74-0.343C85.182,121.512,85.947,120.553,85.041,120.222
				L85.041,120.222z"/>
		</g>
	</g>
	<g>
		<g>
			<path fill="#898989" d="M127.918,121.144c-1.871,0.052-4.417,0.64-5.14,2.635c-0.617,1.71,0.567,3.217,1.801,4.27
				c4.525,3.861,11.07,0.81,14.441-2.947c0.322-0.358,0.524-0.945,0.168-1.361c-3.226-3.767-7.908-4.687-12.654-3.979
				c-0.828,0.123-2.006,0.534-2.141,1.518c-0.127,0.924,1.045,1.299,1.766,1.191c3.65-0.544,6.988,0.025,9.484,2.938
				c0.055-0.454,0.111-0.908,0.168-1.36c-2.035,2.267-4.76,3.965-7.68,2.229c-0.732-0.436-1.355-1.097-1.589-1.924
				c-0.205-0.727,0.301-0.481,1-0.501C129.697,123.794,130.554,121.069,127.918,121.144L127.918,121.144z"/>
		</g>
	</g>
	<g>
		<g>
			<path fill="#898989" d="M159.796,121.448c-3.426-1.642-8.102-1.745-11.176,0.814c-1.92,1.597-2.198,3.589-0.135,5.183
				c4.83,3.731,13.939,1.126,16.232-4.319c0.064-0.122,0.04-0.221-0.079-0.293c-2.181-1.986-4.645-2.181-7.481-2.187
				c-0.92-0.002-1.939,0.258-2.731,0.732c-0.616,0.369-0.526,0.776,0.209,0.778c1.616,0.005,3.144,0.013,4.646,0.688
				c1.883,0.848,1.371,2.019,0.25,3.28c-1.478,1.659-3.37,1.561-5.359,1.02c-1.357-0.37-2.85-1.249-3.293-2.653
				c-0.23-0.734,0.145-1.486,0.622-2.027c1.177-1.329,3.374-0.336,4.647,0.273c0.709,0.34,1.799-0.01,2.48-0.252
				C158.732,122.451,160.4,121.737,159.796,121.448L159.796,121.448z"/>
		</g>
	</g>
	<g>
		<path fill="#5FC195" d="M56.428,120.651c-15.913,0,0,12.452,5.534,6.227c3.459-4.15-0.691-6.227-4.844-6.227"/>
		<g>
			<path fill="#898989" d="M57.693,119.907c-2.367,0.017-4.791,0.228-7.018,1.079c-1.194,0.458-2.837,1.192-3.038,2.637
				c-0.344,2.476,3.141,4.33,5.005,5.025c3.358,1.254,7.399,0.839,10.33-1.275c1.557-1.121,2.959-3.537,1.692-5.316
				c-1.308-1.836-4.237-2.12-6.281-2.148c-0.912-0.013-1.946,0.271-2.731,0.732c-0.629,0.37-0.521,0.746,0.203,0.756
				c1.668,0.023,3.414,0.338,4.715,1.453c1.463,1.255,0.482,3.387-0.629,4.497c-0.148,0.147-0.317,0.296-0.494,0.412
				c-0.019,0.013-0.473,0.232-0.207,0.133c0.317-0.12-0.271,0.021,0.201-0.043c-0.232,0.031-0.471,0.03-0.758,0.021
				c-1.074-0.028-2.16-0.381-3.138-0.806c-1.582-0.688-3.491-1.893-3.998-3.653c-0.2-0.692,0.049-1.299,0.604-1.729
				c0.084-0.065,0.22-0.091,0.017-0.014c0.571-0.219-0.388,0.061,0.325-0.085c0.875-0.176,1.783-0.184,2.671-0.188
				c0.921-0.006,1.937-0.265,2.731-0.732C58.513,120.301,58.425,119.902,57.693,119.907L57.693,119.907z"/>
		</g>
	</g>
	<g>
		<g>
			<path fill="#898989" d="M106.863,121.312c-2.314-0.439-4.726-0.509-6.973,0.292c-1.244,0.443-2.889,1.353-2.986,2.848
				c-0.241,3.735,5.718,4.441,8.242,4.413c2.657-0.028,5.461-0.599,7.842-1.794c1.242-0.623,2.677-1.825,2.305-3.376
				c-0.338-1.411-2.053-2.238-3.275-2.675c-2.137-0.762-4.545-0.749-6.756-0.376c-0.683,0.115-1.964,0.416-2.229,1.192
				c-0.262,0.771,1.265,0.675,1.611,0.616c2.2-0.371,5.129-0.115,6.588,1.817c1.713,2.271-3.592,2.667-4.504,2.697
				c-1.986,0.068-5.105-0.494-5.877-2.672c-0.111-0.315-0.113-0.604-0.021-0.918c0.079-0.27,0.378-0.494,0.269-0.431
				c0.448-0.268-0.48,0.125,0.116-0.032c-0.31,0.082,0.455-0.034,0.423-0.032c0.938-0.05,1.875,0.111,2.792,0.286
				c0.875,0.166,2.038-0.202,2.732-0.732C107.812,121.942,107.601,121.453,106.863,121.312L106.863,121.312z"/>
		</g>
	</g>
	<g>
		<g>
			<path fill="#898989" d="M296.764,129.052c4.136,1.51,9.07,0.879,12.029-2.607c0.911-1.071,1.358-2.648,0.837-3.991
				c-0.68-1.745-2.681-2.501-4.361-2.859c-4.258-0.909-12.144-0.228-13.904,4.657c-0.594,1.646,0.537,3.305,1.852,4.184
				c2.216,1.481,5.021,1.616,7.598,1.47c0.735-0.043,2-0.52,2.186-1.35c0.199-0.901-1.153-0.923-1.686-0.894
				c-2.035,0.117-6.517-0.456-6.175-3.458c0.356-3.126,6.068-2.803,8.113-2.365c1.938,0.414,3.429,2.012,2.298,3.955
				c-1.188,2.042-3.732,2.062-5.725,1.336c-0.903-0.329-1.928-0.169-2.741,0.343C296.622,127.762,295.859,128.721,296.764,129.052
				L296.764,129.052z"/>
		</g>
	</g>
	<g>
		<g>
			<path fill="#898989" d="M253.892,128.129c1.869-0.053,4.415-0.641,5.137-2.636c0.619-1.71-0.565-3.217-1.799-4.269
				c-4.524-3.863-11.068-0.81-14.439,2.947c-0.321,0.357-0.523,0.944-0.167,1.36c3.225,3.768,7.905,4.688,12.651,3.979
				c0.828-0.123,2.006-0.534,2.142-1.518c0.127-0.925-1.046-1.3-1.767-1.191c-3.649,0.544-6.986-0.026-9.481-2.939
				c-0.056,0.454-0.111,0.908-0.167,1.361c2.033-2.266,4.757-3.965,7.677-2.229c0.731,0.436,1.354,1.097,1.589,1.924
				c0.204,0.726-0.301,0.48-1,0.501C252.111,125.479,251.254,128.202,253.892,128.129L253.892,128.129z"/>
		</g>
	</g>
	<g>
		<g>
			<path fill="#898989" d="M222.017,127.822c3.426,1.644,8.1,1.744,11.174-0.813c1.92-1.597,2.199-3.588,0.137-5.183
				c-4.83-3.73-13.939-1.125-16.231,4.32c-0.065,0.122-0.039,0.22,0.079,0.293c2.182,1.986,4.645,2.18,7.479,2.187
				c0.92,0.002,1.94-0.259,2.732-0.732c0.617-0.369,0.526-0.777-0.209-0.779c-1.615-0.004-3.143-0.012-4.645-0.688
				c-1.883-0.849-1.373-2.02-0.25-3.28c1.477-1.66,3.369-1.561,5.357-1.02c1.357,0.368,2.85,1.248,3.292,2.652
				c0.231,0.734-0.144,1.487-0.622,2.027c-1.177,1.33-3.371,0.337-4.646-0.274c-0.707-0.34-1.799,0.012-2.479,0.252
				C223.082,126.819,221.414,127.533,222.017,127.822L222.017,127.822z"/>
		</g>
	</g>
	<g>
		<g>
			<path fill="#898989" d="M325.206,130.035c2.686-0.018,8.985-0.418,9.011-4.361c0.018-2.898-3.436-4.842-5.766-5.712
				c-3.289-1.229-7.356-1.014-9.946,1.57c-1.622,1.619-2.711,4.248-1.042,6.205c1.657,1.944,4.677,2.266,7.051,2.298
				c0.844,0.013,2.02-0.649,2.128-1.562c0.123-1.021-1.032-1.257-1.786-1.269c-1.337-0.019-3.095-0.277-4.016-1.356
				c-0.966-1.132,0.373-2.782,1.171-3.357c0.25-0.181,0.448-0.232,0.804-0.327c0.065-0.018,0.903-0.101,1.103-0.091
				c1.104,0.059,1.982,0.331,3.054,0.797c0.797,0.348,1.626,0.914,2.323,1.534c0.506,0.451,0.903,1.071,1.014,1.697
				c-0.055-0.31-0.016,0.116-0.028,0.214c-0.029,0.21,0.093-0.164-0.091,0.183c0.223-0.422-0.328,0.263,0.044-0.061
				c-0.359,0.312,0.052,0.03-0.433,0.256c-0.215,0.102-0.062,0.037-0.492,0.158c-0.241,0.068-0.492,0.125-0.739,0.164
				c-0.996,0.155-2.013,0.184-3.02,0.189c-0.846,0.007-2.017,0.639-2.128,1.562C323.298,129.776,324.45,130.041,325.206,130.035
				L325.206,130.035z"/>
		</g>
	</g>
	<g>
		<g>
			<path fill="#898989" d="M274.943,127.96c2.313,0.438,4.726,0.509,6.972-0.292c1.245-0.443,2.889-1.353,2.985-2.849
				c0.242-3.733-5.715-4.44-8.24-4.413c-2.657,0.029-5.461,0.6-7.844,1.794c-1.24,0.622-2.676,1.825-2.304,3.376
				c0.339,1.41,2.054,2.238,3.275,2.676c2.138,0.762,4.545,0.749,6.756,0.376c0.683-0.115,1.964-0.416,2.228-1.192
				c0.262-0.771-1.264-0.675-1.611-0.616c-2.199,0.371-5.129,0.114-6.586-1.817c-1.715-2.271,3.59-2.668,4.504-2.697
				c1.984-0.068,5.104,0.494,5.875,2.672c0.111,0.314,0.113,0.603,0.02,0.918c-0.078,0.269-0.377,0.494-0.268,0.43
				c-0.448,0.269,0.479-0.125-0.116,0.033c0.31-0.082-0.455,0.034-0.423,0.032c-0.938,0.05-1.875-0.111-2.791-0.286
				c-0.875-0.166-2.038,0.202-2.732,0.732C273.992,127.33,274.204,127.818,274.943,127.96L274.943,127.96z"/>
		</g>
	</g>
	<g>
		<g>
			<path fill="#898989" d="M254.486,93.318c-4.135-1.509-9.068-0.878-12.026,2.607c-0.911,1.073-1.358,2.649-0.836,3.992
				c0.679,1.746,2.68,2.501,4.36,2.859c4.258,0.909,12.143,0.228,13.902-4.656c0.594-1.646-0.537-3.306-1.852-4.185
				c-2.215-1.481-5.021-1.616-7.596-1.47c-0.736,0.043-2.002,0.52-2.187,1.35c-0.2,0.901,1.153,0.923,1.687,0.894
				c2.034-0.117,6.515,0.457,6.172,3.458c-0.354,3.125-6.065,2.803-8.11,2.365c-1.938-0.414-3.429-2.012-2.298-3.955
				c1.188-2.041,3.73-2.063,5.723-1.337c0.903,0.329,1.928,0.169,2.741-0.343C254.629,94.608,255.394,93.649,254.486,93.318
				L254.486,93.318z"/>
		</g>
	</g>
	<g>
		<g>
			<path fill="#898989" d="M297.361,94.242c-1.871,0.053-4.416,0.641-5.14,2.636c-0.618,1.71,0.567,3.217,1.8,4.269
				c4.526,3.863,11.07,0.811,14.442-2.947c0.321-0.357,0.523-0.944,0.167-1.36c-3.227-3.768-7.908-4.688-12.655-3.979
				c-0.827,0.123-2.005,0.534-2.141,1.519c-0.127,0.924,1.045,1.299,1.766,1.19c3.651-0.544,6.99,0.026,9.485,2.939
				c0.056-0.454,0.111-0.908,0.167-1.361c-2.034,2.266-4.759,3.965-7.679,2.23c-0.733-0.437-1.355-1.097-1.59-1.925
				c-0.203-0.726,0.301-0.48,1-0.501C299.14,96.893,299.998,94.169,297.361,94.242L297.361,94.242z"/>
		</g>
	</g>
	<g>
		<g>
			<path fill="#898989" d="M329.239,94.548c-3.428-1.643-8.101-1.745-11.176,0.813c-1.919,1.598-2.197,3.589-0.135,5.184
				c4.83,3.73,13.939,1.126,16.232-4.32c0.064-0.122,0.039-0.22-0.079-0.293c-2.182-1.986-4.646-2.18-7.48-2.186
				c-0.92-0.003-1.939,0.258-2.731,0.731c-0.617,0.369-0.526,0.777,0.209,0.779c1.616,0.004,3.143,0.012,4.645,0.688
				c1.884,0.849,1.372,2.02,0.25,3.28c-1.477,1.66-3.369,1.561-5.357,1.02c-1.358-0.369-2.852-1.248-3.293-2.652
				c-0.231-0.735,0.144-1.487,0.622-2.028c1.177-1.33,3.372-0.336,4.647,0.274c0.708,0.339,1.798-0.011,2.479-0.252
				C328.173,95.551,329.842,94.837,329.239,94.548L329.239,94.548z"/>
		</g>
	</g>
	<g>
		<g>
			<path fill="#898989" d="M226.049,92.336c-2.687,0.018-8.983,0.419-9.009,4.361c-0.018,2.898,3.434,4.842,5.764,5.712
				c3.289,1.229,7.355,1.014,9.945-1.57c1.621-1.619,2.712-4.249,1.043-6.205c-1.658-1.944-4.678-2.266-7.053-2.298
				c-0.844-0.013-2.019,0.649-2.127,1.562c-0.123,1.021,1.031,1.257,1.785,1.269c1.338,0.019,3.096,0.276,4.018,1.356
				c0.965,1.132-0.374,2.782-1.172,3.357c-0.25,0.181-0.448,0.232-0.805,0.327c-0.063,0.018-0.902,0.101-1.101,0.091
				c-1.104-0.059-1.983-0.331-3.054-0.797c-0.797-0.347-1.627-0.914-2.322-1.534c-0.506-0.451-0.902-1.071-1.014-1.697
				c0.055,0.311,0.017-0.116,0.029-0.214c0.029-0.21-0.093,0.164,0.09-0.183c-0.223,0.422,0.328-0.263-0.045,0.061
				c0.36-0.312-0.051-0.029,0.434-0.255c0.215-0.103,0.062-0.038,0.492-0.159c0.24-0.068,0.492-0.125,0.738-0.164
				c0.996-0.155,2.012-0.184,3.02-0.189c0.846-0.007,2.017-0.639,2.128-1.562C227.957,92.595,226.805,92.33,226.049,92.336
				L226.049,92.336z"/>
		</g>
	</g>
	<g>
		<g>
			<path fill="#898989" d="M276.307,94.411c-2.313-0.438-4.725-0.509-6.972,0.292c-1.245,0.443-2.889,1.353-2.984,2.849
				c-0.242,3.733,5.715,4.44,8.239,4.413c2.657-0.029,5.461-0.6,7.843-1.794c1.24-0.623,2.676-1.825,2.305-3.376
				c-0.34-1.411-2.055-2.239-3.275-2.676c-2.139-0.762-4.545-0.748-6.756-0.375c-0.684,0.114-1.965,0.416-2.229,1.191
				c-0.261,0.771,1.264,0.675,1.612,0.616c2.199-0.371,5.128-0.114,6.586,1.818c1.715,2.271-3.59,2.667-4.504,2.696
				c-1.983,0.068-5.104-0.495-5.874-2.672c-0.111-0.314-0.113-0.603-0.021-0.918c0.08-0.269,0.379-0.495,0.27-0.43
				c0.448-0.269-0.48,0.125,0.115-0.033c-0.309,0.082,0.455-0.034,0.423-0.032c0.937-0.05,1.875,0.111,2.791,0.286
				c0.875,0.166,2.038-0.202,2.731-0.731C277.256,95.042,277.045,94.553,276.307,94.411L276.307,94.411z"/>
		</g>
	</g>
	<g>
		<g>
			<path fill="#898989" d="M296.764,75.261c4.136,1.51,9.07,0.879,12.029-2.607c0.911-1.071,1.358-2.648,0.837-3.991
				c-0.68-1.745-2.681-2.501-4.361-2.859c-4.258-0.909-12.144-0.229-13.904,4.657c-0.594,1.646,0.537,3.304,1.852,4.183
				c2.216,1.481,5.021,1.616,7.598,1.47c0.735-0.043,2-0.519,2.186-1.35c0.199-0.901-1.153-0.923-1.686-0.894
				c-2.035,0.117-6.517-0.456-6.175-3.456c0.356-3.126,6.068-2.804,8.113-2.366c1.938,0.414,3.429,2.012,2.298,3.955
				c-1.188,2.042-3.732,2.062-5.725,1.336c-0.903-0.329-1.928-0.169-2.741,0.343C296.622,73.971,295.859,74.93,296.764,75.261
				L296.764,75.261z"/>
		</g>
	</g>
	<g>
		<g>
			<path fill="#898989" d="M253.892,74.338c1.869-0.053,4.415-0.641,5.137-2.636c0.619-1.71-0.565-3.217-1.799-4.269
				c-4.524-3.863-11.07-0.809-14.44,2.947c-0.321,0.357-0.523,0.944-0.167,1.36c3.226,3.767,7.906,4.688,12.652,3.979
				c0.828-0.123,2.006-0.534,2.142-1.519c0.127-0.924-1.045-1.299-1.767-1.19c-3.65,0.544-6.988-0.026-9.482-2.939
				c-0.057,0.454-0.111,0.908-0.167,1.361c2.032-2.266,4.758-3.965,7.678-2.23c0.731,0.437,1.354,1.098,1.588,1.925
				c0.205,0.726-0.3,0.48-0.999,0.501C252.111,71.688,251.254,74.411,253.892,74.338L253.892,74.338z"/>
		</g>
	</g>
	<g>
		<g>
			<path fill="#898989" d="M222.017,74.031c3.428,1.643,8.1,1.745,11.174-0.813c1.92-1.597,2.197-3.588,0.135-5.183
				c-4.829-3.73-13.938-1.126-16.229,4.319c-0.065,0.122-0.039,0.22,0.079,0.293c2.18,1.986,4.643,2.18,7.479,2.187
				c0.92,0.002,1.94-0.259,2.732-0.732c0.617-0.369,0.526-0.777-0.209-0.779c-1.615-0.004-3.143-0.012-4.645-0.688
				c-1.883-0.848-1.37-2.021-0.25-3.28c1.478-1.659,3.369-1.56,5.357-1.019c1.357,0.369,2.85,1.248,3.292,2.652
				c0.231,0.734-0.143,1.486-0.62,2.027c-1.178,1.33-3.373,0.336-4.647-0.274c-0.708-0.339-1.798,0.011-2.479,0.253
				C223.083,73.028,221.414,73.742,222.017,74.031L222.017,74.031z"/>
		</g>
	</g>
	<g>
		<g>
			<path fill="#898989" d="M325.206,76.244c2.686-0.018,8.985-0.418,9.011-4.361c0.018-2.899-3.436-4.842-5.766-5.712
				c-3.289-1.229-7.356-1.015-9.946,1.569c-1.622,1.619-2.711,4.249-1.042,6.206c1.657,1.944,4.677,2.266,7.051,2.298
				c0.844,0.013,2.02-0.649,2.128-1.562c0.123-1.021-1.032-1.257-1.786-1.269c-1.337-0.019-3.095-0.277-4.016-1.357
				c-0.966-1.131,0.373-2.782,1.171-3.357c0.25-0.181,0.448-0.231,0.804-0.326c0.065-0.018,0.903-0.102,1.103-0.091
				c1.104,0.059,1.982,0.331,3.054,0.796c0.797,0.348,1.626,0.915,2.323,1.535c0.506,0.451,0.903,1.071,1.014,1.697
				c-0.055-0.31-0.016,0.116-0.028,0.214c-0.029,0.21,0.093-0.164-0.091,0.184c0.223-0.423-0.328,0.262,0.044-0.062
				c-0.359,0.312,0.052,0.03-0.433,0.255c-0.215,0.103-0.062,0.038-0.492,0.159c-0.241,0.068-0.492,0.125-0.739,0.164
				c-0.996,0.155-2.013,0.184-3.02,0.189c-0.846,0.007-2.017,0.639-2.128,1.562C323.298,75.985,324.45,76.25,325.206,76.244
				L325.206,76.244z"/>
		</g>
	</g>
	<g>
		<g>
			<path fill="#898989" d="M274.943,74.169c2.313,0.438,4.726,0.509,6.972-0.292c1.245-0.443,2.889-1.353,2.985-2.849
				c0.242-3.733-5.715-4.44-8.24-4.413c-2.657,0.029-5.461,0.6-7.844,1.794c-1.24,0.622-2.676,1.825-2.304,3.376
				c0.339,1.41,2.054,2.238,3.275,2.675c2.138,0.762,4.545,0.75,6.756,0.376c0.683-0.115,1.964-0.416,2.228-1.192
				c0.262-0.771-1.264-0.675-1.611-0.616c-2.199,0.372-5.129,0.115-6.586-1.816c-1.715-2.271,3.59-2.667,4.504-2.697
				c1.984-0.068,5.104,0.494,5.875,2.672c0.111,0.315,0.113,0.604,0.02,0.918c-0.078,0.27-0.377,0.494-0.268,0.43
				c-0.448,0.269,0.479-0.125-0.116,0.033c0.31-0.082-0.455,0.034-0.423,0.032c-0.938,0.05-1.875-0.111-2.791-0.286
				c-0.875-0.166-2.038,0.202-2.732,0.732C273.992,73.539,274.204,74.027,274.943,74.169L274.943,74.169z"/>
		</g>
	</g>
	<g>
		<g>
			<path fill="#898989" d="M254.486,39.527c-4.135-1.509-9.068-0.878-12.026,2.607c-0.911,1.073-1.358,2.649-0.836,3.992
				c0.679,1.746,2.68,2.501,4.36,2.858c4.258,0.909,12.143,0.229,13.902-4.657c0.594-1.646-0.537-3.304-1.852-4.183
				c-2.215-1.48-5.021-1.616-7.596-1.47c-0.736,0.043-2.002,0.52-2.187,1.35c-0.2,0.901,1.153,0.923,1.687,0.894
				c2.034-0.117,6.515,0.457,6.172,3.458c-0.354,3.125-6.065,2.803-8.11,2.365c-1.938-0.415-3.429-2.013-2.298-3.956
				c1.188-2.04,3.73-2.062,5.723-1.336c0.903,0.329,1.928,0.169,2.741-0.343C254.629,40.817,255.394,39.858,254.486,39.527
				L254.486,39.527z"/>
		</g>
	</g>
	<g>
		<path fill="#5FC195" d="M297.173,41.806c-8.303,0,1.383,11.761,9.686,2.075c-2.768-3.458-6.92-4.15-11.069-3.458"/>
		<g>
			<path fill="#898989" d="M297.332,40.341c-1.924,0.054-4.389,0.652-5.125,2.688c-0.624,1.728,0.587,3.323,1.831,4.384
				c4.575,3.905,11.032,0.883,14.448-2.924c0.337-0.375,0.498-1.052,0.138-1.473c-3.24-3.782-7.892-4.771-12.677-4.058
				c-0.871,0.129-2.01,0.567-2.119,1.598c-0.102,0.938,1.007,1.451,1.803,1.332c3.607-0.537,6.982-0.037,9.464,2.857
				c0.046-0.49,0.093-0.98,0.138-1.473c-1.978,2.203-4.807,3.956-7.672,2.254c-0.718-0.426-1.345-1.053-1.574-1.866
				c-0.031-0.114-0.057-0.262,0.021-0.362c-0.183,0.245,0.628-0.018,1.01-0.027C299.25,43.209,299.957,40.268,297.332,40.341
				L297.332,40.341z"/>
		</g>
	</g>
	<g>
		<g>
			<path fill="#898989" d="M329.239,40.757c-3.428-1.643-8.1-1.745-11.176,0.813c-1.919,1.598-2.197,3.588-0.135,5.184
				c4.83,3.73,13.939,1.126,16.232-4.32c0.064-0.122,0.039-0.22-0.079-0.293c-2.182-1.986-4.646-2.18-7.48-2.186
				c-0.92-0.003-1.939,0.258-2.731,0.731c-0.617,0.369-0.526,0.777,0.209,0.779c1.616,0.004,3.143,0.012,4.645,0.688
				c1.884,0.849,1.372,2.02,0.25,3.28c-1.477,1.66-3.369,1.56-5.357,1.019c-1.358-0.368-2.852-1.247-3.293-2.651
				c-0.231-0.735,0.144-1.488,0.622-2.028c1.177-1.33,3.372-0.336,4.647,0.274c0.708,0.339,1.798-0.011,2.479-0.252
				C328.173,41.76,329.842,41.046,329.239,40.757L329.239,40.757z"/>
		</g>
	</g>
	<g>
		<g>
			<path fill="#898989" d="M226.049,38.544c-2.687,0.018-8.983,0.419-9.009,4.361c-0.018,2.899,3.434,4.843,5.764,5.712
				c3.289,1.229,7.355,1.015,9.945-1.569c1.622-1.619,2.712-4.249,1.043-6.206c-1.658-1.944-4.678-2.266-7.053-2.298
				c-0.844-0.013-2.019,0.649-2.127,1.562c-0.123,1.021,1.031,1.257,1.785,1.269c1.338,0.019,3.096,0.277,4.018,1.357
				c0.965,1.131-0.374,2.782-1.172,3.357c-0.25,0.181-0.448,0.232-0.805,0.327c-0.063,0.018-0.902,0.101-1.101,0.09
				c-1.104-0.059-1.983-0.33-3.054-0.796c-0.797-0.348-1.627-0.914-2.322-1.535c-0.506-0.45-0.902-1.071-1.014-1.696
				c0.055,0.309,0.017-0.116,0.029-0.215c0.029-0.21-0.093,0.164,0.09-0.184c-0.223,0.423,0.328-0.262-0.045,0.062
				c0.36-0.312-0.051-0.029,0.434-0.255c0.215-0.103,0.062-0.038,0.492-0.159c0.24-0.068,0.492-0.125,0.738-0.164
				c0.996-0.155,2.012-0.184,3.02-0.189c0.846-0.007,2.017-0.639,2.128-1.562C227.957,38.803,226.805,38.539,226.049,38.544
				L226.049,38.544z"/>
		</g>
	</g>
	<g>
		<g>
			<path fill="#898989" d="M276.307,40.619c-2.313-0.438-4.726-0.508-6.972,0.292c-1.245,0.444-2.889,1.353-2.984,2.849
				c-0.242,3.734,5.715,4.44,8.239,4.414c2.657-0.029,5.461-0.6,7.843-1.794c1.24-0.623,2.676-1.825,2.305-3.376
				c-0.34-1.411-2.055-2.239-3.275-2.676c-2.139-0.762-4.545-0.749-6.756-0.376c-0.684,0.115-1.965,0.416-2.229,1.192
				c-0.261,0.771,1.264,0.675,1.612,0.616c2.199-0.371,5.128-0.114,6.586,1.817c1.715,2.271-3.59,2.667-4.504,2.697
				c-1.983,0.067-5.104-0.495-5.874-2.673c-0.111-0.315-0.113-0.602-0.021-0.917c0.08-0.27,0.379-0.495,0.27-0.43
				c0.448-0.27-0.48,0.124,0.115-0.033c-0.309,0.081,0.455-0.035,0.423-0.033c0.937-0.049,1.875,0.111,2.791,0.286
				c0.875,0.166,2.038-0.202,2.731-0.732C277.256,41.25,277.045,40.761,276.307,40.619L276.307,40.619z"/>
		</g>
	</g>
	<g>
		<g>
			<path fill="#898989" d="M296.764,21.47c4.138,1.509,9.07,0.878,12.029-2.607c0.911-1.072,1.358-2.649,0.837-3.992
				c-0.68-1.745-2.681-2.501-4.361-2.858c-4.258-0.909-12.144-0.229-13.904,4.657c-0.594,1.646,0.537,3.304,1.852,4.183
				c2.216,1.481,5.021,1.616,7.598,1.47c0.735-0.043,2-0.519,2.186-1.35c0.199-0.901-1.153-0.923-1.686-0.894
				c-2.035,0.117-6.517-0.455-6.175-3.457c0.356-3.126,6.068-2.804,8.113-2.366c1.938,0.415,3.429,2.013,2.298,3.956
				c-1.188,2.041-3.732,2.062-5.725,1.336c-0.903-0.329-1.928-0.169-2.741,0.343C296.622,20.179,295.859,21.139,296.764,21.47
				L296.764,21.47z"/>
		</g>
	</g>
	<g>
		<g>
			<path fill="#898989" d="M253.892,20.547c1.869-0.053,4.415-0.641,5.137-2.636c0.619-1.71-0.565-3.217-1.799-4.269
				c-4.524-3.863-11.07-0.809-14.44,2.947c-0.321,0.357-0.523,0.944-0.167,1.36c3.226,3.767,7.906,4.687,12.652,3.979
				c0.828-0.123,2.006-0.534,2.142-1.519c0.127-0.924-1.045-1.299-1.767-1.19c-3.649,0.544-6.988-0.026-9.482-2.938
				c-0.057,0.454-0.111,0.908-0.167,1.361c2.032-2.266,4.758-3.965,7.678-2.23c0.731,0.437,1.354,1.098,1.588,1.925
				c0.205,0.726-0.3,0.48-0.999,0.501C252.111,17.896,251.254,20.62,253.892,20.547L253.892,20.547z"/>
		</g>
	</g>
	<g>
		<path fill="#5FC195" d="M223.84,19.596c1.384,0.69,4.841,2.075,7.608,0c6.225-4.842-8.992-10.378-12.451-1.384
			c2.074,2.074,4.15,2.074,6.917,2.074"/>
		<g>
			<path fill="#898989" d="M222.017,20.24c3.428,1.643,8.1,1.745,11.174-0.813c1.92-1.597,2.197-3.588,0.135-5.184
				c-4.829-3.73-13.938-1.125-16.229,4.32c-0.065,0.122-0.039,0.22,0.079,0.293c2.18,1.986,4.643,2.18,7.479,2.187
				c0.92,0.002,1.94-0.259,2.732-0.732c0.617-0.369,0.526-0.777-0.209-0.779c-1.615-0.004-3.143-0.012-4.645-0.688
				c-1.883-0.848-1.37-2.021-0.25-3.28c1.478-1.659,3.369-1.56,5.357-1.019c1.358,0.369,2.85,1.248,3.292,2.651
				c0.231,0.735-0.143,1.487-0.62,2.028c-1.178,1.33-3.373,0.336-4.647-0.274c-0.708-0.339-1.798,0.011-2.479,0.253
				C223.083,19.237,221.414,19.951,222.017,20.24L222.017,20.24z"/>
		</g>
	</g>
	<g>
		<g>
			<path fill="#898989" d="M325.206,22.453c2.686-0.018,8.985-0.419,9.011-4.361c0.018-2.899-3.435-4.842-5.766-5.712
				c-3.289-1.229-7.356-1.015-9.946,1.569c-1.622,1.619-2.711,4.249-1.042,6.206c1.657,1.944,4.677,2.266,7.051,2.298
				c0.844,0.013,2.02-0.649,2.128-1.562c0.123-1.021-1.032-1.257-1.786-1.268c-1.337-0.02-3.095-0.278-4.016-1.358
				c-0.966-1.131,0.373-2.782,1.171-3.357c0.25-0.181,0.448-0.232,0.804-0.326c0.065-0.019,0.903-0.102,1.103-0.091
				c1.104,0.059,1.982,0.331,3.054,0.796c0.797,0.348,1.626,0.914,2.323,1.535c0.506,0.45,0.903,1.07,1.014,1.696
				c-0.054-0.309-0.016,0.116-0.028,0.215c-0.029,0.21,0.093-0.164-0.091,0.184c0.223-0.423-0.328,0.262,0.044-0.062
				c-0.359,0.312,0.052,0.029-0.433,0.255c-0.215,0.102-0.062,0.038-0.492,0.159c-0.241,0.068-0.492,0.125-0.739,0.164
				c-0.996,0.155-2.013,0.184-3.02,0.19c-0.846,0.006-2.017,0.638-2.128,1.562C323.298,22.194,324.45,22.459,325.206,22.453
				L325.206,22.453z"/>
		</g>
	</g>
	<g>
		<g>
			<path fill="#898989" d="M274.943,20.378c2.313,0.438,4.726,0.508,6.972-0.292c1.245-0.444,2.889-1.353,2.985-2.849
				c0.242-3.734-5.715-4.44-8.24-4.414c-2.657,0.029-5.461,0.6-7.844,1.794c-1.24,0.623-2.676,1.825-2.304,3.376
				c0.339,1.411,2.054,2.239,3.275,2.676c2.138,0.762,4.545,0.749,6.756,0.376c0.683-0.115,1.964-0.416,2.228-1.192
				c0.262-0.771-1.264-0.675-1.611-0.616c-2.199,0.371-5.129,0.114-6.586-1.817c-1.715-2.271,3.59-2.667,4.504-2.697
				c1.984-0.067,5.104,0.495,5.875,2.673c0.111,0.315,0.113,0.603,0.02,0.917c-0.078,0.271-0.377,0.495-0.268,0.43
				c-0.448,0.27,0.479-0.124-0.116,0.033c0.31-0.081-0.455,0.035-0.423,0.033c-0.938,0.049-1.875-0.111-2.791-0.286
				c-0.875-0.166-2.038,0.202-2.732,0.732C273.992,19.748,274.204,20.236,274.943,20.378L274.943,20.378z"/>
		</g>
	</g>
</g>
</svg>
